<svg xmlns="http://www.w3.org/2000/svg" xmlns:xlink="http://www.w3.org/1999/xlink" viewBox="0 0 1366 757"><defs><style>.cls-1,.cls-4{fill:none;}.cls-2{fill:#f2f2f2;}.cls-3{fill:#3f3d56;}.cls-4{stroke:tomato;stroke-miterlimit:10;stroke-width:2px;opacity:0.8;}.cls-4,.cls-8{isolation:isolate;}.cls-5{fill:tomato;}.cls-6{fill:#15172d;opacity:0.54;}.cls-7{opacity:0.28;}.cls-9{clip-path:url(#clip-path);}.cls-10{fill:#9d9d9d;}.cls-11{fill:#a1a1a1;}.cls-12{clip-path:url(#clip-path-2);}.cls-13{fill:#bababa;}.cls-14{fill:#b6b6b6;}.cls-15{fill:#b1b1b1;}.cls-16{fill:#adadad;}.cls-17{fill:#a9a9a9;}.cls-18{fill:#a5a5a5;}.cls-19{fill:#a8a8a8;}.cls-20{fill:#c8c8c8;}.cls-21{clip-path:url(#clip-path-3);}.cls-22{fill:#bebebe;}.cls-23{fill:#ececec;}.cls-24{opacity:0.25;}.cls-25{clip-path:url(#clip-path-4);}.cls-26{fill:#c1c1c1;}.cls-27{fill:#bdbdbd;}.cls-28{fill:#b9b9b9;}.cls-29{fill:#b5b5b5;}.cls-30{fill:#aeaeae;}.cls-31{fill:#aaa;}.cls-32{fill:#a6a6a6;}.cls-33{fill:#a2a2a2;}.cls-34{clip-path:url(#clip-path-5);}.cls-35{fill:#c5c5c5;}.cls-36{fill:#d2d2d2;}.cls-37{fill:#d7d7d7;}.cls-38{clip-path:url(#clip-path-6);}.cls-39{fill:#c9c9c9;}.cls-40{fill:#cdcdcd;}.cls-41{fill:#d0d0d0;}.cls-42{fill:#d4d4d4;}.cls-43{fill:#d8d8d8;}.cls-44{fill:#dcdcdc;}.cls-45{fill:#e0e0e0;}.cls-46{fill:#e4e4e4;}.cls-47{fill:#e8e8e8;}.cls-48{clip-path:url(#clip-path-7);}.cls-49{fill:#b8b8b8;}.cls-50{fill:#bcbcbc;}.cls-51{fill:#bfbfbf;}.cls-52{fill:#c2c2c2;}.cls-53{fill:#c6c6c6;}.cls-54{fill:#d3d3d3;}.cls-55{clip-path:url(#clip-path-8);}.cls-56{fill:#b2b2b2;}.cls-57{fill:#e2e2e2;}.cls-58{clip-path:url(#clip-path-9);}.cls-59{fill:#dadada;}.cls-60{fill:#ddd;}.cls-61{fill:#dedede;}</style><clipPath id="clip-path"><path class="cls-1" d="M546.59,452.71l-.13,36.3c0,4.46-2.08,8.85-6.31,12.43l.13-36.3C544.52,461.56,546.58,457.17,546.59,452.71Z"/></clipPath><clipPath id="clip-path-2"><path class="cls-1" d="M117.84,612.07l.13-36.3c0,5.73,3.34,11.58,9.77,16q1.06.73,2.23,1.4l-.13,36.3q-1.17-.67-2.23-1.4C121.18,623.66,117.82,617.8,117.84,612.07Z"/></clipPath><clipPath id="clip-path-3"><path class="cls-1" d="M302.89,665.93l-.13,36.3c-10.29,8.7-29.69,9.52-43.1,1.81l.13-36.3C273.2,675.45,292.61,674.63,302.89,665.93Z"/></clipPath><clipPath id="clip-path-4"><path class="cls-1" d="M263.33,671.69l-35.24,20.48c3-1.74,4.86-5.43,4.88-10.67L268.21,661C268.19,666.26,266.33,669.95,263.33,671.69Z"/></clipPath><clipPath id="clip-path-5"><path class="cls-1" d="M38.67,247l35.24-20.48c3-1.76,7.23-1.53,11.85,1.14L50.52,248.17C45.91,245.51,41.71,245.27,38.67,247Z"/></clipPath><clipPath id="clip-path-6"><path class="cls-1" d="M217.22,344.42l35.24-20.48c9.17,5.3,16.65,18.25,16.62,28.79l-35.24,20.48C233.87,362.67,226.4,349.72,217.22,344.42Z"/></clipPath><clipPath id="clip-path-7"><path class="cls-1" d="M494.61,148l-.12,40.76c0,3.61-2.37,7.22-7.08,10l.12-40.76C492.24,155.22,494.6,151.62,494.61,148Z"/></clipPath><clipPath id="clip-path-8"><path class="cls-1" d="M90.39,217.49l.12-40.76c0,3.66,2.39,7.33,7.2,10.1l-.12,40.76C92.78,224.82,90.38,221.15,90.39,217.49Z"/></clipPath><clipPath id="clip-path-9"><path class="cls-1" d="M285.59,275.32l-.12,40.76c-9.5,5.52-25.07,5.52-34.63,0l.12-40.76C260.51,280.83,276.09,280.83,285.59,275.32Z"/></clipPath></defs><title>background4</title><g id="Calque_2" data-name="Calque 2"><g id="Calque_10" data-name="Calque 10"><path class="cls-2" d="M991.68,290.73c-121.56-131-378.34-184.11-630.88-126.89-133.51,30.25-262.24,90.87-326,208.24-114,209.81,125.4,276.82,282,298.18,75.71,10.33,147,27.67,212.17,51.29C646.13,764,853.62,801.69,1010.09,624.7,1123.5,496.42,1072.64,378,991.68,290.73Z"/><path class="cls-3" d="M286.93,316.65a20,20,0,0,0-2-6.06,3,3,0,0,0-1.8-1.72,4.77,4.77,0,0,0-1.79,0l-9.18,1.09a4.15,4.15,0,0,0-2.09.63c-1.2,1,0,2.54-.05,3.89,0,1.51-1.77,2.74-3.65,3.14a17.76,17.76,0,0,1-5.81-.06L247.66,316a22.32,22.32,0,0,0,9.71-5c1.69-1.55,2.59-4.44.15-5.18a7.68,7.68,0,0,0-2.23-.14c-5.82,0-10.39-3.73-15.84-5.31-7.15-1.95-15.1-.11-19.71,4.55l6.84.26a3.73,3.73,0,0,1,1.82.38c1.5,1-.36,2.79-.15,4.28.27,1.94,3.6,2.35,6.11,2.55s5.69,1.77,4.48,3.49c-12.6,3.36-25.43-6.57-38.67-5.35-3.35.31-6.51,1.33-9.78,2-20,3.91-40.64-6.53-61-4.32A96.15,96.15,0,0,0,116,310.87c-2.78.71-5.68,1.47-7.69,3.11s-2.79,4.44-.87,6.15A57.26,57.26,0,0,1,91.78,319c2.81,1.21,4.54,3.51,4.51,6a113.8,113.8,0,0,0-23.82,5.62,33.24,33.24,0,0,0,4.93,5.09L67,340.86c3.52.69,5.34,4.4,3.29,6.72,3.65-1.26,5.91-4.51,9.81-5.17,2.56-.43,5.16.38,7.58,1.14s5.09,1.5,7.6.93,4.36-3.09,2.77-4.7a165.1,165.1,0,0,1,33-4,5.18,5.18,0,0,1,2.5.37c1.45.78,1.07,2.47,1,3.84s1.3,3.17,2.88,2.55c-1.86,1.25-.27,3.6,1.51,4.91s3.94,3.13,2.84,4.83c-.29.45-.77.8-1,1.25-.81,1.33.48,2.88,2,3.76s3.37,1.5,4.43,2.72a2.1,2.1,0,0,1-1.31,3.53l-5.35-5.26a10.29,10.29,0,0,0-3.62,5.31c5.68,3.59,6.53,10.91,1.78,15.23-2.43,2.21-5.88,3.55-8.9,5.28s-5.8,4.18-5.8,7.08c0,5-.52,9.67,1.91,14.32a203.8,203.8,0,0,0,15.47,25c1.53,2.12,3.51,4.44,6.61,4.81q-5.88-11.08-10.58-22.5c2,0,4.4.13,5.6,1.41,1,1.06.78,2.5,1.09,3.79a10.55,10.55,0,0,0,1.93,3.52l18.71,25.8c1.55,2.14,3.33,4.43,6.29,5.3,1.89.55,4.09.45,5.83,1.25,1.37.62,2.29,1.73,3.68,2.32,3.94,1.66,9.42-1.53,13.1.46a33.83,33.83,0,0,1,2.69,2.12c3.4,2.28,9,.75,12.91,2.46,2.53,1.1,3.84,3.29,5.19,5.28,3.38,5,8.85,9.85,16.1,10.25,2.28.12,4.6-.21,6.82.18s4.41,1.9,4.06,3.64c-.61,3,1.3,6.27.78,9.27-.93,5.47-11,7.87-11.81,13.35-.19,1.2.11,2.44-.26,3.61-.45,1.44-1.85,2.61-2.34,4-.94,2.71,1.57,5.41,4.32,7.23s6,3.39,7.54,5.95.81,5.84,1.33,8.78C242,539.22,249.2,544,256.56,547c2.24.93,4.65,1.84,6.1,3.46,1.9,2.12,1.71,4.9,2.34,7.43,1.55,6.19,8.28,11.29,8.47,17.59.14,4.48-3.08,8.54-5,12.77-3.64,8.2-2.5,17.21,3.14,24.7,1.44,1.88,3.16,3.65,4.17,5.69,1.81,3.64,1.23,7.77,2.9,11.44,2.21,4.86,8.29,8.87,7.71,14,2.76,4.44,8.85,6.62,15,7.94l11,2.37a18,18,0,0,0,6.44.58c2.14-.33,4.18-1.7,4.13-3.39-5.38-.94-10.94-1.94-15.38-4.48s-7.48-7.06-5.79-11.13c.78-1.89,2.44-4.07.86-5.63-.9-.89-2.56-1.13-3.58-1.94-1.59-1.27-1-3.41.1-4.94s2.8-2.9,3.26-4.63c.48-2-.69-4-2.93-5a16.59,16.59,0,0,0,5.43-2.7c1.43-1.26,2.09-3.21,1-4.65,3.34.33,7.28.49,9.47-1.49,1.75-1.58,1.63-3.94.94-6s-1.86-4-1.9-6a183.45,183.45,0,0,0,23.08-.61,12.68,12.68,0,0,0-7-6.8c3.47-.45,6.63-3.67,7.72-6.26a12.6,12.6,0,0,0,.14-8.08,3.4,3.4,0,0,1-.1-2.12c.39-1,1.61-1.55,2.74-2.06l17.22-7.66a10.29,10.29,0,0,0,2.75-1.57c1.8-1.64,1.54-4.12.61-6.15s-2.4-3.94-2.76-6.08c-1.06-6.39,7.77-11,10.75-17a20.45,20.45,0,0,0,1.64-7.45c.24-2.71.26-5.86-2.43-7.6s-6.6-1.3-9.29-2.86c-2.47-1.43-3.32-4.2-6-5.35-2.45-1-5.52-.38-8.25-.87-4.8-.87-7.82-5.15-12.72-5.55-2.77-.22-5.9.82-8.16-.42-2-1.1-2.08-3.31-2.46-5.18-1.36-6-7.39-10.64-15.09-11.72-2.85-.35-6-.22-8.38-1.43s-3.58-3.53-5.51-5.23c-3.11-2.74-8-3.72-12.6-4.55L261.56,467c-3.31-.6-7.58-.92-9.36,1.32a8.81,8.81,0,0,0-1.11,2.7c-1.37,3.47-5.46,5.85-10.14,5.91a12,12,0,0,0-7.07-4.24,55.07,55.07,0,0,1-5.72-1.05c-4-1.51-5.65-5.24-3.7-8.33l.21-.31c2.21-3,1.51-6.87-1.71-9.32-3.17-2.21-7.77-2.74-12-2.52-1.11-1.88.75-4,2.76-5.38s4.45-2.71,4.88-4.76c.69-3.22-4.61-5.66-8.63-4.7s-6.59,4-8.29,7a19.42,19.42,0,0,1-3.34,5,7.56,7.56,0,0,1-6.35,2c-3.31-.66-4.59-3.7-5.32-6.29-1-3.47-2-7-1.77-10.53a12.43,12.43,0,0,1,5.13-9.59c5.51-3.91,14-3.53,21.38-2.91-1.76-1.53-1.32-4.11.56-5.55a10,10,0,0,1,7.39-1.41,11,11,0,0,1,5.73,2.65c2.11,2,2.71,4.69,4.31,6.95s5.18,4.19,8.12,3c2.54-1,2.94-3.77,2.31-5.95s-2-4.29-1.74-6.51c.44-4.24,6.11-6.79,11.11-8.53s10.73-4.09,11.53-8.3a6.09,6.09,0,0,1,.59-2.41,5.76,5.76,0,0,1,2.24-1.63c14.6-7.47,29.45-15,46.14-19.12.87-.21,1,0,1.86-.14,1.24-.55.42-2.09-.77-2.71s-2.77-1.09-3.08-2.17c-.22-.8.38-1.58.54-2.38.39-2-2.67-3.81-5-3-1.34-1.37,1.31-3,3.46-3.43a119.23,119.23,0,0,1,19.73-2.5,4.46,4.46,0,0,1,2.24.3,1.76,1.76,0,0,1,.18,2.84,20.63,20.63,0,0,1-3,2.12,5.45,5.45,0,0,0-2.14,6.42c3.48,1.37,7.27,2.78,11.13,2.3s7.28-3.84,5.47-6.52c-1.69-2.5-6.76-3.06-7.63-5.79-1-3.2,4.83-6.05,3.51-9.19-.58-1.37-2.35-2.18-3.7-3.17-3.28-2.49-4.25-6.28-2.43-9.55a16.81,16.81,0,0,1-12.31-3c-2.94-2.3-5.29-5.93-9.47-5.83-3.84.09-7.14,3.56-10.73,2.5-.88-.26-1.81-.79-2.67-.48a1.7,1.7,0,0,0-1,1.28c-.91,3.38.66,7.22-1.72,10.14-2.59,3.17-8.56,3.61-11.7,6.48-1.7,1.55-2.36,3.65-3.92,5.28s-4.88,2.68-6.76,1.25c1.9-3,.85-6.66-2.53-8.77a28.45,28.45,0,0,0-5.59-2.11,36.83,36.83,0,0,1-6.24-2.7,5.53,5.53,0,0,1-2.29-1.9,3.43,3.43,0,0,1,.16-3c1.94-4.31,6.8-7.42,12.62-8.1,2.5-.26,5.41-.17,7.06-1.64.87-.78,1.33-2,2.6-2.28a4.87,4.87,0,0,1,2.4.23l9.33,2.54a8.26,8.26,0,0,0,3.32.43c1.17-.12,2-.92,1.95-1.83-.3-1.2-2.68-1.77-2.46-3a2,2,0,0,1,.78-1c6.81-5.62,16.51-8.58,26.44-8.09,1.18,1.5-.68,3.27-2.23,4.55s-2.79,3.56-.92,4.54a6.4,6.4,0,0,0,2.48.43,26.53,26.53,0,0,1,6.61,1.55q4.83,1.63,9.48,3.56c-.27-1.58-.53-3.25.24-4.73a4.46,4.46,0,0,1,4.9-2.06c1.85.56,2.8,2.45,4.78,2.63,2.63.23,3.67-2.78,2.57-4.65s-3.28-3.43-3.46-5.48c-.12-1.38.56-3.09-.87-3.93a4.66,4.66,0,0,0-1.68-.46l-35.58-5.07c-2.11-.3-5.16-.07-5.26,1.59-.05.93,1,1.85.54,2.7s-2.17.83-3.38,1.15a3.51,3.51,0,0,0-2.64,3.76,9.32,9.32,0,0,0,2.23,4.23C292.75,317.54,289.25,317.4,286.93,316.65Z"/><path class="cls-3" d="M258.55,293.26c-4.6-1.18-9.65,0-12.65,2.93-.59.6-1.08,1.42-.59,2.07.7.93,2.49.56,3.82.23a12.27,12.27,0,0,1,6-.11c1.24.33,2.35.91,3.6,1.23a4.49,4.49,0,0,0,3.69-.42,3.13,3.13,0,0,0,.91-2.67,1.85,1.85,0,0,0-.71-1.77,4.43,4.43,0,0,0-1.63-.37,6.13,6.13,0,0,1-3.29-1.49"/><path class="cls-3" d="M271.37,290.5c-1.62-.07-3,.89-3.09,2.14a1.83,1.83,0,0,0,.25,1.05,15.24,15.24,0,0,0,4.74.24,3.81,3.81,0,0,0,3.31-2.35,9.51,9.51,0,0,1-5.4-.8"/><path class="cls-3" d="M314.41,285.88a66,66,0,0,0-12.14,3.19c3.75,1.12,6.11,4,5.83,7.1a2.89,2.89,0,0,0,.06,1.75c.45.84,1.74,1.15,2.87,1.37a24.17,24.17,0,0,0,6.31.62,6.86,6.86,0,0,0,5.22-2.47,15.76,15.76,0,0,1,1.09-2c2.72-3.21,10.81.67,13.74-2.43,1-1.09.94-2.74,2.28-3.61a6.08,6.08,0,0,1,2.34-.69q8.82-1.36,17.79-2c2.83-.19,6.52-1,6.54-3.18a62.31,62.31,0,0,0-31.44,3.28c-3.5,1.36-8.14,4.22-11.52,2.42-1.26-.67-1.2-2.49-2.94-3.25S316.3,285.57,314.41,285.88Z"/><path class="cls-3" d="M349.27,290.93l5,.74c-3.58-.12-6.61,2-6.76,4.79a3.89,3.89,0,0,0,0,.65c4.69,1.21,9.79,0,14.73.19s10.68,2.89,9.84,6.66c-.25,1.14-1.11,2.28-.66,3.38.31.77,1.19,1.32,1.69,2,1,1.49.21,3.37-1.1,4.72S369,316.54,367.8,318c-2.86,3.57-1.24,8.19.47,12.18a10.07,10.07,0,0,0,2.67,4.12c2.52,2.08,6.64,2.26,10.32,2.3,2.68,0,5.75-.07,7.45-1.68,2.21-2.1.67-5.38,2.12-7.84,1.32-2.24,4.7-3.2,7.75-3.88,5.6-1.25,11.3-2.31,16.59-4.19,6.57-2.34,12.71-6,19.93-6.29a35.19,35.19,0,0,0,6.05-.33c2-.43,3.81-1.74,3.66-3.3-.13-1.34-1.59-2.32-2.73-3.33s-2-2.56-1-3.63L460,299.36c-1.34-2.83-2.39-6.56.7-8.4,1.11-.67,2.6-.93,3.55-1.73,1.61-1.37.8-3.73-1.06-4.9s-4.38-1.44-6.77-1.59a234.48,234.48,0,0,0-25,.17L382.7,285c-3.27.14-7.05-.07-10.05.79-2.54.73-4.35,2.08-7.25,2.55C360,289.18,354.13,288.59,349.27,290.93Z"/><path class="cls-3" d="M438.92,321.55a2.49,2.49,0,0,0-1.46.26,1.29,1.29,0,0,0-.47.87,4.72,4.72,0,0,0,1.08,4.11,5.84,5.84,0,0,0,4.76,1.77c2.25-.22,3.91-1.71,6-2.44,3.19-1.12,16.75-2.86,7.37-6.79-3.23-1.35-5.32-.16-7.87.73A22.41,22.41,0,0,1,438.92,321.55Z"/><path class="cls-3" d="M521.07,288.71a5.18,5.18,0,0,0-2.61,1.76,1.58,1.58,0,0,0,.86,2.35,4.33,4.33,0,0,0,1.28.16l4.45.1c1.89,0,4.25.36,4.76,1.77.38,1-.47,2.4.55,3.14a3.39,3.39,0,0,0,1.51.46,13.26,13.26,0,0,0,4.49.11c3.24-.67,1.54-2.2,2.56-3.57,1.56-2.09,1.29-.82,4-2,2-.88,4.66-2.48,3-4.74C543,284.32,525.42,287,521.07,288.71Z"/><path class="cls-3" d="M609,286.74l-2.59.27a131.57,131.57,0,0,0-17.31,2.57,35.88,35.88,0,0,0,7.58,1.44,29.69,29.69,0,0,1,4.25.47c2.48.57,5,2,7.38,1.29,1.49-.47,2-1.67,3.2-2.3.85-.44,4.07-1.15,4.43-1.59C618.82,285.31,611.2,286.51,609,286.74Z"/><path class="cls-3" d="M620.32,295.84a49.92,49.92,0,0,0-9.54,5.41c-1.21.88-2.46,2-2.35,3.27.15,1.71,2.5,2.71,4.54,3.37l8.27,2.71c1-1.09.09-2.61-1-3.68s-2.27-2.32-1.81-3.61c.52-1.48,2.85-2,4.8-2.23,3.18-.41,11.75-.38,10.72-4.35C632.78,292.06,623.51,294.46,620.32,295.84Z"/><path class="cls-3" d="M618.65,560.25a4.92,4.92,0,0,0,.5,5.38c1.53,1.73,4.58,2.37,7.23,1.93a13.86,13.86,0,0,0,6.71-3.34,18.21,18.21,0,0,0,3.86-4.58,29.71,29.71,0,0,0,2.86-8.11l2.57-10.43c.57-2.33.55-9.48-5-7.15-1.51.64-5,5.66-6.6,7.09-2.86,2.57-3.23,5.06-4.74,8.17C624.18,553.1,620.39,556.34,618.65,560.25Z"/><path class="cls-3" d="M911,613.64a46.41,46.41,0,0,1-5.26-1.94A27.57,27.57,0,0,0,903.08,623l12.39-5.43c1.86-.82,4-2,3.94-3.61a1.09,1.09,0,0,0-.69-1,2.13,2.13,0,0,0-.87-.08,25.55,25.55,0,0,0-5.25,1.31,8.12,8.12,0,0,1-5.35,0"/><path class="cls-3" d="M976.39,616.87a32.29,32.29,0,0,0-4,1.1c-2.84,1.12-4.78,3.25-7.34,4.72a33.68,33.68,0,0,1-8.29,2.94c-.85.58-.46,1.76.46,2.27a7.15,7.15,0,0,0,3.27.57c3,.05,6.17.07,8.81-1.05a27.86,27.86,0,0,0,4.15-2.55,48.59,48.59,0,0,1,10.44-4.57,13.06,13.06,0,0,0,3.64-1.68c2.3-1.75,2.46-4.46-.85-5.06C984,613.08,978.94,616.23,976.39,616.87Z"/><path class="cls-3" d="M1005.28,602.26a7.11,7.11,0,0,0-3.16-6.56c0,2.42-.13,5-1.88,7-1.25,1.42-3.21,2.39-4.58,3.74s-2,3.51-.37,4.69a7.22,7.22,0,0,0,3.57,1c3.2.29,6.9.45,9.14-1.34,1.22-1,1.82-2.42,3.31-3.14a4.17,4.17,0,0,0,1.45-.81c.62-.76-.36-1.76-1.47-2s-2.32-.14-3.43-.4-2.13-1.22-1.56-2"/><path class="cls-3" d="M953.93,513.68a18.47,18.47,0,0,1-5.13.23c-2.85-.41-5.06-2.07-7.36-3.43a38.88,38.88,0,0,0-19-5.13c-6.25-.09-12.55,1.22-18.69.3.4,1.73,2.31,3,4.34,3.79s4.28,1.16,6.33,1.91a13.7,13.7,0,0,1,7.32,5.89,15.18,15.18,0,0,0,2.07,3.53c2,2.12,5.91,2.59,9.32,2.42,4.45-.23,9.09-1.22,13.23.07,3.17,1,5.43,3.13,8.07,4.8s6.37,2.91,9.4,1.7c-6.47-1.62-10.83-6.31-10.75-11.58,3,.21,11.55.13,11.09-3.79C963.81,511.07,956.49,513.32,953.93,513.68Z"/><path class="cls-3" d="M915,540.69c.53-2.24,3.42-4.23,2.52-6.4-.62-1.5-2.87-2.24-4.91-2.28s-4,.43-6.08.48a38.22,38.22,0,0,0-4,0c-4,.51-6.54,3.8-10.35,5-2.32.71-4.92.57-7.33,1.06-5.47,1.11-8.93,5.12-12.76,8.34A49.73,49.73,0,0,1,849,557.33c-3.11.56-6.45.91-8.93,2.48-3.27,2.07-4.08,5.62-4.81,8.85a121.21,121.21,0,0,1-9.19,26.11l13,1.28a22.7,22.7,0,0,0,7.41-.08,24.14,24.14,0,0,0,4.87-2,58.29,58.29,0,0,1,19-5.31,25.81,25.81,0,0,1,10.16.55c3.19,1,5.93,3.2,6.2,5.85a9.69,9.69,0,0,1,8,1.5,10.1,10.1,0,0,1,3.81,5.89c.34,1.38.68,3,2.33,3.6,1.35.47,2.89,0,4.36-.13,5-.31,9.14,4.2,14,3.42,5.26-.83,6.56-6.94,11.69-8.16,2.95-.7,7.09.15,8.5-2,1.25-1.87-1.24-4-1-6.13.32-2.58,4.25-3.68,7.28-4.78,10.45-3.8,15.41-14.69,10.35-22.73-3-4.76-8.91-8.51-10-13.74-.84-4,1.21-8.72-2.1-11.88-1.69-1.61-4.54-2.5-5.54-4.42-.63-1.21-.38-2.58-.72-3.86a3.12,3.12,0,0,0-3.41-2.28c-4.73,1-6.24,12.28-8.78,15C921.68,548.59,913.78,545.84,915,540.69Z"/><path class="cls-3" d="M827.52,518a9.72,9.72,0,0,0-4.93-.2c-1.55.5-2.45,2.26-1.21,3.14,9.73-.29,19.52-.58,29.16.44,11.11,1.18,22.11,4.1,33.28,3.24q-9.56-2.19-19.41-3.49l-10.93-1.62q-4.4-.71-8.87-1.06C838.37,518,833.65,519.29,827.52,518Z"/><path class="cls-3" d="M837.26,491.72c-.81-.05-1.81-.1-2.23.44s.06,1.19-.16,1.77c-.29.79-1.62,1-2.67.88a6.55,6.55,0,0,0-3.11,0,1.82,1.82,0,0,0-1,2.32,6,6,0,0,0,1.8,2.22,27,27,0,0,0,4.67,3.63c3.34,1.91,7.87,2.83,10,5.61a4,4,0,0,0,1.33,1.39c1,.5,2.33.12,3.42-.27l3.82-1.35a4.55,4.55,0,0,0,1.78-.94c.87-.92.34-2.22-.4-3.2s-1.67-2-1.51-3.14c.28-2,3.63-2.79,5-4.51s.48-4,.64-6c.19-2.39,2.12-5.49-1-7.28-2.65-1.52-5.18-.12-7.08,1.56C846.53,488.37,844.63,492.19,837.26,491.72Z"/><path class="cls-3" d="M860.42,456.05c1.3,1.93,4,3.08,5.44,5,1.54,2,1.36,4.67,3,6.65s5.16,3.1,6.12,5.41c1,2.52-1.33,5.58.57,7.78a5.08,5.08,0,0,0,5.91.62l.28-.18a3,3,0,0,0-.19-4.9c-1.12-.79-2.74-1.14-3.68-2.06a3.86,3.86,0,0,1-1-1.79,9.2,9.2,0,0,1,.24-5.63,2,2,0,0,0,.18-1.47c-.42-1-2.08-1-3.25-1.46-2.65-1-2.59-3.9-2.12-6.15-.31,1.5-7.21-1.05-7.94-1.9-1.44-1.69-.65-4.95-.94-6.81C860,450.26,858.83,453.69,860.42,456.05Z"/><path class="cls-3" d="M790.85,485.77c-1.27-1.1-3.19-2.26-4.9-1.59a2.14,2.14,0,0,0-1.15,3,7.28,7.28,0,0,0,2.78,2.57c3.56,2.27,7.4,4.33,10.5,7,5.56,4.73,8.51,11.12,14.55,15.47a9.07,9.07,0,0,0,4.58,1.92c1.76.13,3.74-.75,3.94-2.11.17-1.12-.84-2.12-1.83-3-2.35-2-4.92-3.8-7.14-5.87a4.59,4.59,0,0,1-1.82-3,2.28,2.28,0,0,1,2.69-2c-1.69-.34-2.95-2.52-5.44-2.93-2.08-.34-2.58.65-5.05-.17C797.85,493.52,794.15,488.63,790.85,485.77Z"/><path class="cls-3" d="M901.65,378.18q-2-.47-4-1.1c-3.5-.81-8.13,1.18-7.67,4,.31,1.87,2.55,3.12,3.79,4.74,1.84,2.4,1.35,5.44.38,8.13a5.77,5.77,0,0,1-1.32,2.31,10.46,10.46,0,0,1-3.14,1.75,41.07,41.07,0,0,0-12.28,8.08,2.22,2.22,0,0,0-.74,1.08c-.17.95,1.06,1.64,1.76,2.43,1.55,1.76.43,4.12.58,6.24a1.66,1.66,0,0,0,1,1.55,2.35,2.35,0,0,0,2.54-1c1.68-2.35.41-6.12,3.56-7.26a4.59,4.59,0,0,0,1.71-.71c.63-.64,0-1.59.34-2.36.48-1.15,2.51-1.2,4.07-1.15a29.46,29.46,0,0,0,7.94-.82,5.79,5.79,0,0,0,2.63-1.18,3.59,3.59,0,0,0,.67-3.35,38.83,38.83,0,0,0-6.94-16.39c2.76.27,5.76.51,8.15-.6,1.33-.62,2.93-2.49,2.27-3.76C905.89,376.82,904,378.51,901.65,378.18Z"/><path class="cls-3" d="M547.7,409.83a6.44,6.44,0,0,1,.07,4.14,3.81,3.81,0,0,1-4.13,2c-1.34-.31-2.11-1.36-3.06-2.15-5.29-4.42-17.21-1.86-20.48-7.33-1.33-2.23-.43-4.9-1.34-7.26-1.18-2.8-4.66-4.63-8.45-4.45a21.29,21.29,0,0,0-4.86,1.12,152.54,152.54,0,0,1-32.22,6.24A33.49,33.49,0,0,0,467,403c-4.54,1.27-7.64,4.53-9.85,7.86s-3.84,6.93-6.8,9.88c-3.11,3.11-7.47,5.28-11.54,7.63A10.67,10.67,0,0,0,435,431.5a7.67,7.67,0,0,0-.76,4.59l.83,18.92c.11,2.43.24,5,1.65,7.13,1.76,2.72,5.23,4.5,7.63,6.9a11.63,11.63,0,0,1,3.62,8.63c-.05,1.25-.21,2.73,1,3.52a5.63,5.63,0,0,0,2.58.57l33.05,2.09c5.81.37,12.26,1,16.05,4.4,1.79,1.62,3.23,3.95,6,4.12a28.33,28.33,0,0,0,3.5-.37,9.14,9.14,0,0,1,7.23,3.49,12.88,12.88,0,0,1,3.21,9.92c-.27,2.19-1.15,4.33-1.34,6.52-.72,8.36,8.44,15.63,8.61,24,.1,4.93-2.92,9.54-5.87,13.91,4.76,5.58.86,13,2.76,19.53,1.8,6.19,8.46,11,10.12,17.24.76,2.84.8,6.34,4,7.81a11.55,11.55,0,0,0,4.57.71A75.18,75.18,0,0,0,571,590.33c4-1.54,8.15-3.84,8.85-7.25.56-2.76-1.24-5.84.6-8.24,2.17-2.83,7.71-2.61,10.9-4.78,5.17-3.53,1.14-10.26,3.23-15.35,1.88-4.57,8.36-7,11.57-11.1a17.18,17.18,0,0,0,2.69-5.64,63.76,63.76,0,0,0,2.74-14.4,67.22,67.22,0,0,1,.84-8.82c3.46-16.66,24.73-27.82,31.64-43.82.66-1.53,1-3.56-.79-4.43a6.38,6.38,0,0,0-3.34-.27l-15.24,1.49a13.42,13.42,0,0,1-5.64-.25c-1.74-.61-3-2.31-2.06-3.6,2.59-3.63-2.74-8.22-5.1-11.94a175.75,175.75,0,0,0-22.65-28.44,2.66,2.66,0,0,1-1-1.67l4.32.11c-1.46-4.06-3.87-8.49-9-10-2.87-.84-6-.55-9.1-.42C565.77,411.89,556.38,410.87,547.7,409.83Z"/><path class="cls-3" d="M574.54,318.43c2.29,1.89,4.86,3.88,8.18,4.21,5.86.58,10.07-4.11,12.76-8.19.21,2.16,2.6,3.8,5.39,3.7a12.62,12.62,0,0,0,4.06-1.23,98.74,98.74,0,0,1,37.85-7.58c-.26-1.61,1.08-3.11,3.12-3.48,2.69-.41,5.11,1.39,6.41,3.26s2.11,4,4.17,5.44,6.05,1.34,6.87-.69-1.84-3.61-4-4.75-4.47-3.27-3-5c11.12-1.91,22.3-3.82,33.68-4.2a17.83,17.83,0,0,0,5.67-.76c1.73-.66,3.11-2.16,2.65-3.61-5.08.92-10.37-.62-13.4-3.91,15.78-1,32.57-1.87,46.56,3.88,1.68,2.79-6.88,5.11-4.59,7.63.73.8,2.19.9,3.46.92,9.72.14,19.5.28,29.11-.86,3.51-.42,7.06-1,10.59-.66,5.87.56,10.9,3.6,16.68,4.58,2.35.4,5,.42,7-.64s2.83-3.47,1.21-4.85c5.44-4.13,14.47-3.11,21.65-1.13s14,5.16,21.57,5.61c5.45.32,11-.82,16.35-.1,3.38.45,6.53,1.62,9.84,2.33,6.25,1.35,12.87,1.07,19.36,1.13A170.64,170.64,0,0,1,932,317a15.7,15.7,0,0,1,5.37,2.46c1.43,1.19,2.16,3,1.2,4.48l-15.9-1.8c1.5,2.28,5.38,2.67,8.52,3.46s6.41,3.48,4.52,5.58c-3.41-.84-6.5,1.8-8.23,4.23s-3.82,5.34-7.4,5.49c-3.2.13-7.07-2-9.16-.09a48.51,48.51,0,0,1,7.36,9.11c2.06,3.33,3.53,7.52.74,10.51a3.53,3.53,0,0,1-1.88,1.13c-2.28.45-3.75-1.71-5.39-3-2.06-1.65-5.17-2.11-8-2.88s-5.72-2.29-5.94-4.58c-.14-1.42.83-2.74,1.55-4.06a12.54,12.54,0,0,0,1.53-7,7.08,7.08,0,0,0-2.64-5.28c-1.79-1.35-4.88-1.77-6.79-.54-.9.58-1.61,1.5-2.78,1.53-2.06.06-3.63-2.71-5.29-1.77a3.56,3.56,0,0,1-.76,2.91c-4.93,3.32-12.51,1.92-18.88,3.09a41.36,41.36,0,0,0-8.61,2.91,5.43,5.43,0,0,0-2.46,1.6c-.79,1.19.08,2.73,1.48,3.52a14.18,14.18,0,0,0,4.88,1.29c7.75,1.14,15.62,2.9,21.75,6.75s10.14,10.23,8.2,16.16l-15.29-11.32a136.1,136.1,0,0,1,1,14.29,5.1,5.1,0,0,1-.48,2.75c-1.09,1.86-4,2.49-6.63,2.9-2.82.41-4.67,2.52-4.14,4.7a3.3,3.3,0,0,0,.15.45c.92,2.32,3.21,4.13,5.31,5.94s4.17,3.85,4.44,6.27-2.08,5.15-5.21,5a6.64,6.64,0,0,1-5.14-3.44c-1-1.67-1.61-3.52-3.13-4.94-4.6-4.29-14.94-2.45-19.06-7a6,6,0,0,0-1.93,6.87c1.92-.93,4.54-.07,6,1.28s2.12,3.08,3.25,4.6c1.53,2,4,3.86,4.17,6.22a15.76,15.76,0,0,0,.06,2.68c.38,1.43,1.94,2.45,3,3.65,2.52,2.78,2.39,6.6.77,9.75s-4.54,5.79-7.42,8.34a119.69,119.69,0,0,1-16.16,12.6c-1.71,1.06-3.53,2.1-4.59,3.57a3.23,3.23,0,0,0,.52,4.68c-1.17,0-3.26.49-4.43.54a61.82,61.82,0,0,1-.27-10.91c-4.61-1.71-9.57,2.88-9,6.81s4.27,7.09,6.88,10.49c1.91,2.49,3.33,5.39,2.69,8.24s-3.93,5.48-7.65,5.23c-5.92-.4-8.4-7-14.27-7.74a3,3,0,0,0-1.54.12,2.11,2.11,0,0,0-1.07,2c-.24,3.77-.45,7.69,1.45,11.17,2.78,5.09,10,9.36,8.46,14.75-8.12-2.92-12.34-10-14.25-16.74s-2.24-13.88-5.67-20.28c-2.61,2.59-8.09.45-10.47-2.27s-3.65-5.55-5.84-8.16a13.46,13.46,0,0,0-9.57-5.09c-4.21-.15-7.86,2.09-11.07,4.2-2.64,1.74-5.35,3.54-6.9,5.95-2.25,3.5-1.66,7.62-1.77,11.52-.12,4.22-1.27,8.67-5,11.76s-10.57,4.17-14.67,1.38c-2.14-1.45-3.18-3.63-4.1-5.71a232.56,232.56,0,0,1-11.09-30.67c-.69,2.37-3.37,5.42-5.94,4a4.46,4.46,0,0,1-1.37-1.37c-4.79-6.28-13.65-10-22.61-12.31s-18.38-3.31-27.23-5.8a78.58,78.58,0,0,1-14.13-5.45,7,7,0,0,0-.68,8.8c2,2.69,6.41,4.25,10.22,3.31,2-.49,3.63-1.54,5.58-2.07s4.57-.27,5.42,1.19-.42,3.08.19,4.53c.93,2.22,5.25,2.39,6.76,4.4,1.12,1.5.2,3.49-1.4,4.7a27.52,27.52,0,0,1-5.7,2.72c-6.35,2.73-10.87,7.4-16.42,11s-13.38,6.28-20,4c1.58-6.18-7.93-10.72-9.68-16.87-.58-2-.28-4.18-1.1-6.15-1.19-2.86-4.46-4.82-7.15-7-6.58-5.36-10.09-12.56-9.71-20,.15-2.54.75-5.13,0-7.61a6.93,6.93,0,0,0-6.68-4.77c-7.5.26-17,.69-20.89-4.26-1.4-1.77-2-4.36,0-5.71,1.43-1,3.55-.87,5.43-.72l16.9,1.29c4,.3,8.23.55,11.62-1.05s4.86-5.85,1.72-7.73c-2.3-1.38-6.41-1.3-7.07-3.49-.56-1.82,2-3.89.64-5.41-1-1.09-3.28-.79-4.65,0s-2.37,2-3.91,2.63c-2.7,1.09-5.92.05-8.82-.65s-6.79-.76-8.2,1.32c-1.57,2.33,1.4,5.39-.17,7.73-2.07,3.09-9.06,1.33-12,4-3.33,3.05,2.26,7.6,1.14,11.5a11.61,11.61,0,0,1-9.11-.4c-2.69-1.42-4.16-3.87-3.82-6.38.28-1.75,1.46-3.54.67-5.2-.64-1.34-2.38-2.14-4-2.83l-16.42-7c-1.52,2.19.4,4.91,2.81,6.55s5.43,2.88,7,5c2.08,3.11.67,6.94-3.22,8.74a2.46,2.46,0,0,1-1.63.22,1.88,1.88,0,0,1-1.06-1.1c-2.9-5.74-7.25-11.4-14.21-14.4s-17-2.38-21.51,2.67c-1.08,1.2-1.81,2.57-2.75,3.84-5,6.74-15.76,9.93-25.81,9.73a6.36,6.36,0,0,1-2.82-.51c-1.62-.87-1.55-2.71-1.3-4.23l1.05-6.43c.21-1.29.52-2.72,1.84-3.52,1.86-1.14,4.54-.42,6.91-.45,3.68-.13,6.86-2,8-4.75s-.08-5.66-2.75-7.6c-1.09-.79-2.54-1.78-2-2.85a3.17,3.17,0,0,1,2.13-1.11c4.26-1,8.75-1.21,12.94-2.34s8.24-3.44,9.24-6.78c.3-1,.44-2.27,1.63-2.78a6.14,6.14,0,0,1,1.89-.3c4.7-.52,8.12-3.73,7.87-7.4,2-1.09,4.82-.29,6.76.87s3.65,2.68,6,3.18c4.4.93,8.65-2.09,13.21-2.1,1.92,0,3.9.52,5.71,0s2.92-1.92,4.32-3,3.87-1.68,5.16-.55l-1.1-6.33a20,20,0,0,0,13.08-1.83l-14.27-3.73a3.47,3.47,0,0,1-1.33-.55c-1-.86,0-2.21.84-3.2,2-2.35,2.36-6.23-1-7.4-2.26-.8-4.86.16-7,1.1l-10.41,4.5c-.33,1.53,2.09,2.4,3.59,3.43,2.48,1.71,2.71,4.65.5,6.58a6.88,6.88,0,0,1-4.42,1.56,4.82,4.82,0,0,1,1.34,4.92l-7,.39a3.78,3.78,0,0,1-2.27-.34c-.75-.52-.65-1.42-.82-2.18-.42-1.84-2.75-3.14-5.13-3.47a23.1,23.1,0,0,0-7.17.51,5.45,5.45,0,0,1-3.08-.06,2.6,2.6,0,0,1-1.22-1.19c-1-1.94-.07-4.22,1.59-5.88s3.93-2.87,6-4.25a27.36,27.36,0,0,0,10.35-12.43c3.86-1.25,7.85-3,11.71-4.2a44.92,44.92,0,0,1,19.25-2.89l13.06.19c3.87.06,7.84.13,11.41,1.27s6.72,3.61,7,6.6a1.79,1.79,0,0,1-.84,1.85,3.84,3.84,0,0,1-1.65.29C579.69,317.64,578.15,318.33,574.54,318.43Z"/><path class="cls-3" d="M470.44,350.12a2.54,2.54,0,0,0,1-3,8.78,8.78,0,0,0-7.4,1.08,10.37,10.37,0,0,0-2,2c-1.72,2.17-3.23,4.76-2.24,7.18a2.16,2.16,0,0,0,1.21,1.28,4,4,0,0,0,1.41.17c1.89,0,3.78-.09,5.66-.27,1.15-.11,2.49-.36,2.94-1.19.59-1.09-.83-2.33-.42-3.46a4,4,0,0,1,1.21-1.34,1.57,1.57,0,0,0,.71-1.49c-.17-.53-1.22-.84-1.6-.37"/><path class="cls-3" d="M480.25,340.28a20.33,20.33,0,0,0-5.13-.25,2.78,2.78,0,0,0-1.09.19,1.47,1.47,0,0,0-.67.75c-.75,1.87.48,3.87,2.82,4.59a7.16,7.16,0,0,1,1.75.54c1.45.87.53,2.65.8,4.06.31,1.58,2.28,2.9,1.92,4.47-.28,1.24-2,2.22-1.72,3.46s2.41,1.69,4.11,1.79a6.57,6.57,0,0,0,2.91-.26,3.63,3.63,0,0,0,1.84-2.06,10.46,10.46,0,0,0,.86-5,3.91,3.91,0,0,0-.72-2.19,13.88,13.88,0,0,0-1.69-1.5C483,346,486.4,341.62,480.25,340.28Z"/><path class="cls-4" d="M907.21,569.38S658.53,458.84,551.47,479.79c0,0-226.89,18.91-253.19,60.5,0,0-72.12-174.53-98.42-180.34"/><path class="cls-4" d="M298.28,540.29c41.7-86.1,417.35-181.51,417.35-181.51-53.34,10.47-164.16,121-164.16,121S317.06,347.73,199.86,359.95c0,0,516.14,13.09,707.35,209.43"/><ellipse class="cls-5" cx="199.86" cy="359.95" rx="10.89" ry="8.44"/><ellipse class="cls-5" cx="298.28" cy="540.29" rx="10.89" ry="8.44"/><ellipse class="cls-5" cx="715.63" cy="358.78" rx="10.89" ry="8.44"/><ellipse class="cls-5" cx="907.21" cy="569.38" rx="10.89" ry="8.44"/><ellipse class="cls-5" cx="551.47" cy="479.79" rx="10.89" ry="8.44"/><path class="cls-6" d="M1365.55,0H642.43q.2,5,.21,10.12c0,56.91-19.26,106.92-48.31,135.45C560,180.16,532.19,228,513.73,284.4c-22.91,73.83-67.51,128.67-121.15,145-29.14,9.87-56.07,31.43-78,62.51-24.8,35.13-57.92,56.6-94.3,56.6A93.88,93.88,0,0,1,187,542.35c-36-12.54-73.53-10.26-108.8,6.59a60.45,60.45,0,0,1-27.78,6.91c-18.75,0-36.14-9-50.4-24.45V594c30.33,17.21,67.27,27.32,107.14,27.32a227.07,227.07,0,0,0,59.06-7.72,548.79,548.79,0,0,1,231.25-7.36,363.65,363.65,0,0,0,70.71,6.89c77.33,0,147.73-24,200.44-63.26h0C715.3,515.1,772.54,491,834.49,480c114-18.27,208.83-79.57,257.51-162.09,39.24-63,98.32-116.51,171.33-155.17C1325.06,130.82,1366,74.93,1366,11.31,1366,7.51,1365.84,3.74,1365.55,0Z"/><g class="cls-7"><g class="cls-8"><g class="cls-8"><g class="cls-9"><g class="cls-8"><path class="cls-10" d="M546.59,452.71l-.13,36.3a16,16,0,0,1-5.53,11.74l.13-36.3a16,16,0,0,0,5.53-11.74"/><path class="cls-11" d="M541.06,464.45l-.13,36.3q-.38.35-.78.69l.13-36.3q.4-.34.78-.69"/></g></g></g><g class="cls-8"><g class="cls-12"><g class="cls-8"><path class="cls-13" d="M130,593.17l-.13,36.3q-.64-.37-1.25-.76l.13-36.3q.61.39,1.25.76"/><path class="cls-14" d="M128.73,592.42l-.13,36.3-1-.65q-1.13-.78-2.14-1.61l.13-36.3q1,.83,2.14,1.61l1,.65"/><path class="cls-15" d="M125.61,590.16l-.13,36.3a26,26,0,0,1-2.39-2.24l.13-36.3a26,26,0,0,0,2.39,2.24"/><path class="cls-16" d="M123.22,587.91l-.13,36.3a22.57,22.57,0,0,1-1.9-2.31l.13-36.3a22.57,22.57,0,0,0,1.9,2.31"/><path class="cls-17" d="M121.32,585.6l-.13,36.3a19.73,19.73,0,0,1-1.51-2.48l.13-36.3a19.73,19.73,0,0,0,1.51,2.48"/><path class="cls-18" d="M119.81,583.12l-.13,36.3a17.38,17.38,0,0,1-1.13-2.77l.13-36.3a17.38,17.38,0,0,0,1.13,2.77"/><path class="cls-11" d="M118.68,580.36l-.13,36.3a15.53,15.53,0,0,1-.65-3.37L118,577a15.53,15.53,0,0,0,.65,3.37"/><path class="cls-10" d="M118,577l-.13,36.3q0-.61,0-1.22l.13-36.3q0,.61,0,1.22"/></g></g></g><polygon class="cls-19" points="540.28 465.14 540.15 501.45 302.76 702.23 302.89 665.93 540.28 465.14"/><polygon class="cls-20" points="259.79 667.74 259.66 704.04 129.85 629.48 129.98 593.17 259.79 667.74"/><g class="cls-8"><g class="cls-21"><g class="cls-8"><path class="cls-11" d="M302.89,665.93l-.13,36.3a24.09,24.09,0,0,1-2.05,1.55l.13-36.3a24.09,24.09,0,0,0,2.05-1.55"/><path class="cls-18" d="M300.84,667.48l-.13,36.3a27.11,27.11,0,0,1-2.67,1.59l.13-36.3a27.11,27.11,0,0,0,2.67-1.59"/><path class="cls-17" d="M298.17,669.07l-.13,36.3q-1.31.68-2.72,1.25l.13-36.3q1.41-.57,2.72-1.25"/><path class="cls-16" d="M295.46,670.32l-.13,36.3q-1.41.57-2.91,1l.13-36.3q1.49-.45,2.91-1"/><path class="cls-15" d="M292.55,671.34l-.13,36.3q-1.58.48-3.24.82l.13-36.3q1.65-.34,3.24-.82"/><path class="cls-14" d="M289.31,672.15l-.13,36.3c-1.27.26-2.58.47-3.9.61l.13-36.3c1.32-.14,2.62-.35,3.9-.61"/><path class="cls-13" d="M285.42,672.77l-.13,36.3a44.23,44.23,0,0,1-5.28.25l.13-36.3a44.23,44.23,0,0,0,5.28-.25"/><path class="cls-22" d="M280.13,673l-.13,36.3a43.5,43.5,0,0,1-16.86-3.53l.13-36.3A43.5,43.5,0,0,0,280.13,673"/><path class="cls-13" d="M263.27,669.49l-.13,36.3a36.23,36.23,0,0,1-3.48-1.76l.13-36.3a36.23,36.23,0,0,0,3.48,1.76"/></g></g></g><path class="cls-23" d="M536.82,436.71c11.45,7.85,13.15,20.24,3.46,28.44L302.89,665.93c-10.29,8.7-29.69,9.52-43.1,1.81L130,593.17q-1.17-.67-2.23-1.4c-11.44-7.85-13.15-20.24-3.46-28.44L361.68,362.55c10.29-8.7,29.69-9.51,43.1-1.81L534.59,435.3Q535.76,436,536.82,436.71Z"/></g></g><g class="cls-24"><g class="cls-8"><g class="cls-8"><g class="cls-25"><g class="cls-8"><path class="cls-26" d="M233,681.5,268.21,661q0,.38,0,.76L233,682.26q0-.37,0-.76"/><path class="cls-27" d="M233,682.26l35.24-20.48q0,.51-.06,1l-35.24,20.48q0-.49.06-1"/><path class="cls-28" d="M232.89,683.27l35.24-20.48q0,.51-.12,1l-35.24,20.48q.07-.49.12-1"/><path class="cls-29" d="M232.77,684.26,268,663.78q-.08.52-.18,1L232.6,685.27q.1-.49.18-1"/><path class="cls-15" d="M232.6,685.27l35.24-20.48q-.11.52-.25,1l-35.24,20.48q.14-.49.25-1"/><path class="cls-30" d="M232.34,686.28l35.24-20.48q-.16.54-.35,1L232,687.32q.19-.5.35-1"/><path class="cls-31" d="M232,687.32l35.24-20.48a11.6,11.6,0,0,1-.49,1.12l-35.24,20.48a11.6,11.6,0,0,0,.49-1.12"/><path class="cls-32" d="M231.51,688.44,266.75,668a10.14,10.14,0,0,1-.77,1.28l-35.24,20.48a10.14,10.14,0,0,0,.77-1.28"/><path class="cls-33" d="M230.73,689.73,266,669.25a8.42,8.42,0,0,1-2.64,2.44l-35.24,20.48a8.42,8.42,0,0,0,2.64-2.44"/></g></g></g><g class="cls-8"><g class="cls-34"><g class="cls-8"><path class="cls-33" d="M38.67,247l35.24-20.48a8.26,8.26,0,0,1,2.64-1L41.31,246.07a8.26,8.26,0,0,0-2.64,1"/><path class="cls-32" d="M41.31,246.07l35.24-20.48a9.45,9.45,0,0,1,1.47-.16L42.78,245.91a9.45,9.45,0,0,0-1.47.16"/><path class="cls-31" d="M42.78,245.91,78,225.43a10.67,10.67,0,0,1,1.19,0L44,245.94a10.67,10.67,0,0,0-1.19,0"/><path class="cls-30" d="M44,245.94l35.24-20.48q.52,0,1.05.14L45,246.08q-.54-.09-1.05-.14"/><path class="cls-15" d="M45,246.08,80.27,225.6q.49.08,1,.21L46,246.29q-.5-.13-1-.21"/><path class="cls-29" d="M46,246.29l35.24-20.48q.47.12.94.27L47,246.56q-.48-.15-.94-.27"/><path class="cls-28" d="M47,246.56l35.24-20.48q.46.15.92.33L47.87,246.89q-.46-.18-.92-.33"/><path class="cls-27" d="M47.87,246.89l35.24-20.48.89.38L48.76,247.27l-.89-.38"/><path class="cls-26" d="M48.76,247.27,84,226.79l.89.44L49.66,247.7l-.89-.44"/><path class="cls-35" d="M49.66,247.7,84.9,227.22l.86.47L50.52,248.17l-.86-.47"/></g></g></g><polygon class="cls-36" points="233.84 373.21 269.08 352.73 268.21 661.02 232.97 681.5 233.84 373.21"/><polygon class="cls-37" points="50.52 248.17 85.76 227.69 252.46 323.94 217.22 344.42 50.52 248.17"/><g class="cls-8"><g class="cls-38"><g class="cls-8"><path class="cls-35" d="M217.22,344.42l35.24-20.48,0,0-35.24,20.48,0,0"/><path class="cls-39" d="M217.26,344.44,252.5,324l.91.55L218.17,345l-.91-.55"/><path class="cls-40" d="M218.17,345l35.24-20.48.92.62-35.24,20.48-.92-.62"/><path class="cls-41" d="M219.08,345.61l35.24-20.48q.47.33.93.68L220,346.3q-.46-.35-.93-.68"/><path class="cls-42" d="M220,346.3l35.24-20.48q.49.38,1,.79L221,347.08q-.48-.41-1-.79"/><path class="cls-43" d="M221,347.08l35.24-20.48q.52.44,1,.91L222,348q-.51-.47-1-.91"/><path class="cls-44" d="M222,348l35.24-20.48q.56.52,1.11,1.08l-35.24,20.48q-.55-.55-1.11-1.08"/><path class="cls-45" d="M223.12,349.07l35.24-20.48q.64.65,1.25,1.34l-35.24,20.48q-.61-.69-1.25-1.34"/><path class="cls-46" d="M224.37,350.41l35.24-20.48q.78.88,1.52,1.83l-35.24,20.48q-.73-.94-1.52-1.83"/><path class="cls-47" d="M225.88,352.24l35.24-20.48a40.75,40.75,0,0,1,4.94,8.2l-35.24,20.48a40.75,40.75,0,0,0-4.94-8.2"/><path class="cls-46" d="M230.83,360.44,266.07,340q.5,1.11.93,2.23l-35.24,20.48q-.42-1.12-.93-2.23"/><path class="cls-45" d="M231.75,362.67,267,342.19q.33.87.61,1.75l-35.24,20.48q-.28-.88-.61-1.75"/><path class="cls-44" d="M232.37,364.42l35.24-20.48q.24.75.45,1.5l-35.24,20.48q-.2-.75-.45-1.5"/><path class="cls-43" d="M232.81,365.92l35.24-20.48q.18.68.34,1.35l-35.24,20.48q-.15-.68-.34-1.35"/><path class="cls-42" d="M233.15,367.28l35.24-20.48q.14.63.26,1.25l-35.24,20.48q-.11-.62-.26-1.25"/><path class="cls-41" d="M233.41,368.53,268.65,348q.11.58.19,1.16l-35.24,20.48q-.08-.58-.19-1.16"/><path class="cls-40" d="M233.59,369.69l35.24-20.48q.08.56.13,1.11L233.73,370.8q-.05-.55-.13-1.11"/><path class="cls-39" d="M233.73,370.8,269,350.32q.05.54.08,1.08l-35.24,20.48q0-.54-.08-1.08"/><path class="cls-35" d="M233.81,371.88,269,351.4q0,.53,0,1l-35.24,20.48q0-.52,0-1"/><path class="cls-26" d="M233.84,372.93l35.24-20.48q0,.14,0,.28l-35.24,20.48q0-.14,0-.28"/></g></g></g><path class="cls-20" d="M217.22,344.42c9.17,5.3,16.65,18.25,16.62,28.79L233,681.5c0,10.54-7.56,14.82-16.73,9.53L49.54,594.78c-9.17-5.29-16.65-18.24-16.62-28.78l.87-308.29c0-10.54,7.56-14.83,16.72-9.54Z"/></g></g><g class="cls-24"><g class="cls-8"><g class="cls-8"><g class="cls-48"><g class="cls-8"><path class="cls-29" d="M494.61,148l-.12,40.76a8.36,8.36,0,0,1-.06,1l.12-40.76a8.36,8.36,0,0,0,.06-1"/><path class="cls-49" d="M494.55,149l-.12,40.76a8.61,8.61,0,0,1-.22,1.16l.12-40.76a8.61,8.61,0,0,0,.22-1.16"/><path class="cls-50" d="M494.33,150.15l-.12,40.76a9.15,9.15,0,0,1-.35,1.06l.12-40.76a9.15,9.15,0,0,0,.35-1.06"/><path class="cls-51" d="M494,151.22,493.86,192a9.93,9.93,0,0,1-.46,1l.12-40.76a9.93,9.93,0,0,0,.46-1"/><path class="cls-52" d="M493.51,152.21,493.4,193a10.94,10.94,0,0,1-.57.94l.12-40.76a10.94,10.94,0,0,0,.57-.94"/><path class="cls-53" d="M492.95,153.15l-.12,40.76q-.31.46-.68.91l.12-40.76q.37-.45.68-.91"/><path class="cls-39" d="M492.27,154.06l-.12,40.76q-.37.45-.8.9l.12-40.76q.43-.44.8-.9"/><path class="cls-40" d="M491.47,155l-.12,40.76q-.44.46-.95.89l.12-40.76q.51-.44.95-.89"/><path class="cls-41" d="M490.52,155.85l-.12,40.76q-.54.47-1.15.91l.12-40.76q.61-.45,1.15-.91"/><path class="cls-54" d="M489.37,156.76l-.12,40.76q-.68.49-1.44,1l.12-40.76q.76-.46,1.44-1"/><path class="cls-37" d="M487.93,157.72l-.12,40.76-.4.24.12-40.76.4-.24"/></g></g></g><g class="cls-8"><g class="cls-55"><g class="cls-8"><path class="cls-56" d="M97.7,186.84l-.12,40.76a21.23,21.23,0,0,1-1.9-1.23l.12-40.76a21.23,21.23,0,0,0,1.9,1.23"/><path class="cls-30" d="M95.81,185.61l-.12,40.76c-3.54-2.58-5.31-5.73-5.3-8.87l.12-40.76c0,3.14,1.76,6.29,5.3,8.87"/></g></g></g><polygon class="cls-57" points="487.53 157.96 487.41 198.72 285.47 316.07 285.59 275.32 487.53 157.96"/><polygon class="cls-27" points="250.96 275.32 250.84 316.07 97.59 227.59 97.7 186.84 250.96 275.32"/><g class="cls-8"><g class="cls-58"><g class="cls-8"><path class="cls-37" d="M285.59,275.32l-.12,40.76q-.74.43-1.52.81l.12-40.76q.78-.38,1.52-.81"/><path class="cls-59" d="M284.07,276.13,284,316.89a28.63,28.63,0,0,1-3.46,1.42l.12-40.76a28.63,28.63,0,0,0,3.46-1.42"/><path class="cls-60" d="M280.61,277.54l-.12,40.76a35.55,35.55,0,0,1-5.52,1.36l.12-40.76a35.55,35.55,0,0,0,5.52-1.36"/><path class="cls-59" d="M275.09,278.9,275,319.66a40.91,40.91,0,0,1-4.17.47l.12-40.76a40.91,40.91,0,0,0,4.17-.47"/><path class="cls-37" d="M270.92,279.37l-.12,40.76q-1.35.08-2.71.08l.12-40.76q1.36,0,2.71-.08"/><path class="cls-54" d="M268.21,279.45l-.12,40.76q-1.1,0-2.2-.06l.12-40.76q1.1.06,2.2.06"/><path class="cls-41" d="M266,279.39l-.12,40.76q-1-.05-2-.15l.12-40.76q1,.1,2,.15"/><path class="cls-40" d="M264,279.24,263.93,320q-.91-.09-1.81-.22l.12-40.76q.9.13,1.81.22"/><path class="cls-39" d="M262.24,279l-.12,40.76q-.85-.12-1.7-.29l.12-40.76q.84.16,1.7.29"/><path class="cls-53" d="M260.55,278.73l-.12,40.76q-.82-.16-1.62-.35l.12-40.76q.8.19,1.62.35"/><path class="cls-52" d="M258.93,278.39l-.12,40.76q-.79-.19-1.57-.41l.12-40.76q.77.22,1.57.41"/><path class="cls-51" d="M257.36,278l-.12,40.76q-.78-.22-1.54-.48l.12-40.76q.76.26,1.54.48"/><path class="cls-50" d="M255.82,277.49l-.12,40.76q-.79-.27-1.55-.58l.12-40.76q.76.31,1.55.58"/><path class="cls-49" d="M254.27,276.92l-.12,40.76q-.81-.33-1.59-.7l.12-40.76q.78.37,1.59.7"/><path class="cls-29" d="M252.68,276.22,252.56,317q-.87-.41-1.68-.88l.12-40.76q.81.47,1.68.88"/><path class="cls-56" d="M251,275.34l-.12,40.76,0,0,.12-40.76,0,0"/></g></g></g><path class="cls-61" d="M487.41,137.9c9.56,5.52,9.61,14.54.12,20.06L285.59,275.32c-9.5,5.52-25.07,5.52-34.63,0L97.7,186.84c-9.55-5.51-9.61-14.54-.11-20.06L299.53,49.42c9.49-5.51,25.07-5.51,34.63,0Z"/></g></g></g></g></svg>