<svg xmlns="http://www.w3.org/2000/svg" viewBox="0 0 305.88 442.05"><defs><style>.cls-1{fill:#fefefe;}.cls-2{fill:#f9d3b0;}.cls-3{fill:#554c45;}.cls-4{fill:#1b1b1b;}.cls-5{fill:#d5d3c3;}.cls-6{fill:#191919;}.cls-7{fill:#181918;}.cls-8{fill:#171616;}.cls-9{fill:#544a42;}.cls-10{fill:#171717;}.cls-11{fill:#b5d9dc;}.cls-12{fill:#181818;}.cls-13{fill:#bde4e8;}.cls-14{fill:#4e4239;}.cls-15{fill:#bee5e8;}.cls-16{fill:#161616;}.cls-17{fill:#090606;}.cls-18{fill:#161615;}.cls-19{fill:#080504;}.cls-20{fill:#0a0606;}.cls-21{fill:#544a43;}.cls-22{fill:#090706;}.cls-23{fill:#090705;}.cls-24{fill:#b5d9db;}.cls-25{fill:#c4eaec;}.cls-26{fill:#ee6691;}.cls-27{fill:#e8e9eb;}.cls-28{fill:#c9547f;}.cls-29{fill:#e8e8ea;}.cls-30{fill:#e7e8ea;}.cls-31{fill:#ee6390;}.cls-32{fill:#ee6290;}.cls-33{fill:#ee618f;}.cls-34{fill:#fed3a9;}.cls-35{fill:#544b43;}.cls-36{fill:#4f4840;}.cls-37{fill:#534b43;}.cls-38{fill:#514942;}.cls-39{fill:#504841;}.cls-40{fill:#463f39;}.cls-41{fill:#fee0ba;}.cls-42{fill:#443f3a;}.cls-43{fill:#433d39;}.cls-44{fill:#fee1ba;}.cls-45{fill:#80705f;}.cls-46{fill:#817061;}.cls-47{fill:#fee3bd;}.cls-48{fill:#907d6b;}.cls-49{fill:#1f1f1f;}.cls-50{fill:#020202;}.cls-51{fill:#0f0e0c;}.cls-52{fill:#ef618e;}.cls-53{fill:#e8eced;}</style></defs><title>cher</title><g id="Calque_2" data-name="Calque 2"><g id="Calque_3" data-name="Calque 3"><path class="cls-1" d="M227.17,195.95c2.36-.16,3.27,1,3,3.26-.39,2.74,1,3.64,3.53,4.24,15.88,3.78,31.24,8.91,44.88,18.24,14.12,9.67,23.81,22.34,26.56,39.57,2.08,13.07,0,25.63-5.33,37.69-.22.09-.5.25-.67.15-4.56-2.66-9.61-4.05-14.55-5.76-.92-2,.18-3.73.74-5.51,3.14-10,4.37-20,.82-30.24-2.56-7.39-7.24-13.19-13.09-18.06-11-9.16-24.18-13.82-37.72-17.62a3.23,3.23,0,0,0-3.08.27c-1.62,1.44-1,3.37-1,5.09q-.06,40.79,0,81.59c0,4.53-.13,4.72-4.57,4.72q-73.68,0-147.37,0a9.62,9.62,0,0,1-3.2-.31,2.5,2.5,0,0,1-1.07-.87c-.77-1.71-.48-3.53-.48-5.31q0-38.92,0-77.83c0-2.16.06-4.32-1.08-6.26-.68-1-1.66-.77-2.58-.53-13,3.28-25.4,7.82-36,16.15C18.8,251.11,14.08,266.89,20,286.44c.74,2.43,2.41,4.8,1.14,7.56A3.21,3.21,0,0,1,19,295.09,19.88,19.88,0,0,0,8.55,299a2.66,2.66,0,0,1-2.65.56c-3-8.09-5.5-16.35-5.85-25-.89-22.38,8.68-39.45,26.82-52,13.5-9.37,28.71-14.66,44.53-18.36,3.1-.73,4.71-1.85,4.17-5.17-.34-2.13.66-3.14,2.79-3a6.67,6.67,0,0,1,1-.69,6.44,6.44,0,0,1,1.2-.27A54.27,54.27,0,0,1,94,194.85c3.38,1.69,5.79,4.55,8.28,7.25C108,208.23,114,214,120,219.86c6.24,5.67,12,11.86,18,17.74a6.27,6.27,0,0,1,2,2.92,35.65,35.65,0,0,1,.32,6,39.24,39.24,0,0,0-.59,5.67,7.83,7.83,0,0,0-.54,3.16c.81,5.36-.45,10.68-.26,16a34.8,34.8,0,0,0-.59,5.59,18.91,18.91,0,0,0-.64,6.35,7.52,7.52,0,0,0,.58,3.09c2,4.12,5.73,6.7,8.82,9.8,7,7,5,6.95,12.07.09,2-1.92,3.85-3.94,5.83-5.85,3.45-3.33,4.51-7.17,2.93-11.71-.07-1.71,0-3.41,0-5.12a19,19,0,0,0-.62-6.52c-.17-1.84-.07-3.69-.1-5.53,0-2.24.15-4.5-.62-6.67-.18-2-.07-4.07-.1-6.1q0-2.28,0-4.56c-.6-3.94,1.09-6.85,3.88-9.47,3.84-3.6,7.5-7.4,11.19-11.15,2.61-2.65,2.59-2.83-.46-5.14-5.24-4-10.55-7.86-15.76-11.87-.48-.25-.07-1.67-1.29-1-3.34-1.78-6.11-4.33-9-6.68-1.07-.86-2.16-2-.68-3.55a5.18,5.18,0,0,1,3.41-.86c15.52-.05,31-.13,46.55,0a4.9,4.9,0,0,1,1.4.21c2.3.92,1.89,2.39.75,4-2.11,2.92-4.85,5.27-7.25,7.93s-4.55,5.23-6.5,7c3.93-4.31,8.52-9.15,13-14.06,1.76-1.92,3.51-3.94,6.09-4.89,3.94-.4,7.88-.18,11.81-.19A4.71,4.71,0,0,1,227.17,195.95Z"/><path class="cls-2" d="M227.17,195.95l-16.51.18c-1.22.56-2.44,1.3-3.64,0l-50.43-.06a4.43,4.43,0,0,0-2.76.5c-.69.82-1.63.62-2.52.63-16.8.76-33.6.55-50.39.14a7.17,7.17,0,0,0-1.42.13c-1.74.27-3.13-.68-4.61-1.31L79.8,196a2,2,0,0,1-.37-1.29c0-24,.05-48,0-72.06a2.4,2.4,0,0,1,.31-1.31,1.4,1.4,0,0,0,.08-.37,6.29,6.29,0,0,1,.45-4.17c1.75-4,3.39-8.12,5.26-12.11.61-1.31,1-3,3.12-2.82,1.75,1.75,1.23,4,1.25,6.09,0,2.89.78,5.46,3.14,7.25,1.63,1.23,3.5,2.25,5.62,1.19,1.9-1,2.44-2.83,2.64-4.78.31-3.13-.43-6.15-1-9.19-.42-2.22-1.09-4.39-1.57-6.59-.33-1.5-.71-3.06.43-4.44,2.55-1.86,5.5-1.2,8.32-1.32h1.22c2.39,0,4.82.23,7.15-.61,2-.19,4.05-.07,6.08-.11h1.21c2.42,0,4.85.19,7.2-.63,2.07-.16,4.14-.06,6.21-.09,2.48,0,5,.21,7.38-.62,2.3-.18,4.6-.06,6.9-.1,2.46-.06,4.94.25,7.33-.6,2-.21,4.1-.08,6.16-.12h1.22c2.43,0,4.88.18,7.24-.63,2.29-.16,4.57-.06,6.86-.09,2.48,0,5,.22,7.39-.61,2.09-.19,4.19-.07,6.28-.11,2.48,0,5,.21,7.41-.62,2.3-.19,4.61-.06,6.92-.1,2.49,0,5,.22,7.44-.61,1.92-.06,3.93-.49,5.44,1.25,1.17,1.74,1.24,3.82,1.67,5.78,1.66,7.55,3.21,15.11,4.82,22.67.53,2.47.22,5,.19,7.46Q227.16,158.75,227.17,195.95Z"/><path class="cls-3" d="M88.39,101.85l-8.6,19.08c-1.49-.16-1.75-1.46-2.28-2.49-9.33-18.05-18.61-36.13-28-54.14-1.06-2-.7-2.7,1.27-3.63q41.75-19.48,83.42-39.15c1.4-.66,2.38-.91,3,.84,1,1.93,1.94,3.89,1.74,6.16l2,6.65a6.17,6.17,0,0,1,1.48-.17L194.7,2.3c1.17-.73,2.37-1.42,3.85-2.3.25,1.83-.6,2.75-1.09,3.73-5,9.94-10.09,19.84-15.12,29.77-.41.81-1.41,1.75-.76,2.57.9,1.13,2,0,2.89-.4,10-4.61,20-9.28,30-13.88.88-.4,2-1.65,2.84-.52s-.65,1.85-1.21,2.63c-4.69,6.5-9.45,12.95-14.19,19.41-.46,2.17,1.58,1,2.23,1.67l.78.21c3.84.94,7.38-1,11.11-1.16,1.51.06,1.62.91,1.17,2.08L208,60.57l20.16,4.5c.27,1.08,1.3.41,1.87.81,3.53-.4,6.81.85,10.17,1.55,2.54.53,1.29,2.43.95,3.72-2.09,7.85-4.27,15.68-6.46,23.51q-3.76,13.45-7.58,26.89c-2.71-11.68-5.43-23.37-7.25-35.23-.54-1.83-2.09-1.36-3.29-1.29-15.11,1-30.24,1.36-45.34,2.45-2.26.16-4.55-.24-6.78.34-9.17.13-18.31,1-27.48,1.16-5.41.7-10.89.43-16.31,1-4.48.21-9,.35-13.44.66-2.94-.29-6,1.26-8.83-.68C96,88.1,96.15,85.07,94.78,82.3A134.64,134.64,0,0,0,90.88,97C90.5,98.81,90.57,100.94,88.39,101.85Z"/><path class="cls-4" d="M201.93,352.62l-1.27,6.07c-.49-.29-.43-.75-.39-1.21.42.24.4-.62.39-.55a4.93,4.93,0,0,0-.2,3.74l.21.76a16.67,16.67,0,0,1-.94,7.64,3.79,3.79,0,0,1-.5.43.92.92,0,0,1-.42-.5c0-.09,0,.08,0,.09.06.79-.19,1.61.25,2.36L198.5,378c.56,1.9-.22,3.73-.33,5.6-.28.67.19,1.56-.6,2.09l-1.17,5.55c-.19,0-.51-.52-.55-.1-.41,4.53-1.27,9-1.71,13.53l.05-.08c-.24,3.6-1.8,7.08-.91,10.77l.19.75a16.41,16.41,0,0,1-.94,7.64l-.48.49c-.5-.26-.45-.74-.47-1.19,0,.36,0,.72,0,1.09a3.6,3.6,0,0,0,.27,2c-.13,2.11-1.16,5-.18,6.13,1.46,1.65,4.45.53,6.79.58,4.27.09,8.54,0,12.81,0a.67.67,0,0,1-.67.9h-13c2.34-.07,6.73.08,11.12,0,2,0,2.88.85,2.91,2.76s0,3.71-2.29,4.27a13.82,13.82,0,0,1-3.22.17q-11,0-21.92,0c-5.18,0-5.56-.38-5.56-5.49q0-38.45,0-76.9c0-1.88.38-3.86-.85-5.56a3,3,0,0,0-1.12-.53,19.48,19.48,0,0,0-5.68-.67q-18.46,0-36.93,0a18.18,18.18,0,0,0-5.31.64,3.09,3.09,0,0,0-1.05.66c-1.17,1.74-.8,3.71-.8,5.59q0,38.38,0,76.77c0,1.77.35,3.6-.63,5.27-1.15,1.32-2.72,1.35-4.28,1.37-7.88.06-15.77.11-23.65,0a5.62,5.62,0,0,1-4.83-8.6,2.18,2.18,0,0,1,2.06-1.14c4.17-.14,8.28-1,12.49-.76,1.78.11,3.61.07,5.05-1.3.17-.4.36-.8.56-1.19l-.13-1.44c-1.73-1.72-.91-3.77-.72-5.74l.19-.75c.49-3.68-.76-7.19-1.1-10.79-.13-1.81-.43-3.61-.61-5.41a10,10,0,0,1-.18-2.46c0-.47-.46-.45-.19-.05s-.72,0-.27.21a3.47,3.47,0,0,1-.5-.42,10.93,10.93,0,0,1-.94-7.65l.19-.75a3.75,3.75,0,0,0,.27-2,3.93,3.93,0,0,0,0-.74.91.91,0,0,1-.45.85,7.45,7.45,0,0,1-.53-3.84,2.64,2.64,0,0,0,.24-2c-.13-.7-.24.31-.44.07a5.1,5.1,0,0,1-.5-3.1c.48-2-.2-4-.43-6a21.38,21.38,0,0,0-.38-3.21c0-4.93-2-9.61-2-14.55-.41,0-.85.35-1.22-.15a5,5,0,0,1,.19-2.69,5.16,5.16,0,0,0-.5-3.12c-.87-.6-.18-2.09-1.42-2.48-7-.38-14.09-.05-21.13-.19-1.4,0-2.88.36-4.18-.56a.82.82,0,0,1,.31-1.16c6.94-.17,13.88,0,19.16-.07-4.42,0-10.49-.07-16.56,0-2.35,0-3.25-.93-3.26-3.16q0-14.18,0-28.37c0-2.54,1.22-3.73,3.74-3.71,1.2,0,2.39,0,3.59,0h138.6c1.08,0,2.16,0,3.23,0,2.7-.08,3.93,1.18,3.93,3.89,0,9.34,0,18.67,0,28,0,2.92-1.36,4-4.18,4-6.94.09-13.88-.33-20.8.24a9.11,9.11,0,0,0-1.07.42,2.32,2.32,0,0,0-.84.64C202.37,351.37,202.56,352.2,201.93,352.62Z"/><path class="cls-1" d="M74.79,338.37c-13.82-7.93-27.61-15.9-41-24.57-3.8-.07-6-2.71-7.92-5.38-1.53-2.13-.52-4.17,2-5,1.77-.56,3.55-.14,5.32,0,5.07-.28,10,1,14.82,2,7.58,1.63,15.09,3.57,22.5,5.87a12.35,12.35,0,0,1,5.62,2.93c.51,8,.88,15.91-.19,23.85A.87.87,0,0,1,74.79,338.37Z"/><path class="cls-1" d="M272.3,313.18c-9.84,6.11-19.57,12.4-29.68,18-3.75,2.09-7.45,4.28-11.17,6.43a.87.87,0,0,1-1.19-.3c-1.18-3.6-.39-7.31-.54-11-.14-3.33,0-6.66,0-10,0-1.45,0-2.89,1.52-3.74,5.72-3.22,12.23-4,18.39-5.81a135.91,135.91,0,0,1,22.53-4.22c1.88.34,3.76-.5,5.66.11,2.88.93,3.79,3.08,1.88,5.43S275.84,313.1,272.3,313.18Z"/><path class="cls-2" d="M272.3,313.18c2.12-1.9,4.26-3.78,6.34-5.71.59-.54,1.4-1.12,1.12-2.07s-1.32-1.31-2.29-1.36c-1.66-.08-3.33-.07-5-.1-.84-1.48-.13-2.75.55-4,2.48-4.6,7.55-7.51,11.79-6.79A18.78,18.78,0,0,1,299.76,299c4.23,6.69,4.85,13.45-.28,19.89-3.68,4.61-8.81,6.76-14.62,5.64C278.6,323.28,274,319.7,272.3,313.18Z"/><path class="cls-2" d="M33.2,304.54c-1.31,0-2.62,0-3.92.09-1.14.06-2.62-.27-3.05,1.18-.37,1.28.67,2.23,1.55,3,2,1.72,4,3.33,6,5-2.05,5.47-5.57,9.47-11.43,10.87-6.74,1.61-12.31-.6-16.45-6C2,313.58,2,307.91,4.62,302.14c.39-.86.86-1.7,1.29-2.54a18,18,0,0,1,15-5.8,3.25,3.25,0,0,1,3.39-.32,17.19,17.19,0,0,1,8.93,7.39A2.91,2.91,0,0,1,33.2,304.54Z"/><path class="cls-5" d="M79.06,195.94q0-37.28,0-74.56a5.24,5.24,0,0,1,.64-.08l.11.75a5.18,5.18,0,0,1,.32,2.8q0,33.83,0,67.67a5,5,0,0,1-.33,2.8q0,.32,0,.63Z"/><path class="cls-6" d="M104.44,359.25l.94-3,2.45,17.35a.84.84,0,0,1-1.3,0c-.61-3.11-.43-6.35-1.57-9.37C105,362.58,103,361.1,104.44,359.25Z"/><path class="cls-7" d="M194.15,404.62c-.29-5.25,1.15-10.31,1.51-15.63,1,.63.47,1.54.75,2.2a5.48,5.48,0,0,1-.74,3.3,1.26,1.26,0,0,1,.12,1.43A35,35,0,0,1,194.15,404.62Z"/><path class="cls-8" d="M112.16,410.28c.74,3.56,2.29,7.05.8,10.77-1.26-2.47-.2-5.4-1.54-7.86a2.26,2.26,0,0,1-.13-2.21l.25.05A1.12,1.12,0,0,1,112.16,410.28Z"/><path class="cls-9" d="M215.67,44.38c-3.55.76-7,2.27-10.75.82l7.83-1.11a3.21,3.21,0,0,1,2.24-.37,1.11,1.11,0,0,1,.69,0Q216.4,44.07,215.67,44.38Z"/><path class="cls-10" d="M193.29,415.31c-1.45-3.74,0-7.23.91-10.77v.72a1.31,1.31,0,0,1,.14,1.47Z"/><path class="cls-10" d="M112.16,410.28l-.61.75c-.19-2.17-1.25-4.25-.73-6.51q.3-.62.59,0C112.77,406.3,111.91,408.37,112.16,410.28Z"/><path class="cls-11" d="M138.87,28.53l-1.74-6.16A5,5,0,0,1,138.87,28.53Z"/><path class="cls-12" d="M107.82,377.22a5.69,5.69,0,0,1,.12,5.74c-.49-1.88-1.15-3.74-.71-5.74Q107.52,376.5,107.82,377.22Z"/><path class="cls-13" d="M215,43.72c-.61,1-1.42.66-2.24.37-.41-.24-1.16-.48-1.16-.71,0-.73.71-.38,1.11-.41A2.53,2.53,0,0,1,215,43.72Z"/><path class="cls-14" d="M215.67,44.38q0-.31,0-.62l3.08-.59c0,1.44-.88,2.14-1.56,3A1.76,1.76,0,0,0,215.67,44.38Z"/><path class="cls-15" d="M204.13,45c-.45.09-.9.21-1.35.25-.69.07-1.53,1.17-2,0-.36-.83.63-1.36,1.15-1.93C202.3,44.34,203.48,44.31,204.13,45Z"/><path class="cls-16" d="M109.17,391.82l.25-2c.5,1.34.93,2.66-.05,3.93Z"/><path class="cls-17" d="M107.82,377.22h-.6l-.69-3.57h1.3Q107.82,375.43,107.82,377.22Z"/><path class="cls-18" d="M191.86,426.09c-.91-1.23-.71-2.57-.44-4,.86.61.37,1.48.63,2.13Z"/><path class="cls-19" d="M200.46,360.66a2.83,2.83,0,0,1-.58-2.24c0-.34-.24-.94.38-.94.13,0,.26.78.39,1.2Z"/><path class="cls-20" d="M108.44,386.06c.13-.43.21-1.21.39-1.23.67-.08.39.57.41.9a2.7,2.7,0,0,1-.6,2.25Z"/><path class="cls-21" d="M230.07,65.88a1.92,1.92,0,0,1-2.27,0c-1.25-.75.25-.5.4-.78C228.93,65.09,229.72,65,230.07,65.88Z"/><path class="cls-22" d="M111.4,404.53h-.59l-.2-2,.45-1.27a2.43,2.43,0,0,1,.33.77C111.44,402.88,111.41,403.71,111.4,404.53Z"/><path class="cls-23" d="M199,371.45a2.77,2.77,0,0,1-.59-2.25c0-.34-.25-1,.4-.92.15,0,.26.79.39,1.22Z"/><path class="cls-24" d="M142.34,35c-.46.34-.86,1.32-1.48.17C141.18,33.62,141.73,34,142.34,35Z"/><path class="cls-25" d="M197.79,383.7h.61c0,.68,0,1.36,0,2,0,.26,0,.76-.49.5-.16-.08-.21-.38-.31-.59Z"/><path class="cls-26" d="M137.4,271.58c.16-6.59.4-13.17,1.21-19.71,1.05,1.63.23,3.38.44,4.59-.16,1-.87.54-.4.64.18,0,.29,0,.3-.15a53.08,53.08,0,0,0-.1-10.52V240a32.64,32.64,0,0,1-.41-14.05,35.66,35.66,0,0,0,.16-6,41,41,0,0,0,.62-5.79c1.11-2.37-.12-5.2,1.48-7.48,2.38-1.12,4.91-.49,7.37-.55,4.27-.11,8.55,0,12.83-.07,1.28,0,2.64.25,3.73-.76.93-.38.52.54.79.81,1.72,1.67,1.45,3.78,1.31,5.86a30.36,30.36,0,0,0-.47,13.4c.62,3.5,0,7.12.31,10.67.82,4.83.13,9.71.43,14.58.65,10.42,1.56,20.84,1.62,30.61-.08,1.16-.58,1.09-.34.89.87-.72-.23-2.08.77-2.84,1.33,4.82.7,8.89-3.41,12.44-3.86,3.34-7.17,7.32-10.72,11-.82.85-1.53,1.94-2.86.53-5-5.38-10.68-10.18-15.41-15.87C137.33,282.11,138,276.87,137.4,271.58Z"/><path class="cls-27" d="M141,206.89c-.4,2.44.11,5-.72,7.37-.89-2-.45-4-.31-5.95a66.11,66.11,0,0,0,.1,11.43c-.19,6.77-.41,13.53-1.24,20.26-6.76-6.24-13.32-12.69-19.51-19.5l.16-.49c2.92-3.75,7.17-5.87,10.76-8.8a72,72,0,0,1,6.63-4.88c1.26-.81,2.54-1.94,4.24-.9A1.2,1.2,0,0,1,141,206.89Z"/><path class="cls-27" d="M165.24,211.93l.17-5.87a5,5,0,0,1,2.9,1.2c5.22,4,10.42,8,15.77,11.76,2,1.42,1.77,2.31.21,3.82-4.55,4.41-8.89,9-13.5,13.36-2.22,2.09-3.75,4.26-3.38,7.42a.67.67,0,0,1-.93-.49c-.12-2.24.1-4.51-.39-6.73-.15-2.23.26-4.5-.33-6.71-.18-1.83.19-3.69-.33-5.5-.27-2.24.23-4.52-.39-6.74C165.07,215.61,164.73,213.75,165.24,211.93Z"/><path class="cls-28" d="M141,206.89l-.23-1.48c-.39-1.44.59-2.26,1.51-3,3.17-2.51,6.17-5.3,10.25-6.33l1.27.46c3.48,3,7.8,5,10.79,8.69,0,1.16-.26,2.26-1.69,2.22C155.63,207.25,148.29,208.27,141,206.89Z"/><path class="cls-29" d="M94.87,196.13l4.35,0c4.59,2.28,6.9,6.86,10.29,10.34,3.08,3.17,5.78,6.7,8.69,10,1,1.11,2.37,2.25,1.13,4h0C110.88,212.69,102.81,204.48,94.87,196.13Z"/><path class="cls-30" d="M207,196.11l3.64,0L190.42,215.6Z"/><path class="cls-31" d="M166.65,236.32l.23,6.89c.66,1.72-.12,3.57.49,5.29l.2,6.18c.73,2.21-.14,4.55.53,6.77l.19,5.48c.73,2.2-.14,4.53.53,6.74l.23,5.55q0,2.81,0,5.62c-1-4.31-1.07-8.66-1.42-13-.85-10.54-1.07-21.12-1.59-31.69a29.78,29.78,0,0,0-.69-3.85,1.05,1.05,0,0,1,.66-.4A.9.9,0,0,1,166.65,236.32Z"/><path class="cls-32" d="M137.4,271.58c1,5.32,1.32,10.6-.75,15.77l.06-3.61c.66-2.21-.2-4.54.53-6.74Z"/><path class="cls-33" d="M138.85,246.42c1.26,3.67.37,7.38,0,11.09l-.26-5.64Z"/><path class="cls-26" d="M137.24,277c-.12,2.25.63,4.57-.53,6.74C136.64,281.46,136.45,279.19,137.24,277Z"/><path class="cls-26" d="M168.82,273.67c-1.16-2.17-.41-4.48-.53-6.74C169.07,269.13,168.9,271.41,168.82,273.67Z"/><path class="cls-26" d="M168.11,261.45c-1.16-2.18-.41-4.5-.53-6.76C168.38,256.89,168.17,259.18,168.11,261.45Z"/><path class="cls-26" d="M167.38,248.51c-1-1.68-.47-3.51-.49-5.29a4.6,4.6,0,0,0,.53.41Q167.39,246.07,167.38,248.51Z"/><path class="cls-1" d="M119.33,220.51c-1.55-3.58-4.78-5.82-7.08-8.81-4.13-5.37-9.21-10-13-15.6h53.32l-11.77,9.31c-6.71,4.07-12.6,9.27-19,13.78A5.08,5.08,0,0,1,119.33,220.51Z"/><path class="cls-1" d="M88.39,101.85A207.23,207.23,0,0,1,94.75,77.6L98.58,89c.51.83,1.48,1.53.75,2.71q1.57,7.33,3.13,14.66a18.63,18.63,0,0,1,.22,6.41c-.68,5.08-4.68,7.09-9.15,4.67a9.12,9.12,0,0,1-5.11-8C88.32,106.86,88.4,104.35,88.39,101.85Z"/><path class="cls-3" d="M102.13,159.24a5.83,5.83,0,0,1-3.38-7.36,6.42,6.42,0,0,1,12.36,0c.89,3.23-.26,5.81-3.33,7.39A10,10,0,0,1,102.13,159.24Z"/><path class="cls-3" d="M202.07,159.17a4.47,4.47,0,0,1-2.9-3.4c-.83-1.68,0-3.3.15-4.95a5.8,5.8,0,0,1,7-3.51,6.31,6.31,0,0,1,4.94,5,5.76,5.76,0,0,1-3.57,7A9.93,9.93,0,0,1,202.07,159.17Z"/><path class="cls-34" d="M79.82,195.32q0-36.64,0-73.27c1,1.13.67,2.5.68,3.78q0,32.85,0,65.71C80.51,192.83,80.81,194.2,79.82,195.32Z"/><path class="cls-35" d="M164.63,87.51a5.74,5.74,0,0,1,2-.66c6.33.39,12.6-.63,18.91-.82,10.23-.3,20.44-.94,30.67-1.35,1.38-.06,3.29-.72,3.72,1.64-1.28-1.48-3.09-.32-4.55-.92-2.48.8-5.08-.12-7.57.56a27.46,27.46,0,0,1-6.81.16c-2.48.8-5.09-.13-7.57.57l-6.11.16c-2.47.78-5.06-.12-7.54.54l-6.82.17c-2.48.79-5.07-.12-7.56.55l-.75,0Q163.89,87.81,164.63,87.51Z"/><path class="cls-36" d="M164.63,87.51q0,.31,0,.62l-6.09.16c-2.48.76-5.07-.13-7.55.54l-6.81.18c-2.39.6-4.81.23-7.22.25a.64.64,0,0,1-.36-1Z"/><path class="cls-37" d="M136.59,88.23q0,.36,0,.72.73.31,0,.61l-6.08.16c-2.47.79-5.07-.12-7.55.55l-.77,0c-.4-.38-1.09-.07-1.42-.62,2.46-1.43,5.14-.45,7.7-.7S134,89.5,136.59,88.23Z"/><path class="cls-38" d="M120.77,89.66l1.42.62-6.06.16c-2.48.78-5.07-.12-7.56.54l-.76,0a1.08,1.08,0,0,1-.7-.61C111.6,88.82,116.23,90.07,120.77,89.66Z"/><path class="cls-39" d="M107.11,90.38l.7.61-8.49.66c-.21-.91-1.19-1.62-.75-2.71C101.17,90.93,104.2,90.3,107.11,90.38Z"/><path class="cls-3" d="M136.59,89.56q0-.3,0-.61l7.58.05C141.69,89.82,139.13,89.58,136.59,89.56Z"/><path class="cls-3" d="M123,90.26c2.44-1.19,5-.36,7.55-.55A24.06,24.06,0,0,1,123,90.26Z"/><path class="cls-3" d="M179.75,87.38c2.44-1.18,5-.36,7.54-.54A24.1,24.1,0,0,1,179.75,87.38Z"/><path class="cls-3" d="M193.41,86.68c2.45-1.22,5-.35,7.57-.57C198.5,86.95,195.94,86.7,193.41,86.68Z"/><path class="cls-3" d="M165.37,88.11c2.44-1.2,5-.35,7.56-.55C170.45,88.34,167.91,88.14,165.37,88.11Z"/><path class="cls-3" d="M151,88.82c2.44-1.18,5-.39,7.55-.54C156.06,89.06,153.52,88.88,151,88.82Z"/><path class="cls-3" d="M108.58,91c2.45-1.19,5-.37,7.55-.54C113.66,91.21,111.11,91,108.58,91Z"/><path class="cls-3" d="M207.78,86c2.45-1.21,5-.35,7.57-.56C212.88,86.21,210.32,86,207.78,86Z"/><path class="cls-40" d="M202.07,159.17a6.75,6.75,0,0,1,5.65.11.81.81,0,0,1-.54.24,4.24,4.24,0,0,1-4.5-.08A.88.88,0,0,1,202.07,159.17Z"/><path class="cls-41" d="M107,160c-1.34,1.34-2.68,1.28-4,0A3.38,3.38,0,0,1,107,160Z"/><path class="cls-42" d="M102.13,159.24a6.69,6.69,0,0,1,5.65,0,.84.84,0,0,1-.57.25,7.83,7.83,0,0,1-4.5,0A.86.86,0,0,1,102.13,159.24Z"/><path class="cls-43" d="M199.32,150.83a4.88,4.88,0,0,1-.15,4.95l-.08.07a4,4,0,0,1,0-4.43A1,1,0,0,1,199.32,150.83Z"/><path class="cls-44" d="M207,160.08c-1.45,1.45-2.81.95-4.15-.17A8,8,0,0,1,207,160.08Z"/><path class="cls-45" d="M102.7,159.48h4.5a5,5,0,0,0-.25.57h-4Q102.83,159.76,102.7,159.48Z"/><path class="cls-46" d="M207,160.08l-4.15-.17q-.05-.24-.13-.47l4.5.08Q207.08,159.8,207,160.08Z"/><path class="cls-47" d="M198.64,155.73c-1.39-1.37-1.29-2.77-.09-4.19A10.61,10.61,0,0,1,198.64,155.73Z"/><path class="cls-48" d="M198.64,155.73a9.84,9.84,0,0,1-.09-4.19,3.71,3.71,0,0,0,.51-.12l0,4.43Z"/><path class="cls-49" d="M202,349.19c1.11-1,2.48-.71,3.77-.71,6.47,0,12.94-.08,19.4,0,2.36,0,3.5-.58,3.46-3.21-.11-9.22-.08-18.44,0-27.67,0-2.15-.79-3.13-3-3-.71.06-1.44,0-2.16,0H82.67c-5,0-5,0-5,5.16,0,8.38.08,16.77,0,25.15,0,2.66.87,3.58,3.53,3.52a164.13,164.13,0,0,1,20.44.67H77c-.92-.84-.74-2-.74-3,0-9.7.05-19.4-.06-29.1,0-2.64.79-3.5,3.5-3.5q73.48.11,147,.05c1.54,0,3.14-.36,3.09,2.19-.2,11.13.22,22.26-.23,33.39A106.48,106.48,0,0,1,202,349.19Z"/><path class="cls-50" d="M229.33,349.18c0-10.53-.09-21.07.06-31.6,0-2.87-.92-3.67-3.72-3.67q-72.54.1-145.09,0c-2.79,0-3.77.78-3.73,3.66.16,10.53.09,21.07.11,31.6q0,.33-.11.65c-1.15.08-1-.8-1-1.45,0-11.46-.08-22.92,0-34.38,0-.21.21-.42.33-.63,1.19-.05,2.38-.15,3.58-.15q73.22,0,146.44-.07c2.95,0,4,.43,3.93,3.76-.27,11-.1,22-.11,33a.61.61,0,0,1-.85.13A.66.66,0,0,1,229.33,349.18Z"/><path class="cls-49" d="M76.24,313.38c0,10.76,0,21.52.09,32.27,0,1.4-.37,2.88.52,4.18,7.52,0,15,0,22.57.08,1.39,0,2.9-.4,4.1.74l-27.89-.17-.18-12.1q0-12.19,0-24.37a.8.8,0,0,0,.12-.63A.86.86,0,0,1,76.24,313.38Z"/><path class="cls-51" d="M177.79,349.75H127.7v-.34h50.13Z"/><path class="cls-52" d="M166.06,236.32h-.72c.5-6.9-1-13.72-.72-20.61.06-1.28-.28-2.64.61-3.79l.18,5.46c.73,2.18-.14,4.49.52,6.68l.19,5.58A14.57,14.57,0,0,1,166.06,236.32Z"/><path class="cls-53" d="M140.09,219.75c-1.3-3.91-.33-7.87.21-11.83q0,3.17,0,6.34Z"/><path class="cls-26" d="M166.06,236.32l.07-6.68c.77,2.18.55,4.44.52,6.68Z"/><path class="cls-26" d="M165.94,224.06c-1.14-2.15-.42-4.44-.52-6.67C166.2,219.56,166,221.82,165.94,224.06Z"/></g></g></svg>