<svg xmlns="http://www.w3.org/2000/svg" viewBox="0 0 832 1070.32"><defs><style>.cls-1{fill:#feecb4;}.cls-2{fill:#fde086;}.cls-3{fill:#121149;}.cls-4{fill:#2c3e7a;}.cls-5{fill:#273b7a;}.cls-6{fill:#293c7a;}.cls-7{fill:#263a7a;}.cls-8{fill:#32447d;}.cls-9{fill:#d38b07;}.cls-10{fill:#fec51b;}.cls-11{fill:#fe9884;}.cls-12{fill:#e0b99d;}.cls-13{fill:#f7d8c3;}.cls-14{fill:#fec332;}.cls-15{fill:#353848;}.cls-16{fill:#fefefe;}.cls-17{fill:#fd7357;}.cls-18{fill:#eab499;}.cls-19{fill:#edb095;}.cls-20{fill:#ecb79d;}.cls-21{fill:#eaae93;}.cls-22{fill:#f3b69e;}.cls-23{fill:#fef2ec;}.cls-24{fill:#f8f8f8;}.cls-25{fill:#fef1eb;}.cls-26{opacity:0.38;}.cls-27{isolation:isolate;}.cls-28{fill:#a5a5a5;}.cls-29{fill:#7d7d7d;}.cls-30{fill:#b4b4b4;}.cls-31{opacity:0.4;}.cls-32{opacity:0.24;}</style></defs><title>blocs</title><g id="Calque_2" data-name="Calque 2"><g id="Calque_2-2" data-name="Calque 2"><path class="cls-1" d="M268.59,954.12l-48.19,0a4.38,4.38,0,0,1-.19-2.22q0-61.9,0-123.8c0-2.51,0-2.51,2.68-2.51h43.63c2.69,0,3,.23,3.06,2.76q.15,8.43,0,16.86c0,2.66-.48,3-3.37,3q-12.79,0-25.58,0a12.54,12.54,0,0,0-4.38.63c.76.49,1.57.23,2.32.23,8.94,0,17.89,0,26.83,0,1.24,0,2.62-.27,3.62.83a17.47,17.47,0,0,1,0,9.63c-.92,1.2-2.32.91-3.55.91-9.07.06-18.15,0-27.22,0-.73,0-1.55-.32-2.16.29a13.66,13.66,0,0,0,4.48.57q12.88,0,25.77,0c2.74,0,3.11.35,3.22,2.93a44.43,44.43,0,0,1,0,4.72c-.14,2.22-.54,2.61-2.88,2.62-7.66,0-15.32,0-23,0-2.56,0-5.16-.36-7.58.62a4.07,4.07,0,0,0,2.32.23c9,0,18,0,27,0,1.24,0,2.61-.27,3.6.83a17.33,17.33,0,0,1,0,9.67c-1,1.15-2.34.86-3.58.87-8.72.06-17.44,0-26.16,0-1,0-1.93,0-2.89.06,9.58.06,19.15,0,28.73.06,1.31,0,2.75-.31,3.85.78a16.81,16.81,0,0,1,0,9.72c-1,1.15-2.35.86-3.59.87-8.94.06-17.88,0-26.82,0a11.81,11.81,0,0,0-2.87.15c.75.61,1.58.34,2.32.34,9.08,0,18.17,0,27.25,0,1.25,0,2.61-.27,3.65.77a16.76,16.76,0,0,1,.06,9.72c-1,1.16-2.34.87-3.58.88-8.73.06-17.45,0-26.18,0-1,0-1.93,0-2.89.06,9.59.06,19.17,0,28.76.06,1.31,0,2.76-.31,3.85.79a6.3,6.3,0,0,1,.63,3.4q0,19.5,0,39C269.59,951.92,269.82,953.23,268.59,954.12Z"/><path class="cls-2" d="M268.62,882.9q0-4.69,0-9.38c.87-1.32,2.29-.95,3.51-1,9-.06,18.06,0,27.08,0a19,19,0,0,0,2.63-.09H238.26c-1.22,0-2.44,0-3.65-.06a2.21,2.21,0,0,1-2.13-1.12,7.79,7.79,0,0,1,2.77-.21h30.53c2.82,0,2.82,0,2.83-2.78,0-1,0-2.06,0-3.09,0-3.2,0-3.21-3.26-3.21h-30.1a5.79,5.79,0,0,1-2.74-.29c.73-1.13,1.94-1,3.07-1,4.94-.06,9.89,0,14.83,0q25.56,0,51.12,0c-9.81-.07-19.63,0-29.44-.08-1.21,0-2.65.37-3.48-1v-9.38c.84-1.35,2.27-1,3.49-1,9-.06,18.06,0,27.09,0a19.75,19.75,0,0,0,2.69-.09H238.33c-1.22,0-2.44,0-3.65-.05a2.39,2.39,0,0,1-2.18-1.07,6.55,6.55,0,0,1,2.76-.26h30.32c3,0,3,0,3-2.8,0-5.56-.06-11.11,0-16.67,0-1.77-.55-2.4-2.45-2.39-14.41.06-28.82.08-43.23,0-2.42,0-2.61,1-2.6,2.87q.06,48.76,0,97.53,0,14,0,28c-.68-.62-.41-1.42-.41-2.14q0-62-.05-124c0-1.94.51-2.58,2.62-2.58q46.55.08,93.1,0c.83,0,1.74-.22,2.46.43a7.34,7.34,0,0,1,1,4q0,29.53,0,59.06c0,1.51-.61,3-.22,4.49s-.39,2.52-1,3.66q-8.6,16.53-17.25,33a16.58,16.58,0,0,0-1.44,3.41c.72,3.51,1.18,7.06,2.14,10.51,1.36.47,2.24-.6,3.27-1a39,39,0,0,0,7.66-3.74c1.26-2.34,2.45-4.72,3.73-7,.42-.76.79-1.65,2-1.37q0,11.69,0,23.38l-49.41,0q0-22.78,0-45.55c.8-1.41,2.24-1,3.45-1,9-.07,18,0,27.06,0,.86,0,1.72,0,2.58-.06-9.89-.06-19.78,0-29.68-.07-1.19,0-2.66.41-3.41-1.06q0-4.69,0-9.37c.88-1.29,2.3-.92,3.52-.93,9.22-.06,18.45,0,27.67,0a5.46,5.46,0,0,0,2.56-.24,5.46,5.46,0,0,0-2.56-.24c-9.22,0-18.45,0-27.67,0-1.22,0-2.63.36-3.52-.93v-9.37c.6-1.35,1.9-1,3-1.06,6.44-.08,12.88,0,19.33,0,3.58,0,7.16,0,10.74,0-9.87-.07-19.73,0-29.6-.08C270.87,883.92,269.42,884.32,268.62,882.9Z"/><path class="cls-3" d="M348.15,855.29l.84.2a16,16,0,0,1,2.93,2.85c1.4,3,.78,5.76-.72,8.61Q335,897.79,318.93,928.71c-.35.67-.62,1.37-.93,2.06-2,2.89-3,6.29-5.15,9.13-3.2.33-5.55-1.24-7.72-3.19a3.35,3.35,0,0,1,.32-3c8.28-15.87,16.44-31.8,24.92-47.57,5.11-9.5,10-19.1,15.1-28.6C346.05,856.49,346.49,855.22,348.15,855.29Z"/><path class="cls-4" d="M268.63,894.52l30.46.11c1.72,0,3.43,0,5.15,0,.91,0,1.52.13,1.47,1.22s-.74,1-1.47,1c-5.58,0-11.16,0-16.74,0-6.29,0-12.58.07-18.87.1l-28.73-.11c-1.93,0-3.86,0-5.79,0-.81,0-1.79.26-1.79-1.1s1-1.1,1.79-1.1h31.53C266.63,894.63,267.63,894.56,268.63,894.52Z"/><path class="cls-5" d="M232.5,847.85l70.55,0c.64,0,1.29,0,1.93,0s.71.55.71,1,0,1-.72,1-1.15,0-1.72,0l-34.62.08c-11.38,0-22.77-.09-34.15,0C232.68,850,231.88,849.64,232.5,847.85Z"/><path class="cls-5" d="M268.62,859.47l34.62.07c.57,0,1.15,0,1.72,0s.72.53.72,1,0,1-.7,1-1.29,0-1.93,0l-70.54,0c-.66-1.82.2-2.17,2-2.16C245.86,859.54,257.24,859.49,268.62,859.47Z"/><path class="cls-6" d="M232.48,871.26h72.26c.76,0,1,.42.95,1.06s-.17,1.08-.95,1.08H303l-34.4.1c-11.38,0-22.75-.1-34.13-.06C232.69,873.46,231.91,873,232.48,871.26Z"/><path class="cls-7" d="M268.62,882.9l34.54.07h1.72c.68,0,.81.4.8.94s.05,1.14-.81,1.14h-1.72l-34.54.08-33.54-.08c-.57,0-1.15,0-1.72,0-.92.06-1-.45-1-1.16s.31-1,1-.95c1,0,2,0,3,0Z"/><path class="cls-7" d="M268.62,906.32l34.54.08h1.72c.86,0,.79.59.81,1.15s-.12.94-.8.94h-2.15l-34.11.07-33.75-.07c-.57,0-1.15,0-1.72,0s-.81-.4-.8-.94-.07-1.15.8-1.15h2.58Z"/><path class="cls-8" d="M244.66,920.22H233.93c-.77,0-1.6.15-1.62-1.05s.7-1.14,1.54-1.14q10.73,0,21.46,0c.88,0,1.55.06,1.52,1.17s-.9,1-1.66,1Z"/><path class="cls-7" d="M348.15,855.29a5.67,5.67,0,0,0-1.52,2.21q-20,38-39.91,76a7.43,7.43,0,0,0-1.18,2.84.63.63,0,0,1-.48.38c-2.71-.44-5.15-1.36-6.79-3.63-.13-.82.41-1.43.76-2.09l18.16-34.84c.35-.67.62-1.37.93-2.06,3-5.59,6-11.18,8.91-16.78,3.21-6.1,6.35-12.23,9.56-18.33C339.12,854.24,343.12,853,348.15,855.29Z"/><path class="cls-9" d="M481.64,620.78l.2,0,4.24,2c-2.11,1.31-4.45,2.19-6.67,3.28-.24.12-.49.13-.5-.24a10.08,10.08,0,0,1,1.63-4.2A1.39,1.39,0,0,1,481.64,620.78Z"/><path class="cls-10" d="M481.64,620.78l-2.73,5.06a63.51,63.51,0,0,1-1.28-7A28.21,28.21,0,0,1,481.64,620.78Z"/><path class="cls-11" d="M0,599.88C3,602,2.64,604,0,606.1Z"/><path class="cls-11" d="M832,606.1c-2.63-2.07-3.06-4.15,0-6.22Z"/><path class="cls-11" d="M0,655.85c2.64,2.07,3,4.15,0,6.22Z"/><path class="cls-11" d="M832,662.07c-3.06-2.07-2.63-4.15,0-6.22Z"/><path class="cls-12" d="M253.62,721l-42.41-71.92c-2.67-8,3.17-12.68,8-17.28,32.34-31.08,63.8-63,98.84-91.43,4.75-3.85,9.26-9.22,16.89-5.88,14.63,13.21,30.37,24.33,51.63,25,3.75,8.8-3.58,13.23-8.27,18.42-15.58,17.21-34.94,30.65-51.5,46.91-12.81,12.57-13.08,26-.7,37.58,8.26,7.7,25.73,5.61,36.39-3.6,11.26-9.73,19.28-22.21,30.68-31.79,7.67-6.44,15.15-9.23,24.64-2.92,9.85,6.54,21.74,9,32.63,13.46,5.84,3.17,12.39,2.71,18.75,3.25,5.55,1.32,9.25,5.17,13.07,8.82,24.11,23,47.86,46.41,72.5,68.94a25.33,25.33,0,0,1,6.61,8.7c-2.32,8.66,5.67,11.69,10.25,16.09,9.83,9.43,13.68,20.46,8.52,32.52-5,11.65-15.87,14.78-28.36,11.89-7.59-1.76-5.84,2.5-5.84,6.86,0,23.86-6.77,29.52-32.54,27.44-3.81-.31-6.81-1.57-8.93,3.46-12.46,29.63-14.78,30.6-45.16,21.27-3.57,4-.35,8.64-1,12.91-2.75,17.36-24.19,26-40.32,15.48-5.68-3.7-10-9.31-14.93-14.06-3.3-4.54.85-7.48,2.49-11,8.63-18.69,2.84-27.57-18.55-28.43-2.69-.11-5.33-.06-7.85-1.16a9.72,9.72,0,0,1-4.61-5c-1.63-4.91,1.27-8.85,3-13.06,6.93-16.54-1.22-27.28-19.64-25.65-3.68.33-7.26,1.74-11,.17a9.5,9.5,0,0,1-4.8-4.68,11.05,11.05,0,0,1-.2-6c5.52-24.35-3.91-32.43-29.06-24.92a12.28,12.28,0,0,1-4.76.47,9.06,9.06,0,0,1-5.46-3.7c-3.5-10.43,3.17-24.41-11.74-30.87a11.72,11.72,0,0,0-13-.08C268.91,710.31,266.23,723.67,253.62,721Z"/><path class="cls-13" d="M561.35,727.24c-6.74.62-11-3.36-15.2-7.47q-39.2-38-78.49-75.94c-6.37,1.67-12.72,2-19-.28-12.56-6.68-28.31-6.62-39-17.69-4.72-4.91-7.49,1.53-10.1,3.93-12.09,11.11-24.06,22.36-35.62,34-9.46,9.49-21.14,10.17-32.76,7.08-13.23-3.51-16.55-15.24-18.95-26.5-1.78-8.34,2.47-14.63,8.63-20.54,22.11-21.23,43.82-42.85,65.68-64.32,8.62-7.44,18.82-9.27,30.07-8.22,15.56,1.44,31.2,2.11,46.72,3.82,15.17,1.67,20.83-11.12,30.8-17.35,6.48-2.13,10.2,2.32,13.71,5.91,29.09,29.71,62.63,55,91.77,84.63,8.83,9,17.82,18,18.54,31.4Z"/><path class="cls-14" d="M523.68,490c-11.64-8.73-11-16.33.13-26,17.62-15.25,34.1-31.74,50.51-48.22,6.5-6.53,10.66-7.84,18.11-.62q76.29,74.05,153.5,147.23c6.71,6.37,6.26,10.21-.24,16.19-18.31,16.85-36.62,33.78-53.74,51.71-8.34,8.74-14.4,8.84-21.9.44-7.35.65-12.16-3.68-16.78-8.08q-61-58-121.69-116.46C527,501.8,522.54,497.11,523.68,490Z"/><path class="cls-15" d="M162.5,624.44c-8.5,9.57-15.09,8.31-23.9-1.11-16.54-17.69-34.52-34.18-52.37-50.69-6.18-5.72-7.58-9.2-.59-15.82q74.82-70.89,148.73-142.66c6-5.77,9.5-5.68,15.29.07,18,17.86,35.87,35.89,55.14,52.42,9.61,8.25,7.9,13.79.37,20.87.76,7.7-4.63,12.36-9.53,17.07Q238.09,560,180.22,615C175.31,619.7,170.56,625,162.5,624.44Z"/><path class="cls-16" d="M523.68,490,670,630.77c-9.36,9.34-19.71,18-27.81,28.22-8.67,11-15.79,9.24-24.09.67-10.7-6.66-14-19-23.2-27.12-28.38-25-55.83-51-83.48-76.77-6.11-5.69-11.57-12-17.33-18.05-8.2-7.18-8.88-13.29.69-20.76C505.19,508.87,514.12,499.08,523.68,490Z"/><path class="cls-16" d="M162.5,624.44,305.18,487.52c9.31,8.52,18.14,17.58,28.06,25.39,9.14,7.19,11.36,13.64,1.66,21.57-43.5,36-84.18,74.7-123.69,114.59-9.85,11.07-17.9,8.46-26.43-2.1C178.21,638.83,170,631.9,162.5,624.44Z"/><path class="cls-13" d="M308.45,739.73c11.25-10.09,23.91-10.41,34.7-1.06s9,21.12,1.32,32.18c-1.84,9.46-11.62,13.83-15.4,22-5.28,7.15-11.55,13-20.86,15.06-15.64,10.1-27.82,10-36.83-.25s-7.35-22.65,4.41-35.45c2.77-3,6.54-5.45,6.11-10.21a8.54,8.54,0,0,1,2.37-6.18C293.15,751.65,298.33,742.29,308.45,739.73Z"/><path class="cls-13" d="M348.05,774.21c11.71-4.28,23.15-5.22,32,5,10.71,12.37,3.87,23.75-3.27,34.87-1.55,6.72-5.24,11.34-12.92,12-3.08,2.83-6.39,5.45-9.19,8.51-9.3,10.15-20,15.74-33.74,8.51-12.61-6.64-14.85-17.5-8.15-34.81,2.42-7.55,10.51-10.75,14.39-17.17C333.54,784.85,338.67,777.15,348.05,774.21Z"/><path class="cls-13" d="M286,758.62l-4.07,3.43c-9.25,1.52-18.34,5.75-27.88.9-16.43-8.34-16.63-25.73-.39-42l22.64-18.56a20.17,20.17,0,0,1,16.2,0c14.35,7.87,16.71,19.89,12.88,34.05C301.9,746.25,292.31,751.14,286,758.62Z"/><path class="cls-13" d="M380.5,817.68c11.51-2.63,23-3.2,30.4,7.4,9.76,14,.94,25.24-7.91,36-3.26,2.59-6.6,5.1-9.78,7.78-10.63,9-21.82,10.69-33,1.39-10.2-8.5-10.49-21.88-1.18-33,2.3-2.76,5.37-4.92,8.09-7.35A19.18,19.18,0,0,1,380.5,817.68Z"/><path class="cls-17" d="M329.21,792.79l-16.39,15.6-4.61-.42,16.92-18.23C328.1,788.78,329.3,790,329.21,792.79Z"/><path class="cls-18" d="M380.5,817.68c-3.59,4.93-7.72,9.32-13.35,12.2l-3.25-3.71,12.92-12Z"/><path class="cls-19" d="M286,758.62c2.05-10.92,12.12-15.43,19.39-22.17l3.1,3.29C302.27,747.47,296.95,756.12,286,758.62Z"/><path class="cls-20" d="M329.21,792.79l-4.08-3.05c5-7.6,11.79-13.62,19.34-18.88l3.58,3.35Z"/><path class="cls-21" d="M448.64,643.55l19,.28C461.26,647.62,454.92,647.78,448.64,643.55Z"/><path class="cls-22" d="M292.47,702.39l-16.2,0Q284.35,696.33,292.47,702.39Z"/><path class="cls-23" d="M342.63,663.23c-11.23-.16-20.87-10.21-20.71-21.58.13-8.86,15.35-27.69,22.56-27.91,4.33-.13,27.73,22,27.87,26.41C372.56,647,351.5,663.35,342.63,663.23Z"/><path class="cls-24" d="M150.82,547.84c10.44,1.24,17.26,6.64,17.2,16.81-.05,9.31-6.18,15.6-16,16.06-10.69.5-17.49-5.74-18-15.7C133.56,554.81,140.52,549.37,150.82,547.84Z"/><path class="cls-25" d="M344.21,751c.33,9.08-13,25.56-17.77,23.45-8.71-3.82-18.71-10.56-18.57-19.26s9.37-16.82,19.52-17.25A16,16,0,0,1,344.21,751Z"/><path class="cls-25" d="M376.83,796.47c-.78,5.78-4.88,11-12,13.15-3.83,1.16-20.16-17-18.6-20.86,2.63-6.52,7.61-11.33,15.62-11.11C369.44,777.87,377.3,787.21,376.83,796.47Z"/><path class="cls-23" d="M298.9,724.4c-1.91,7.83-7.17,16.41-14.81,15.45-8.26-1-17.45-9.29-17.57-17.67-.1-6.92,8.26-13,17.38-13.23C294.31,708.74,297.2,715.94,298.9,724.4Z"/><path class="cls-25" d="M397.37,852.8A40.87,40.87,0,0,1,380,831.73c-1.76-5,5.6-10.78,11.53-10,9.67,1.32,16.26,8.15,17.31,17.54C409.58,846,404.4,850.28,397.37,852.8Z"/><g class="cls-26"><g class="cls-27"><polygon class="cls-28" points="623.93 748.09 623.36 951.88 419.55 1070.32 420.12 866.53 623.93 748.09"/><polygon class="cls-29" points="420.12 866.53 419.55 1070.32 205.12 946.53 205.7 742.74 420.12 866.53"/><polygon class="cls-30" points="623.93 748.09 420.12 866.53 205.7 742.74 409.51 624.29 623.93 748.09"/></g></g><g class="cls-31"><g class="cls-27"><polygon class="cls-28" points="623.93 458.59 623.36 662.38 419.55 780.82 420.12 577.03 623.93 458.59"/><polygon class="cls-29" points="420.12 577.03 419.55 780.82 205.12 657.02 205.7 453.23 420.12 577.03"/><polygon class="cls-30" points="623.93 458.59 420.12 577.03 205.7 453.23 409.51 334.79 623.93 458.59"/></g></g><g class="cls-32"><g class="cls-27"><polygon class="cls-28" points="624.79 123.8 624.21 327.59 420.4 446.03 420.98 242.24 624.79 123.8"/><polygon class="cls-29" points="420.98 242.24 420.4 446.03 205.98 322.23 206.56 118.44 420.98 242.24"/><polygon class="cls-30" points="624.79 123.8 420.98 242.24 206.56 118.44 410.37 0 624.79 123.8"/></g></g></g></g></svg>