<svg xmlns="http://www.w3.org/2000/svg" viewBox="0 0 168.33 128.4"><defs><style>.cls-1{fill:#134563;}.cls-2{fill:#0b4261;}.cls-3{fill:#00395b;}.cls-4{fill:#003155;}.cls-5{fill:#fefefe;}.cls-6{fill:#fdfefe;}.cls-7{fill:#fdfdfd;}.cls-8{fill:#002b52;}.cls-9{fill:#003558;}</style></defs><title>email-img</title><g id="Calque_2" data-name="Calque 2"><g id="Calque_2-2" data-name="Calque 2"><path class="cls-1" d="M12.41,128.14c-5.93-.91-9.74-4.33-11.72-9.9C1.13,94.77.83,71.3.85,47.83c0-12.48.37-25-.23-37.44A13.72,13.72,0,0,1,11.4.47c1.26.6,2.61.37,3.93.37q68.54,0,137.09,0c1.31,0,2.67.25,3.92-.4,6,1.3,9.82,4.77,11.09,10.87-.06,35.12-.2,70.24.07,105.36-1.11,6.09-5.43,10.18-12.18,11.51a9.28,9.28,0,0,0-3.93-.34q-67.52,0-135,0A10.09,10.09,0,0,0,12.41,128.14Z"/><path class="cls-2" d="M167.5,116.67c-1.15-2-1.15-4.1-1.15-6.29q0-47,0-93.92c0-1.74-.67-3.71,1-5.15,1.18,1.44.84,3.16.84,4.79q0,47.88,0,95.76C168.26,113.48,168.66,115.21,167.5,116.67Z"/><path class="cls-3" d="M156.34.44c-1.54,1.51-3.48.86-5.24.87q-67.22.05-134.45,0c-1.76,0-3.69.63-5.25-.83,2-.16,4-.45,5.94-.45Q84.12,0,150.9,0C152.71,0,154.53.29,156.34.44Z"/><path class="cls-4" d="M12.41,128.14c1.59-1.38,3.51-.78,5.28-.78q66.19-.05,132.38,0c1.76,0,3.69-.62,5.26.81-6.16.08-12.32.21-18.48.22q-59.23,0-118.46,0C16.39,128.39,14.4,128.23,12.41,128.14Z"/><path class="cls-3" d="M.62,10.39c1.13,1.28.73,2.84.73,4.3q0,49.62,0,99.23c0,1.46.39,3-.67,4.33-.23-2.31-.65-4.62-.65-6.92q-.07-47,0-94C0,15,.41,12.7.62,10.39Z"/><path class="cls-5" d="M155.33,9.48c2.76,1.66,3,3.5.63,5.82Q127.56,43.61,99.18,72c-3,3-6.93,4.79-10.9,6.33-1.26.87-2.57.6-3.89.2H83.33c-1.67.27-3.37,1-4.9-.41-9-2.57-14.06-10.31-20.82-15.83a44.72,44.72,0,0,0-4.15-4.13l.12.12c-1.24-1.14-2.09-2.64-3.44-3.68-1.42-1.31-2.66-2.8-4.1-4.09-2.43-2.79-5.67-4.85-7.48-8.21-7.62-9-16.87-16.24-25.68-24-2.34-2.05-3.81-4.44-2.43-7.69,1.31-1.53,3-1.78,5-1.78q68.81,0,137.62,0A3,3,0,0,1,155.33,9.48Z"/><path class="cls-5" d="M10.37,117.29c-1.29-2.27-.37-4.06,1.26-5.69Q31,92.2,50.42,72.77c2.07-2.08,3.56-2.13,5.71,0,3.58,3.62,7,7.31,11.27,10.33,11.13,7.93,26.43,6.8,35.76-3.09,2.28-2.42,4.9-4.54,7-7.11,2.5-3.07,4.71-1.51,6.49.29,8.29,8.39,16,17.36,24.74,25.3,4.79,4.37,8.62,9.65,13.67,13.62,3,2.33,2.35,3.92.28,6-1.48,1.17-3.21.6-4.81.6q-66.78.05-133.55,0C14.64,118.83,12.29,119,10.37,117.29Z"/><path class="cls-6" d="M158.19,101.29c-5-1.4-7.31-6.06-10.82-9.24-8.79-8-16.28-17.31-25.54-24.82-1.83-1.48-2.33-3.41-.63-5.12q17.93-17.93,36-35.69c.17-.17.64,0,1,0,.86.79.64,1.83.64,2.81q0,34.65,0,69.31C158.84,99.46,159.06,100.51,158.19,101.29Z"/><path class="cls-7" d="M9.64,27.85,45.77,64.35,9.64,100.74Z"/><path class="cls-8" d="M155.33,9.48Q85.24,9.41,15.15,9.3a9.85,9.85,0,0,0-4.71,1.31c.69-2.3,2.55-2.28,4.43-2.28H151.74C153,8.34,154.46,8.07,155.33,9.48Z"/><path class="cls-8" d="M10.37,117.29c1.59.34,3,1.09,4.78,1.08q70.09-.16,140.18-.19c-1.19,1.73-3,1.12-4.58,1.12q-67.37,0-134.73,0C13.93,119.32,11.56,119.89,10.37,117.29Z"/><path class="cls-2" d="M7.5,100V27.66H8V100.2Z"/><path class="cls-9" d="M158.19,101.29q0-37.46,0-74.92c1.77,1.17,1.14,3,1.14,4.56q.06,32.9,0,65.81C159.34,98.31,160,100.13,158.19,101.29Z"/></g></g></svg>