<svg xmlns="http://www.w3.org/2000/svg" viewBox="0 0 823.4 186.17"><defs><style>.cls-1,.cls-2,.cls-8{fill:none;}.cls-1,.cls-10,.cls-2,.cls-3,.cls-7,.cls-8,.cls-9{stroke:#000;stroke-miterlimit:10;}.cls-1,.cls-3{stroke-linecap:round;}.cls-1,.cls-2,.cls-3,.cls-9{stroke-width:5px;}.cls-1{stroke-dasharray:3 8;}.cls-4{fill:#cc2009;}.cls-5{fill:#060606;}.cls-10,.cls-6,.cls-7,.cls-9{fill:#fff;}.cls-7{stroke-width:9px;}.cls-10,.cls-8{stroke-width:7px;}</style></defs><title>logo-kladjen-final</title><g id="Calque_2" data-name="Calque 2"><g id="Calque_2-2" data-name="Calque 2"><path d="M245.32,121.94c0,7.38.09,13.32,0,19.26-.17,8.81-5.06,14.38-12.43,14.39-7.57,0-12.92-5.87-12.94-14.71q-.11-48.34,0-96.67c0-8.72,5.53-14.6,13.13-14.51s12.26,5.53,12.31,14.45c.09,15.76,0,31.51,0,48.68,8.42-7.92,16.06-15,23.62-22.22,8.71-8.26,15.28-9.33,21.24-3.36,6.19,6.19,4.85,14-3.85,22.2-5.34,5.05-10.6,10.2-16.12,15-2.57,2.25-2.71,3.59-.06,6,7.92,7.07,15.55,14.36,23.33,21.6,6.57,6.14,7.27,13.24,1.94,19.26s-12.24,5.75-19.26-.71C266.26,141.43,256.39,132.19,245.32,121.94Z"/><path d="M731.51,123.35c.35-6.55-.49-14.33.83-22.08a45.33,45.33,0,0,1,45.09-37.83c22.34.25,42.1,17.23,44.94,39,1.77,13.55.76,27.21.6,40.82-.08,7.49-5.49,12.31-12.36,12.31a12.66,12.66,0,0,1-12.82-12.72c-.27-11.45.08-22.92-.18-34.38-.23-9.66-8.26-18-17.89-19.16-10.13-1.22-18.7,4-21.66,13.43a26.78,26.78,0,0,0-.9,7.66c-.1,10.38,0,20.76-.07,31.1-.1,8.65-5.24,14.19-12.72,14s-12.67-5.82-12.83-14.14C731.42,135.81,731.51,130.19,731.51,123.35Z"/><path d="M316.71,84.77c0-13.63-.06-27.26,0-40.89.06-8.48,4.78-14,11.81-14.19,7.78-.18,13.2,5.55,13.23,14.34.07,25.09.18,50.19-.08,75.28-.07,6.66,1.18,10.48,8.95,11,7.58.48,11.72,6.72,10.91,14.14-.77,7-5.8,11.2-13.43,11.16A31.12,31.12,0,0,1,316.71,125V84.77Z"/><path d="M613.07,43.07A14,14,0,0,1,599.6,56.89c-7.2.12-13.53-6.4-13.43-13.79a13.9,13.9,0,0,1,13.2-13.43,13.35,13.35,0,0,1,13.7,13Q613.07,42.86,613.07,43.07Z"/><path d="M611.76,115.84c0,12.53.32,25.07-.08,37.59-.54,17.06-15.76,31.3-32.26,30.73-10.21-.35-16.1-10.94-10.86-19.5,2.06-3.36,5.15-5.08,8.89-5.9,8.61-1.89,9.28-2.73,9.28-11.63V82.29c0-1.73,0-3.46,0-5.19.3-8.12,5.29-13.58,12.55-13.66s12.43,5.28,12.51,13.49c.14,13,0,25.93,0,38.88Z"/><path d="M566,44.65c.1-9.12-5.05-14.84-12.66-15-7.78-.13-12.72,5.75-12.78,15.4-.07,8.2,0,16.4,0,26.06a25.54,25.54,0,0,0-15.85-7.54c-25.49-2.83-48,15.63-51.39,42.1-3.06,24,15.49,47.36,40.5,50.9,24.45,3.44,48.52-14.34,51.3-39.45C567.81,93.11,565.78,68.83,566,44.65Zm-46.65,86.74a21,21,0,0,1,.16-42,21,21,0,0,1,.2,42h-.36Z"/><path d="M688,65a46.88,46.88,0,0,0-52.5,21.42,46.29,46.29,0,0,0,5.89,55.24c13.85,15,38.17,19.93,55.34,11.18,7.83-4,10.6-10.51,7.39-17.53-3.32-7.34-9.83-9.19-18.55-5.29-10.42,4.67-20.12,2.12-28-8.19,17.78,0,34.64.07,51.45,0,9.25-.06,13.49-4.53,13.31-13.61C721.92,88.65,707.36,70.31,688,65Zm-31.25,36c4.45-8.43,10.79-12.54,19.5-12.53,8.9,0,15.5,4.09,20,12.53Z"/><path d="M460.92,124.16c-.21-6.23.43-14.22-.89-22.18-3.94-23.7-26.86-41.13-50.67-38.34C384.84,66.51,366,89.14,368,113.33c2.71,32.52,34.74,52,65.15,39.59,2.22-.9,3.87-2.09,6.16.4,3.75,4,8.6,4.66,13.66,2.42,5.33-2.35,7.73-6.73,7.87-12.34C461,137.57,460.92,131.73,460.92,124.16Zm-46.11,7.23a21,21,0,0,1-1-42h.71a20.68,20.68,0,0,1,20.88,20.47q0,.2,0,.4a20.7,20.7,0,0,1-20.6,21.16Z"/><path class="cls-1" d="M51.74,70a66,66,0,0,0-19.19,43.64c-1.6,37.15,28.24,68.49,66.67,70s70.89-27.36,72.5-64.49A65.78,65.78,0,0,0,152.63,70"/><rect class="cls-2" x="92.28" y="52.57" width="18.38" height="53.02"/><path class="cls-3" d="M72.94,79.43H130a9.42,9.42,0,0,1,9.64,9.19v55.14a9.42,9.42,0,0,1-9.64,9.19H72.94a9.42,9.42,0,0,1-9.64-9.19V88.62A9.42,9.42,0,0,1,72.94,79.43Z"/><path class="cls-4" d="M132.68,85.14a9.06,9.06,0,0,1,2.16,5.73c-.08,17.61,0,35.22-.08,52.83,0,1.58-.08,3.22-1.87,4-17.21,1.22-34.43.17-51.65.55-3.1.07-6.27-.55-9.32.54-2.46-.5-3.33-2.24-3.33-4.59,0-18.94.07-37.9.22-56.84,0-.76,1.09-1.58,1.68-2.38C91.22,84.17,111.95,83.77,132.68,85.14Z"/><path class="cls-5" d="M93.69,137c-2.08-1.65-1.25-4-1.38-6.12C92,124.91,92.81,119,90,113c-1.71-3.67-1.24-9,3.1-11.7s9.19-4.95,14.31-1.19c4.24,3.06,7,7.59,5.05,12.3-2.53,6.21-2.18,12.35-2.23,18.61a9.44,9.44,0,0,1-1.41,5.57C103.78,137.88,98.73,137.09,93.69,137Z"/><path class="cls-6" d="M104.73,113.35c2.47-3.34,2.5-6.42.24-8.82-2.76-2.94-6.24-1.82-8.48.45-1.65,1.67-.8,5.87.8,8.38,2.66,4.07-.71,10.45-.49,15.12.06,1.64-.38,3.47.71,4.76,2.72.06,5.44.66,8.15-.33a10.36,10.36,0,0,0,.71-4.46C106.38,123.4,101.78,117.37,104.73,113.35Z"/><path class="cls-7" d="M27.41,4.5H53.95A9.81,9.81,0,0,1,64,14V43a9.81,9.81,0,0,1-10.05,9.54H27.41A9.82,9.82,0,0,1,17.34,43V14C17.34,8.77,21.86,4.5,27.41,4.5Z"/><path class="cls-7" d="M88.19,4.5h26.54A9.81,9.81,0,0,1,124.79,14V43a9.81,9.81,0,0,1-10.06,9.54H88.19A9.81,9.81,0,0,1,78.14,43V14A9.8,9.8,0,0,1,88.19,4.5Z"/><path class="cls-7" d="M148.28,4.5h26.54A9.81,9.81,0,0,1,184.88,14V43a9.81,9.81,0,0,1-10.06,9.54H148.28A9.81,9.81,0,0,1,138.22,43V14C138.2,8.77,142.73,4.5,148.28,4.5Z"/><path class="cls-8" d="M35.1,14.81h9.73a1.47,1.47,0,0,1,1.5,1.42V41a1.47,1.47,0,0,1-1.5,1.42H35.1A1.47,1.47,0,0,1,33.6,41V16.25a1.47,1.47,0,0,1,1.49-1.44Z"/><path class="cls-8" d="M95.89,14.52h9.73a1.47,1.47,0,0,1,1.5,1.42V40.67a1.47,1.47,0,0,1-1.5,1.42H95.89a1.47,1.47,0,0,1-1.5-1.42V16a1.47,1.47,0,0,1,1.49-1.44Z"/><path class="cls-8" d="M156.68,14.81h9.73a1.47,1.47,0,0,1,1.5,1.42V41a1.47,1.47,0,0,1-1.5,1.42h-9.73a1.47,1.47,0,0,1-1.5-1.42V16.25a1.47,1.47,0,0,1,1.49-1.44Z"/><path class="cls-9" d="M4.11,25.71h194a1.58,1.58,0,0,1,1.61,1.55h0v4.66a1.58,1.58,0,0,1-1.61,1.56H4.11A1.58,1.58,0,0,1,2.5,31.93h0V27.27a1.58,1.58,0,0,1,1.6-1.56Z"/><path class="cls-10" d="M35.1,14.81h9.73a1.47,1.47,0,0,1,1.5,1.42V41a1.47,1.47,0,0,1-1.5,1.42H35.1A1.47,1.47,0,0,1,33.6,41V16.25a1.47,1.47,0,0,1,1.49-1.44Z"/><path class="cls-10" d="M96.1,14.81h9.73a1.47,1.47,0,0,1,1.5,1.42V41a1.47,1.47,0,0,1-1.5,1.42H96.1A1.47,1.47,0,0,1,94.6,41V16.25a1.47,1.47,0,0,1,1.49-1.44Z"/><path class="cls-10" d="M157.1,14.81h9.73a1.47,1.47,0,0,1,1.5,1.42V41a1.47,1.47,0,0,1-1.5,1.42H157.1A1.47,1.47,0,0,1,155.6,41V16.25a1.47,1.47,0,0,1,1.49-1.44Z"/></g></g></svg>