<svg xmlns="http://www.w3.org/2000/svg" viewBox="0 0 823.61 185.8"><defs><style>.cls-1,.cls-10,.cls-7,.cls-9{fill:#fff;}.cls-2,.cls-3,.cls-8{fill:none;}.cls-2,.cls-3{stroke:#fff;}.cls-2,.cls-4{stroke-linecap:round;}.cls-10,.cls-2,.cls-3,.cls-4,.cls-7,.cls-8,.cls-9{stroke-miterlimit:10;}.cls-2,.cls-3,.cls-4,.cls-9{stroke-width:5px;}.cls-2{stroke-dasharray:3 8;}.cls-10,.cls-4,.cls-7,.cls-8,.cls-9{stroke:#000;}.cls-5{fill:#cc2009;}.cls-6{fill:#060606;}.cls-7{stroke-width:9px;}.cls-10,.cls-8{stroke-width:7px;}</style></defs><title>logo-blanc</title><g id="Calque_2" data-name="Calque 2"><g id="Calque_5" data-name="Calque 5"><path class="cls-1" d="M245.42,121.54c0,7.38.09,13.32,0,19.26-.17,8.81-5.06,14.38-12.43,14.39-7.57,0-12.92-5.87-12.94-14.71q-.11-48.34,0-96.67c0-8.72,5.53-14.6,13.13-14.51s12.26,5.53,12.31,14.45c.09,15.76,0,31.51,0,48.68,8.42-7.92,16.06-15,23.62-22.22,8.71-8.26,15.28-9.33,21.24-3.36,6.19,6.19,4.85,14-3.85,22.2-5.34,5.05-10.6,10.2-16.12,15-2.57,2.25-2.71,3.59-.06,6,7.92,7.07,15.55,14.36,23.33,21.6,6.57,6.14,7.27,13.24,1.94,19.26s-12.24,5.75-19.26-.71C266.36,141,256.49,131.79,245.42,121.54Z"/><path class="cls-1" d="M731.72,123c.35-6.55-.49-14.33.83-22.08A45.33,45.33,0,0,1,777.64,63c22.34.25,42.1,17.23,44.94,39,1.77,13.55.76,27.21.6,40.82-.08,7.49-5.49,12.31-12.36,12.31A12.66,12.66,0,0,1,798,142.67q0-.11,0-.22c-.27-11.45.08-22.92-.18-34.38-.23-9.66-8.26-18-17.89-19.16-10.13-1.22-18.7,4-21.66,13.43a26.78,26.78,0,0,0-.9,7.66c-.1,10.38,0,20.76-.07,31.1-.1,8.65-5.24,14.19-12.72,14s-12.67-5.82-12.83-14.14C731.63,135.41,731.72,129.79,731.72,123Z"/><path class="cls-1" d="M317,84.37c0-13.63-.06-27.26,0-40.89.06-8.48,4.78-14,11.81-14.19,7.78-.18,13.2,5.55,13.23,14.34.07,25.09.18,50.19-.08,75.28-.07,6.66,1.18,10.48,9,11,7.58.48,11.72,6.72,10.91,14.14-.77,7-5.8,11.2-13.43,11.16A31.12,31.12,0,0,1,317,124.6Z"/><path class="cls-1" d="M613,42.67a14,14,0,0,1-13.47,13.82c-7.2.12-13.53-6.4-13.43-13.79a13.9,13.9,0,0,1,13.2-13.43,13.35,13.35,0,0,1,13.7,13h0Z"/><path class="cls-1" d="M612,115.44c0,12.53.32,25.07-.08,37.59-.54,17.06-15.76,31.3-32.26,30.73-10.21-.35-16.1-10.94-10.86-19.5,2.06-3.36,5.15-5.08,8.89-5.9,8.61-1.89,9.28-2.73,9.28-11.63v-70c.3-8.12,5.29-13.58,12.55-13.66S612,68.32,612.06,76.53c.14,13,0,25.93,0,38.88Z"/><path class="cls-1" d="M566.1,44.25c.1-9.12-5-14.84-12.66-15-7.78-.13-12.72,5.75-12.78,15.4-.07,8.2,0,16.4,0,26.06a25.54,25.54,0,0,0-15.85-7.54c-25.49-2.83-48,15.63-51.39,42.1-3.06,24,15.49,47.36,40.5,50.9,24.45,3.44,48.52-14.34,51.3-39.45C567.91,92.71,565.88,68.43,566.1,44.25ZM519.45,131a21.08,21.08,0,1,1,.36,0Z"/><path class="cls-1" d="M688.1,64.6A46.88,46.88,0,0,0,635.6,86a46.29,46.29,0,0,0,5.89,55.24c13.85,15,38.17,19.93,55.34,11.18,7.83-4,10.6-10.51,7.39-17.53-3.32-7.34-9.83-9.19-18.55-5.29-10.42,4.67-20.12,2.12-28-8.19,17.78,0,34.64.07,51.45,0,9.25-.06,13.49-4.53,13.31-13.61C722,88.25,707.46,69.91,688.1,64.6ZM656.85,101c4.45-8.43,10.79-12.54,19.5-12.53,8.9,0,15.5,4.09,20,12.53Z"/><path class="cls-1" d="M461,123.76c-.21-6.23.43-14.22-.89-22.18-3.94-23.7-26.86-41.13-50.67-38.34-24.52,2.87-43.36,25.5-41.36,49.69,2.71,32.52,34.74,52,65.15,39.59,2.22-.9,3.87-2.09,6.16.4,3.75,4,8.6,4.66,13.66,2.42,5.33-2.35,7.73-6.73,7.87-12.34C461.1,137.17,461,131.33,461,123.76ZM415.41,131a21,21,0,0,1-1-42h.71A20.68,20.68,0,0,1,436,109.47v.4A20.7,20.7,0,0,1,415.77,131h-.37Z"/><path class="cls-2" d="M51.84,69.6a66,66,0,0,0-19.19,43.64c-1.6,37.15,28.24,68.49,66.67,70s70.89-27.36,72.5-64.49A65.78,65.78,0,0,0,152.73,69.6"/><rect class="cls-3" x="92.5" y="52.5" width="18" height="53"/><path class="cls-4" d="M73.1,78.5H129.9a9.42,9.42,0,0,1,9.6,9.25v55.5a9.42,9.42,0,0,1-9.6,9.25H73.1a9.42,9.42,0,0,1-9.6-9.25V87.75A9.42,9.42,0,0,1,73.1,78.5Z"/><path class="cls-5" d="M132.78,84.74a9.06,9.06,0,0,1,2.16,5.73c-.08,17.61,0,35.22-.08,52.83,0,1.58-.08,3.22-1.87,4-17.21,1.22-34.43.17-51.65.55-3.1.07-6.27-.55-9.32.54-2.46-.5-3.33-2.24-3.33-4.59q0-28.41.22-56.84c0-.76,1.09-1.58,1.68-2.38C91.32,83.77,112.05,83.37,132.78,84.74Z"/><path class="cls-6" d="M93.79,136.6c-2.08-1.65-1.25-4-1.38-6.12-.31-6,.5-11.88-2.31-17.88-1.71-3.67-1.24-9,3.1-11.7s9.19-4.95,14.31-1.19c4.24,3.06,7,7.59,5.05,12.3-2.53,6.21-2.18,12.35-2.23,18.61a9.44,9.44,0,0,1-1.41,5.57C103.88,137.48,98.83,136.69,93.79,136.6Z"/><path class="cls-1" d="M104.83,113c2.47-3.34,2.5-6.42.24-8.82-2.76-2.94-6.24-1.82-8.48.45-1.65,1.67-.8,5.87.8,8.38,2.66,4.07-.71,10.45-.49,15.12.06,1.64-.38,3.47.71,4.76,2.72.06,5.44.66,8.15-.33a10.36,10.36,0,0,0,.71-4.46C106.48,123,101.88,117,104.83,113Z"/><path class="cls-7" d="M27.64,4.5H54.38A9.85,9.85,0,0,1,64.5,14V43A9.85,9.85,0,0,1,54.38,52.5H27.64A9.86,9.86,0,0,1,17.5,43V14C17.5,8.77,22.05,4.5,27.64,4.5Z"/><path class="cls-7" d="M88.63,4.5h26.74A9.85,9.85,0,0,1,125.5,14V43a9.85,9.85,0,0,1-10.14,9.53H88.63A9.85,9.85,0,0,1,78.5,43V14A9.84,9.84,0,0,1,88.63,4.5Z"/><path class="cls-7" d="M148.63,4.5h26.73A9.85,9.85,0,0,1,185.5,14V43a9.85,9.85,0,0,1-10.13,9.53H148.63A9.85,9.85,0,0,1,138.5,43V14C138.48,8.77,143,4.5,148.63,4.5Z"/><path class="cls-8" d="M35,14.5H45a1.5,1.5,0,0,1,1.53,1.44V41.06A1.5,1.5,0,0,1,45,42.5H35a1.5,1.5,0,0,1-1.53-1.44V16A1.5,1.5,0,0,1,35,14.5Z"/><path class="cls-8" d="M96,13.5H106a1.5,1.5,0,0,1,1.53,1.44V40.06A1.5,1.5,0,0,1,106,41.5H96a1.5,1.5,0,0,1-1.53-1.44V15A1.5,1.5,0,0,1,96,13.54Z"/><path class="cls-8" d="M157,14.5H167a1.5,1.5,0,0,1,1.53,1.44V41.06A1.5,1.5,0,0,1,167,42.5H157a1.5,1.5,0,0,1-1.53-1.44V16A1.5,1.5,0,0,1,157,14.5Z"/><path class="cls-9" d="M4.11,25.5H197.89a1.6,1.6,0,0,1,1.61,1.6h0v4.8a1.6,1.6,0,0,1-1.6,1.61H4.11a1.6,1.6,0,0,1-1.61-1.6h0v-4.8A1.6,1.6,0,0,1,4.1,25.5h0Z"/><path class="cls-10" d="M35,14.5H45a1.5,1.5,0,0,1,1.53,1.44V41.06A1.5,1.5,0,0,1,45,42.5H35a1.5,1.5,0,0,1-1.53-1.44V16A1.5,1.5,0,0,1,35,14.5Z"/><path class="cls-10" d="M96,14.5H106a1.5,1.5,0,0,1,1.53,1.44V41.06A1.5,1.5,0,0,1,106,42.5H96a1.5,1.5,0,0,1-1.53-1.44V16A1.5,1.5,0,0,1,96,14.5Z"/><path class="cls-10" d="M157,14.5H167a1.5,1.5,0,0,1,1.53,1.44V41.06A1.5,1.5,0,0,1,167,42.5H157a1.5,1.5,0,0,1-1.53-1.44V16A1.5,1.5,0,0,1,157,14.5Z"/></g></g></svg>