<svg xmlns="http://www.w3.org/2000/svg" viewBox="0 0 1921 632"><defs><style>.cls-1{fill:#000120;stroke:#000;}.cls-1,.cls-3,.cls-5{stroke-miterlimit:10;}.cls-2{opacity:0.28;}.cls-3,.cls-5{fill:none;}.cls-3{stroke:#b3b3b3;stroke-width:0.75px;}.cls-4{fill:#f15a24;}.cls-5{stroke:#f15a24;stroke-width:4px;}</style></defs><title>myBg</title><g id="Calque_2" data-name="Calque 2"><g id="Calque_7" data-name="Calque 7"><polygon class="cls-1" points="0.5 266.5 117.5 150.5 167.5 222.5 221.5 158.5 533.5 208.5 703.5 66.5 815.5 158.5 1019.5 122.5 1129.5 180.5 1323.5 128.5 1385.5 262.5 1493.5 91.5 1607.5 108.5 1677.5 74.5 1739.5 230.5 1837.5 186.5 1920.5 310.5 1920.5 631.5 0.5 631.5 0.5 266.5"/><g class="cls-2"><path class="cls-3" d="M138.5,46.5"/><polyline class="cls-3" points="1.5 485.5 124.5 440.5 138.5 46.5 1.5 71.5"/><polygon class="cls-3" points="605.5 71.5 138.5 46.5 358.5 293.5 124.5 440.5 418 631.5 796.5 515.5 372.5 293.5 605.5 71.5"/><polyline class="cls-3" points="1920.5 426 1686.5 263.5 1266.5 85.5 1382.5 470.5 796.5 515.5 604.5 71.5 915.5 248.5 1397.5 470.5 1686.5 263.5 1911.5 130.5"/><polyline class="cls-3" points="915.5 248.5 796.5 515.5 1266.5 85.5"/><circle class="cls-4" cx="139" cy="47" r="14.5"/><circle class="cls-5" cx="139" cy="47" r="45"/><circle class="cls-4" cx="373" cy="294" r="14.5"/><circle class="cls-5" cx="373" cy="294" r="45"/><circle class="cls-4" cx="125" cy="441" r="14.5"/><circle class="cls-5" cx="125" cy="441" r="45"/><circle class="cls-4" cx="605" cy="71" r="14.5"/><circle class="cls-5" cx="605" cy="71" r="45"/><circle class="cls-4" cx="797" cy="516" r="14.5"/><circle class="cls-5" cx="797" cy="516" r="45"/><circle class="cls-4" cx="916" cy="249" r="14.5"/><circle class="cls-5" cx="916" cy="249" r="45"/><circle class="cls-4" cx="1267" cy="86" r="14.5"/><circle class="cls-5" cx="1267" cy="86" r="45"/><circle class="cls-4" cx="1383" cy="471" r="14.5"/><circle class="cls-5" cx="1383" cy="471" r="45"/><circle class="cls-4" cx="1687" cy="264" r="14.5"/><circle class="cls-5" cx="1687" cy="264" r="45"/></g></g></g></svg>