<svg xmlns="http://www.w3.org/2000/svg" viewBox="0 0 748.16 499.44"><defs><style>.cls-1{opacity:0.65;}.cls-2{fill:#4453e7;}.cls-3{fill:#62a8fd;}.cls-4{fill:#535cf7;}.cls-5{fill:#4b52f8;}.cls-6{fill:#474ff1;}.cls-7{fill:#4951f5;}.cls-8{fill:#4c52f8;}.cls-9{fill:#4d53fb;}.cls-10{fill:#4c52f9;}.cls-11{fill:#9099fb;}.cls-12{fill:#4950f4;}.cls-13{fill:#b0bdf8;}.cls-14{fill:#63a9fe;}.cls-15{fill:#fd64a6;}.cls-16{fill:#a1a3fa;}.cls-17{fill:#4a51f5;}.cls-18{fill:#4850f2;}.cls-19{fill:#3147c7;}.cls-20{fill:#e42b7b;}.cls-21{fill:#2945c0;}.cls-22{fill:#3e4fe0;}.cls-23{fill:#354cd2;}.cls-24{fill:#4d54f8;}.cls-25{fill:#4753ef;}.cls-26{fill:#414fe2;}.cls-27{fill:#4d55f6;}.cls-28{fill:#384cd3;}.cls-29{fill:#5f67f8;}.cls-30{fill:#949ff5;}.cls-31{fill:#8cc0fd;}.cls-32{fill:#2987f9;}.cls-33{fill:#4251e7;}.cls-34{fill:#5154f3;}.cls-35{fill:#4a51f6;}.cls-36{fill:#8dc1fe;}.cls-37{fill:#4451e9;}.cls-38{fill:#565afa;}.cls-39{fill:#4b53f7;}.cls-40{fill:#374cd4;}.cls-41{fill:#384cd5;}.cls-42{fill:#2d47c5;}.cls-43{fill:#2643bb;}.cls-44{fill:#2f48c7;}.cls-45{fill:#424de9;}.cls-46{fill:#b2004d;}.cls-47{fill:#c8dcfd;}.cls-48{fill:#394dda;}.cls-49{fill:#3e50e1;}.cls-50{fill:#5f65fd;}.cls-51{fill:#4e54fc;}.cls-52{fill:#4e54fb;}.cls-53{fill:#949dfe;}.cls-54{fill:#2a8afb;}.cls-55{fill:#b0014f;}.cls-56{fill:#b2014e;}.cls-57{fill:#9ea3fb;}.cls-58{fill:#8887f8;}.cls-59{fill:#5d63fe;}.cls-60{fill:#bfa8e7;}.cls-61{fill:#776ff4;}.cls-62{fill:#525af5;}.cls-63{fill:#4c5afe;}.cls-64{fill:#3e4ede;}.cls-65{fill:#f4f7fe;}.cls-66{fill:#2c44bf;}.cls-67{fill:#4c54f6;}.cls-68{fill:#a1aff1;}.cls-69{fill:#4951f4;}.cls-70{fill:#7780fc;}.cls-71{fill:#4151e6;}.cls-72{fill:#3148c6;}.cls-73{fill:#384ed7;}.cls-74{fill:#4e53fb;}.cls-75{fill:#8d8ef9;}.cls-76{fill:#bbc3fc;}.cls-77{fill:#89acf4;}.cls-78{fill:#bdc6fd;}.cls-79{fill:#e32b7a;}.cls-80{fill:#a9c4fb;}.cls-81{fill:#4b52f7;}.cls-82{fill:#354ace;}.cls-83{fill:#3244bf;}.cls-84{fill:#3249ca;}.cls-85{fill:#ecf1fe;}.cls-86{fill:#aac4fb;}.cls-87{fill:#cdddfd;}.cls-88{fill:#9dc4fc;}.cls-89{fill:#04f3cf;}.cls-90{fill:#e6eefc;}.cls-91{fill:#bfd3fb;}.cls-92{fill:#c7d9fd;}.cls-93{fill:#85aaf3;}.cls-94{fill:#8ba8e3;}.cls-95{fill:#ccddfd;}.cls-96{fill:#acc6fb;}.cls-97{fill:#fdfdfd;}.cls-98{fill:#c0d4fc;}.cls-99{fill:#b7cdfc;}.cls-100{fill:#b1c9fb;}.cls-101{fill:#9da8fb;}.cls-102{fill:#fef7c6;}.cls-103{fill:#aac9fa;}.cls-104{fill:#d1e0fd;}.cls-105{fill:#c2d5fb;}.cls-106{fill:#d9e5fd;}.cls-107{fill:#bbd0f7;}.cls-108{fill:#dce7fd;}.cls-109{fill:#4a52f6;}.cls-110{fill:#364ed6;}.cls-111{fill:#2b48c5;}.cls-112{fill:#e52b7b;}.cls-113{fill:#c9ddfd;}.cls-114{fill:#adb5fd;}.cls-115{fill:#5652ec;}.cls-116{fill:#4352ea;}.cls-117{fill:#7c7ff9;}.cls-118{fill:#c0b3ee;}.cls-119{fill:#60a5fa;}.cls-120{fill:#4750f3;}.cls-121{fill:#4d53fa;}.cls-122{fill:#334dd1;}.cls-123{fill:#2c49c7;}.cls-124{fill:#4351e9;}.cls-125{fill:#334bcf;}.cls-126{fill:#2946c1;}.cls-127{fill:#3d50df;}.cls-128{fill:#6870f9;}.cls-129{fill:#4151e7;}.cls-130{fill:#4851f4;}.cls-131{fill:#4c53f9;}.cls-132{fill:#4f54f4;}.cls-133{fill:#394fd9;}.cls-134{fill:#b7c2fe;}.cls-135{fill:#324cd0;}.cls-136{fill:#4750f1;}.cls-137{fill:#3b50dd;}.cls-138{fill:#2947c3;}.cls-139{fill:#2243bb;}.cls-140{fill:#545df4;}.cls-141{fill:#5f64f8;}.cls-142{fill:#fcca00;}.cls-143{fill:#afc3ef;}.cls-144{fill:#01a68a;}.cls-145{fill:#5483e2;}.cls-146{fill:#738dc5;}.cls-147{fill:#93b0eb;}.cls-148{fill:#afc3ee;}.cls-149{fill:#c9defd;}.cls-150{fill:#c09a01;}.cls-151{fill:#b0c3ef;}.cls-152{fill:#fef0ae;}.cls-153{fill:#fd8d07;}.cls-154{fill:#feb104;}.cls-155{fill:#94b0eb;}.cls-156{fill:#fea603;}.cls-157{fill:#97b8f2;}.cls-158{fill:#9bbff8;}.cls-159{fill:#fe9a05;}.cls-160{fill:#748fc6;}.cls-161{fill:#94b1eb;}.cls-162{fill:#748fc7;}.cls-163{fill:#94b0ea;}.cls-164{fill:#7590c7;}.cls-165{fill:#8daff3;}.cls-166{fill:#a7c3f9;}.cls-167{fill:#737bfc;}.cls-168{fill:#fde06f;}.cls-169{fill:#bcbcbf;}.cls-170{fill:#d2d3d5;}.cls-171{fill:#2647be;}.cls-172{fill:#4550ee;}.cls-173{fill:#b1004d;}.cls-174{fill:#f5efbc;}.cls-175{fill:#4054ea;}.cls-176{fill:#4354ed;}.cls-177{fill:#1845bd;}.cls-178{fill:#4852f5;}.cls-179{fill:#5961fb;}.cls-180{fill:#294dce;}.cls-181{fill:#3652dc;}.cls-182{fill:#3851dd;}.cls-183{fill:#fdf6c6;}.cls-184{fill:#584ce3;}.cls-185{fill:#2c4ccc;}.cls-186{fill:#1f44bc;}.cls-187{fill:#4454ee;}.cls-188{fill:#3c52e2;}.cls-189{fill:#3650d9;}.cls-190{fill:#9095fa;}.cls-191{fill:#4e56f8;}.cls-192{fill:#676efd;}.cls-193{fill:#f6fefd;}.cls-194{fill:#f1ecb9;}.cls-195{fill:#324fd4;}.cls-196{fill:#feef7c;}.cls-197{fill:#4a54f4;}.cls-198{fill:#3a50db;}.cls-199{fill:#2847c3;}.cls-200{fill:#304bcd;}.cls-201{fill:#6268fd;}.cls-202{fill:#9d9ff9;}.cls-203{fill:#b9baf7;}.cls-204{fill:#3f51e5;}.cls-205{fill:#2e4bcc;}.cls-206{fill:#2245bd;}.cls-207{fill:#3850da;}.cls-208{fill:#c3d8fb;}.cls-209{fill:#fb65a7;}.cls-210{fill:#aab4fe;}.cls-211{fill:#b9b9bf;}.cls-212{fill:#b50752;}.cls-213{fill:#4e55f9;}.cls-214{fill:#4b53f6;}.cls-215{fill:#4352e9;}.cls-216{fill:#3a50dc;}.cls-217{fill:#5c63fb;}.cls-218{fill:#2a8bfc;}.cls-219{fill:#515cfe;}.cls-220{fill:#9d9ea0;}.cls-221{fill:#917400;}.cls-222{fill:#e3b603;}.cls-223{fill:#fcde6b;}.cls-224{fill:#fdbd0f;}.cls-225{fill:#fee100;}.cls-226{fill:#fef0b2;}.cls-227{fill:#fefdf6;}.cls-228{fill:#feefa0;}.cls-229{fill:#fef5bc;}.cls-230{fill:#fef1a6;}.cls-231{fill:#d4b641;}.cls-232{fill:#fc64a6;}.cls-233{fill:#6381cf;}.cls-234{fill:#2a4ac8;}.cls-235{fill:#fbf3c1;}.cls-236{fill:#4b54f3;}.cls-237{fill:#c0c3f9;}.cls-238{fill:#e87d02;}.cls-239{fill:#fb64a6;}.cls-240{fill:#3550d8;}.cls-241{fill:#2648c5;}.cls-242{fill:#f7f3f8;}.cls-243{fill:#3e54d9;}.cls-244{fill:#5d64fc;}.cls-245{fill:#fec102;}.cls-246{fill:#e32f7b;}.cls-247{fill:#ce7301;}.cls-248{fill:#da7b01;}.cls-249{fill:#d87a00;}.cls-250{fill:#fef09f;}.cls-251{fill:#a4adfe;}.cls-252{fill:#2649c5;}.cls-253{fill:#3b52e0;}.cls-254{fill:#4354ec;}.cls-255{fill:#314ed3;}.cls-256{fill:#fe9317;}.cls-257{fill:#4954f4;}.cls-258{fill:#3f52e6;}</style></defs><title>Fichier 2</title><g id="Calque_2" data-name="Calque 2"><g id="Calque_2-2" data-name="Calque 2"><g class="cls-1"><path class="cls-2" d="M725,223a3.49,3.49,0,0,0,1.56.13c4,1.81,3.61,5.43,3.62,8.86,0,8.6-.13,17.21.1,25.81.06,2.43-1.59,6.14,3.08,6.62l7.21-3.27c4.45-.91,6.21,2,7.3,5.44s-1.53,5.1-4.06,6.58L727,282.41c-2.63-1.08-2.78-4.29-5-5.75a9.14,9.14,0,0,1-2.68-4.95c-.71-15.56,0-31.13-.45-46.69C720,221.54,722.19,221.34,725,223Z"/><path class="cls-3" d="M129.89,84.6a9.86,9.86,0,0,1,1.42.13c0,2.56-.3,5.18.09,7.68,1.43,9.15-1.35,15.95-10.26,19.62-1.89,4.72-4.91,6.34-9.56,3.48-3.65-6.16-1.5-12.66-1.1-19.06A25.73,25.73,0,0,1,129.89,84.6Z"/><path class="cls-4" d="M192.14,354.67l6.89-2.21c3.87,3.49,2.91,7.8,2.06,12.09-2.43,4.74-5.41,8.33-11.47,5.42-3-4.71-2.1-9.21.76-13.6Z"/><path class="cls-5" d="M157.53,292.42c2.92,1.47,6.62,2.47,5.66,6.91-.89,4.08-4.44,3.38-7.4,3.57C149.29,298.22,153.24,295.29,157.53,292.42Z"/><path class="cls-6" d="M161.23,69a10.24,10.24,0,0,1-2.15,6.36c-3.1.52-6.25,1.37-7.62-2.89a4.82,4.82,0,0,1,1.94-5.95C156.8,64.34,159.21,66.32,161.23,69Z"/><path class="cls-5" d="M174.83,65.82c-3.22.23-5.35-1.31-6.71-4.11l1.51-4.76,6.44-1.54C181.8,60.64,181.59,62.34,174.83,65.82Z"/><path class="cls-7" d="M133.29,83c-.25-3.85,1.21-6.48,5.21-7.3,3.75,1.21,6.5,3.27,4,7.47C139.6,88,136.32,85.37,133.29,83Z"/><path class="cls-8" d="M126.63,281.92c-2.87,1.18-5.59,1.57-7.55-1.55s.17-5.33,2.1-7.48C127.64,273.09,129.59,276,126.63,281.92Z"/><path class="cls-9" d="M135.46,290.12c.52-4,1.62-7.45,6.75-6.34a3.87,3.87,0,0,1,3,5.21c-2.31,6.45-6.16,3.73-9.8,1.19Z"/><path class="cls-10" d="M134.75,194.19v.6c-2,3.08-4.41,5.57-8.42,3.42-2.07-1.11-2-3.31-1.61-5.36a4,4,0,0,1,3.55-3.27C132,188.85,133,192.11,134.75,194.19Z"/><path class="cls-11" d="M190.38,356.38l.14,13.88c-.71,3.46-2.93,3.09-5.39,2.13-3.4-3.69-2.26-8-1.62-12.22Z"/><path class="cls-12" d="M110.82,209.29c-1.35-2.35-3.79-4.12-3.84-7.16.76-3,3.21-3,5.56-3.26C117.09,203.19,118.93,207.06,110.82,209.29Z"/><path class="cls-13" d="M183.51,360.18c2.42,3.59,1.53,7.66,1.66,11.58a1.28,1.28,0,0,1-1.69.5l-3.71-3.89C180.19,365.26,180,361.86,183.51,360.18Z"/><path class="cls-14" d="M258.17,479.1l-.5,3.39-3.46,2.91c-4.58,1.5-8.43,4.23-12.19,7.14-5,7.47-7.49,8.34-14.77,5.14a48.55,48.55,0,0,1,.15-30c8.35-8.75,18.82-14.11,29.92-18.45,2.52,1.39,2.9,3.81,3.05,6.35.06,5.06,1.84,10.38-2.21,14.83Q258.17,474.78,258.17,479.1Z"/><path class="cls-15" d="M59,219.78c3.62-2,3.27-5.7,3.32-9.22,4.41-.18,6.75,3.43,10.24,4.27l6.12,3.9c2.41.77,5.24,1.1,5,4.71C76.74,231.9,66.93,235.81,57.3,240c-10.74-3.17-20.36-8.29-28.23-16.41-.43-2.12.57-3.26,2.57-3.69l18.46-10.4C54.57,211.64,52.72,219.27,59,219.78Z"/><path class="cls-16" d="M59,219.78c-9.42,2.2-7.81-5.23-8.94-10.26,1.43-11.6-1.74-23.45,1.89-34.94,5.2-.52,5.16,3,5.15,6.59,0,9.94-.08,19.88,0,29.81C57.2,214,56.22,217.32,59,219.78Z"/><path class="cls-17" d="M69.29,115.52c5.69,6.38,5,8.41-3.47,10.82C62.09,121.17,62,117.18,69.29,115.52Z"/><path class="cls-8" d="M32.77,146.11c-2.82-.71-4.76-2.28-4.59-5.26s2.18-4.54,5.15-4.34,4.81,1.92,4.52,5C37.58,144.35,35.62,145.87,32.77,146.11Z"/><path class="cls-18" d="M50.43,126.17c3.23.43,5,2,4.93,5,0,3.21-2.48,4.57-5,4.64a4.44,4.44,0,0,1-4.63-5A4.71,4.71,0,0,1,50.43,126.17Z"/><path class="cls-19" d="M20.79,212.86c-.48,4.05,1.57,8.5-1.91,12.08-2.21,1.1-3.47.18-4.17-2,.53-4-1-8.47,2.63-11.78A15.46,15.46,0,0,1,19,211Z"/><path class="cls-20" d="M725.16,275.48c2.3,1.87.78,4.73,1.81,6.93l-.34,18.21-.72.81-1.08.19a10.14,10.14,0,0,1-4.09-1.38,15.08,15.08,0,0,0-3.69-1.83,14.32,14.32,0,0,0-3.91.21,2.69,2.69,0,0,0-1.48,3,5.29,5.29,0,0,0,2,3.07l2.44,1.91a8.4,8.4,0,0,1,3,3.38,5.84,5.84,0,0,1,.06,2.45c-1.13,3.12-3.74,4.64-6.44,6.1-4.92,1.35-9.14,7.31-15,2.32-3.1-9.44-1.49-19.15-1.59-28.76C703.94,283.4,714,278.43,725.16,275.48Z"/><path class="cls-21" d="M744,311.33c0,4.29-1.26,8-5.18,10.33-3,1.17-4.83-.06-5.74-3,1.6-3.76,3.31-7.43,7.47-9.1Z"/><path class="cls-22" d="M731.91,304.51l3.45,1.79c3.31,5.4.44,8.64-3.95,11.36-3,.8-5.28,0-6.77-2.8a3.87,3.87,0,0,1,.08-2.46C727.19,309.84,728.73,306.43,731.91,304.51Z"/><path class="cls-23" d="M730.09,316.53c3.94-2.29,5.23-5.94,5.27-10.23l5.22,3.28c-2.12,3.14-2.25,7.89-7.12,8.8C731.51,319.25,730.15,319.08,730.09,316.53Z"/><path class="cls-24" d="M725.11,300.81a8.08,8.08,0,0,0,1.52-.19l1.85,2c2.54,4.67-.8,7.35-3.48,10.26l-.15.64c-2.15.82-3.57-.05-4.53-2C719.55,306.91,721,303.26,725.11,300.81Z"/><path class="cls-25" d="M725,312.88l3.48-10.26,3.43,1.88C730.94,308.4,730.21,312.48,725,312.88Z"/><path class="cls-26" d="M8.68,206l5.23,3.19c2.3,4,2.58,8.14.26,12.29-2.37,1.52-4.56.88-6.68-.55A4.41,4.41,0,0,1,6,218.68C6.41,214.38,5,209.69,8.68,206Z"/><path class="cls-27" d="M8.68,206c-.15,4.44,1,9-1.58,13.2-3.14,1.46-3.7-.91-4.45-3-1.23-2.89-.62-6-1-9C3.6,204.78,6.12,205.31,8.68,206Z"/><path class="cls-28" d="M12.2,221.3c3.15-3.66,1.17-8,1.71-12.07l3.43,2c-.5,4,1.54,8.39-1.87,11.92C13.54,224,12,224.15,12.2,221.3Z"/><path class="cls-29" d="M1.61,207.28c2.91,2.49,1.65,5.87,1.9,8.93-.47.77-1,.82-1.7.24C-1.07,214,.4,210.68.18,207.7Z"/><path class="cls-30" d="M7.16,257.7l3.3-.43a2.52,2.52,0,0,1,2.77.91c2.45,4.12,2,8-1,11.7-1.87,2.34-4.54,1.75-7,1.91C-1.62,266.08,1.79,261.76,7.16,257.7Z"/><path class="cls-31" d="M129.89,84.6a99.61,99.61,0,0,1-17.44,10.49c-8.64-.32-16-5.11-16.7-10.94,5.54-4.38,10.84-9.23,18.45-9.66l5.27,3a2.81,2.81,0,0,0,1.6.59Z"/><path class="cls-32" d="M95.75,84.15c4.55,5.2,11.24,7.13,16.7,10.94q0,10.25.09,20.5c-3.75-.15-6.17-4.26-10.25-3.45C93.51,105.8,91.08,95.41,95.75,84.15Z"/><path class="cls-33" d="M90,210.47a6.85,6.85,0,0,0,1.38.1c4.72,3,3.06,8,3.73,12.29L90,226.22c-3.46-2.46-6-5.55-6.82-9.85Z"/><path class="cls-17" d="M83.41,115.65c-3-3.95-3.34-7.52,1.45-10.38,3.62.45,6,2.69,5.63,6.11C90.06,115,86.88,116,83.41,115.65Z"/><path class="cls-34" d="M83.18,216.38c3.48,2.45,6.41,5.27,6.82,9.85l-4.95,3.62c-2.81-1.7-2.21-4.33-1.85-6.88l-4.48-4.24Q81,217.56,83.18,216.38Z"/><path class="cls-35" d="M726.68,172.62c-2.86-.22-6.42,1.87-8.16-2.09a5.75,5.75,0,0,1,.44-5.69c2.25-3.07,5.14-.89,7.79-.63A7,7,0,0,1,726.68,172.62Z"/><path class="cls-36" d="M202.5,451.36c3.28-4,7.9-6.11,12.12-8.81,10.62-9.44,20.72-7.49,31,.88,2.44,2,5,4.84,8.87,4.55a1.86,1.86,0,0,1,1.62,1.86c-7,8.44-17.86,10.91-26.16,17.31A41.47,41.47,0,0,1,202.5,451.36Z"/><path class="cls-20" d="M83.2,223c2.36,1.83.8,4.71,1.85,6.88l-.39,17.68a4.28,4.28,0,0,1-3.18.95c-3-.51-5.19-2.72-8-3.49-3.89.55-5.52,2.12-2.63,5.74,2.18,2.08,4.87,3.56,6.89,5.83a3.4,3.4,0,0,1,.46,3.46c-2,3-5.33,4.28-8.32,6-4.2,2-8.19,5.54-13.24,2-3.93-9.81-4.7-19.57.41-29.24Z"/><path class="cls-37" d="M85,248.73l6.7,3.88c3.14,5.54.78,9-4.33,11.37a6.45,6.45,0,0,1-6.77-3.4C79.81,255.79,83.07,252.5,85,248.73Z"/><path class="cls-38" d="M85,248.73c2.11,4.78-2.17,7.41-3.68,11-1.48.69-2.78.7-3.61-1L76,257c-2.08-5.55-.58-9.09,5.59-10.05l3.05.53A5.74,5.74,0,0,1,85,248.73Z"/><path class="cls-39" d="M256.12,449.84,254.5,448c.77-2.52,2.7-3.47,5.1-3.78,4.39.37,5.53,3.31,5.62,7.09.25,2.88-1.62,3.44-3.9,3.54l-3.33-.08C257.63,453,258.3,450.88,256.12,449.84Z"/><path class="cls-40" d="M86.57,262.84c3.87-2.33,5.15-6,5.16-10.23L97,255.89c2.55,6.5-.68,9-6.64,9.58C88.23,265.81,86.46,265.67,86.57,262.84Z"/><path class="cls-41" d="M95.15,222.85c-3.72-3.34-3.88-7.77-3.73-12.29l3.78-1.18c2.87,3.5,6.49,6.78,3.55,12A3.47,3.47,0,0,1,95.15,222.85Z"/><path class="cls-42" d="M98.75,221.39c-.35-4.25-4-7.53-3.55-12l1.82-.15c5.63,1.49,6.55,5.32,5.14,10.32Z"/><path class="cls-43" d="M102.16,219.55A19.61,19.61,0,0,0,97,209.23l3.4-1.79a19.34,19.34,0,0,1,5.18,10.35Z"/><path class="cls-44" d="M100.42,257.69c-1,4.05-2.78,7.5-7.17,8.8l-3.16-.3a.94.94,0,0,1-.53-.94q.09-.56.26-.56C95,264,96.09,260,97,255.89Z"/><path class="cls-45" d="M104.16,273c1.21-3,5-4.58,4.93-8.36C112.86,270.63,108.8,272,104.16,273Z"/><path class="cls-46" d="M205.69,333.76l.6-10.09c.77-1,1.91-1.63,3-1.14,9.78,4.51,20,8.46,26.47,17.84,1.56,9.42,2.06,18.83-.33,28.2-7.41,5.28-11.24-.37-15.38-5.05l-7.45-5.24a2.84,2.84,0,0,1,.15-2.43c1.23-2.87,7-4.11,4.17-8.08-2.15-3-5.76.8-8.8.64a2.85,2.85,0,0,1-2.06-1.06Z"/><path class="cls-47" d="M228.65,274.88q-26-15-52.12-30c-2.12-1.22-3.92-3.54-6.89-2.7-6.61-5.94-14.71-9.52-22.12-14.21-6.11-3.87-6.11-7.33-.38-12,3.65-1.33,7.21-2.78,8.39-7.05a5.29,5.29,0,0,1,2.47,3.31c.31,3.14.63,6.29,1,9.43.32,5.37,4.94,6.67,8.53,8.73,19.91,11.44,39.64,23.2,59.67,34.45,1.75,1,3.37,2.2,5,3.34,1.82,1.27,4.4,2.7,2.9,5.39C233.76,275.93,231.38,277.09,228.65,274.88Z"/><path class="cls-48" d="M188.57,307.85c3.8,2.53,7.68,5,11.39,7.62,5.64,4,5.92,9.61.9,14.53-4.79-4-11.28-5.28-15.69-9.88-3.09-4-3.69-8-.1-12.07Z"/><path class="cls-49" d="M206,347.35l1.73.24c3.72,4.06,3.16,8.08-.09,12.08-2.94,1.65-4.7,5.13-8.48,5.49q-.08-6.35-.17-12.69Z"/><path class="cls-50" d="M185.08,308.06q0,6,.1,12.07c-4.52-.39-6.23-4.17-8.6-7.14-1.34-3.59.1-5.8,3.5-7Z"/><path class="cls-51" d="M143.68,179.44c3.38.19,7.58-.38,7.57,4.67s-4.15,4.53-7.57,4.66Q139.75,184.11,143.68,179.44Z"/><path class="cls-52" d="M180.08,306l-3.5,7c-4.64-.22-6.5-3.13-4.57-6.85S177.29,301.94,180.08,306Z"/><path class="cls-15" d="M705.93,262.52c3.85,2.18,6.78,6.35,12,5.55,2.46.86,2,3.85,3.76,5.21l3.46,2.2c-9,5.56-17.5,12.16-27.9,15.2-11.18-.87-19.26-7.22-26.52-15,.4-3.93,3.71-5.43,6.3-7.54,2-1.41,4.1-2.78,6.15-4.16,9.13-4.3,9.95-4,14.16,4.46,2.33,1.54,3.51.36,4.33-1.79S702.92,262.23,705.93,262.52Z"/><path class="cls-53" d="M721.7,273.28c-2.43-.89-3.27-2.93-3.76-5.21.08-11.5.07-23,.29-34.49.06-3-1.12-6.37,1.66-8.92,3.36,3.38,1.77,7.65,1.82,11.5C721.89,248.53,721.73,260.9,721.7,273.28Z"/><path class="cls-54" d="M202.5,451.36,230,467.15c-2.82,10.11-.82,20.43-1.31,30.65-4.27-.11-6.83-3.81-10.57-5a7.92,7.92,0,0,0-3.29-.92c-14.44-1-22.4-15.56-13.79-31.76C201.8,457.21,200.39,454,202.5,451.36Z"/><path class="cls-55" d="M57,238.77c1.33,9.86-2.36,20.09,2.14,29.72-1.83,4.36-5.08,2.78-7.92,1.66-3.48-1.38-6.54-3.63-9.91-5.28-2.84-1.78-6.21-2.95-7.6-6.44a5.46,5.46,0,0,1,.13-2.44c1.4-2.46,3.91-3.75,5.93-5.55,1.19-1.13,2.31-2.25.07-3.47a9.48,9.48,0,0,0-7.09.63,7.3,7.3,0,0,1-5,.17,5.82,5.82,0,0,1-1.81-2.18c-1.57-5.46-2.21-10.8,1.79-15.61.8-2.34-.43-5.13,1.61-7.19Z"/><path class="cls-56" d="M671.22,275.58l26,15.1c3.65,10.31.79,21,1.82,31.46-1.84,3.49-4.31,1.33-6.25.4-3.25-1.55-6.45-3.21-9.75-4.66-2.44-1.6-5.07-3-5.74-6.26-.05-2.26,1.34-3.75,2.79-5.2,1.38-1.87,5.79-3.29.87-6.06-1.92-.06-3.66.71-5.47,1.18-2.76.76-5.39,1-7.29-1.77-2.69-6.82-2-13.79-.94-20.78C668.13,277.29,668.08,274.58,671.22,275.58Z"/><path class="cls-57" d="M712.46,306.44a4.11,4.11,0,0,1-3.39-3.55,14.22,14.22,0,0,1,3.94-7.32,6.6,6.6,0,0,1,5.11.8C720.61,302.19,718.41,305.36,712.46,306.44Z"/><path class="cls-58" d="M712.46,306.44c2.81-2.84,5.63-5.67,5.66-10.06l3.64,2.4c1.24,1.91.53,3.7-.31,5.49a8.76,8.76,0,0,1-1.36,1.92c-1.55,1.24-3.15,2.36-5.31,1.65Z"/><path class="cls-59" d="M721.43,311.65l-2.89-.21a3.61,3.61,0,0,1-.59-1.61c-1.12-2.41,1-3.7,1.85-5.46l0-.05c1.53-1.54,2.09-4.49,5.28-3.61v.1Z"/><path class="cls-60" d="M713,295.57c-.47,2.9-1.44,5.52-3.94,7.31C707.4,298.84,708.69,296.39,713,295.57Z"/><path class="cls-61" d="M725.12,300.71l-5.28,3.61,1.92-5.55Z"/><path class="cls-61" d="M719.8,304.37,718,309.83l-3.17-2Z"/><path class="cls-62" d="M12.15,257.06c2.25-2.64,5.37-3.75,8.51-4.83,7.05,3,4.64,7.43,1.8,11.92l-3.34,2.36-6.84,3.36Z"/><path class="cls-63" d="M107.25,100.34c-.09,2.46-1.06,4.52-3.9,4.34-1.94-.13-4-1.12-4.18-3.51-.2-2.77,1.62-4.11,4.16-4.32C105.64,96.66,107.11,97.76,107.25,100.34Z"/><path class="cls-64" d="M27.75,261.07q-.23.77-.49,1.54l-4.81,1.56c-.36-4,1.53-8.36-1.8-11.92L26,249C33,252.11,30,256.64,27.75,261.07Z"/><path class="cls-65" d="M155.88,212l-.33-3.12.41-2.72a12.71,12.71,0,0,1,2.54-4.07c5-3.34,9.44-7.45,15.28-9.34,7.23-3.59,13.44-8.94,20.89-12.17,8.88-5.33,18-10.24,26.94-15.46,2.75-1.61,5.58-3.06,9-2.38,7,8.43,13.09,17.33,13.14,29-4.4,7.57-13.08,9.17-19.47,14-8.9,4.74-17.76,9.55-26,15.43-5.25,2.73-6.32,5.21-.27,8.66,8.23,4.7,16.42,9.49,24.68,14.16,30.5,17.66,61.13,35.09,91.56,52.87,7.51,4.14,14.84,8.62,22.35,12.77,11.48,7.13,23.46,13.4,35.05,20.34,13.32,7.93,27,15.23,40.25,23.27,4.8,2.91,8.84,2.57,13.59-.17,13.42-7.75,26.58-16,40.28-23.22,7.66-4.39,15-9.27,23-13.13,3.13-1.64,6.08-3.59,9.12-5.38,4.17-2.26,8.11-4.93,12.31-7.14C528.53,293,547.4,282.65,566,271.84c1.1.06-.16-1.68.18-.57.15.49-.09.78-.61.59-19.42-7.28-35.84-20.07-54.11-29.45-4.64-3-9.69-5.38-14.35-8.38-3.82-1.83-6.91-5.2-11.52-5.31a10.81,10.81,0,0,1-4.28-2.22,354.7,354.7,0,0,0-35.87-22.25c-2.4-1.31-5.06-.91-7.57-1.45a6.08,6.08,0,0,1-2.28-2.73c-.63-1.9-2.09-3.44-2.41-5.48q-.21-4.44,4.14-5.35c9.39,2.21,16.66,8.58,25,12.78,2.71,1.63,5.25,3.54,8,5.12,5.62,2.06,10.38,5.65,15.49,8.64,9.08,5.26,18,10.84,27.18,15.89,13.07,7.65,26.28,15,39.52,22.39,8.69,5.37,17.49,10.57,26.45,15.49,6.93,4.52,14.77,7.6,21.06,13.17a8.22,8.22,0,0,1,2,6.07c-1,5-4.84,7.6-8.85,9.89-19.13,10.94-38,22.41-57.22,33.11-4.92,2.63-9.87,5.2-14.2,8.8a16.08,16.08,0,0,1-4.38,2.43c-18.14,9.9-36,20.32-53.86,30.68-7,4-13.93,6.67-22,5.74-3.52-.36-6.38-2.32-9.39-3.91-6.73-3.72-13.24-7.83-19.87-11.73-5.42-2.66-10.33-6.26-15.89-8.67-49.67-29.17-99.71-57.71-149.53-86.62-27.4-15.91-54.94-31.58-82.32-47.52C160.71,218.76,157.12,216.55,155.88,212Z"/><path class="cls-5" d="M710.62,160.56l-1.25,1.71c-2.75,3.1-5.81,3.62-8.8.57a6.22,6.22,0,0,1-.87-7.89c2-3.36,4.9-3.44,8-1.47l3.44,3.86Z"/><path class="cls-46" d="M427.53,477.08c-5.89-.49-9.37-6.81-15.62-6.43-2.12-2-5.57-2.17-7-5.07a4.27,4.27,0,0,1,1.19-3c1.62-1.42,3.5-2.58,4.78-4.39,1.57-1.58,1.84-3.09-.2-4.48-2.33-1.54-3.94.46-5.8,1.22a6.3,6.3,0,0,1-4.93.45,3,3,0,0,1-1-2.47c1.53-7.17-3.35-14.17-.55-21.36a3.53,3.53,0,0,1,4.51-1.49c9.76,4.55,20.35,7.9,26.7,17.65C430.77,457.63,432.89,467.62,427.53,477.08Z"/><path class="cls-66" d="M207.68,359.67q0-6,.09-12.08c1.65-1.11,3.23-2.33,5-3.3,3.1-1.75,6.33-1.88,8.28,1.43,2.11,3.57.69,6.54-2.8,8.66-1.95,1.18-3.75,2.59-5.62,3.9Z"/><path class="cls-67" d="M385.82,463.18l5.25-3.14c7.08,3.08,3.92,7.63,1.74,12-2.11,1.52-4,3.47-6.75,3.85C381.89,471.76,382.87,467.49,385.82,463.18Z"/><path class="cls-68" d="M380.59,478.89c-3.48,1-6.45.11-7.27-3.52-1-4.63,1.24-7.88,5.67-9.58C385.32,469.45,383.66,474.08,380.59,478.89Z"/><path class="cls-69" d="M290.43,428.93c1.1-3.9,3.29-6.46,7.42-4,4.8,2.84,2.33,6.17-.15,9.21C293.88,434.34,291.14,433,290.43,428.93Z"/><path class="cls-35" d="M282.78,439.21c-.64,3-2.18,5-5.14,4.84s-4.45-2.25-4.25-5.21,1.84-4.77,4.91-4.51S282.67,436.49,282.78,439.21Z"/><path class="cls-70" d="M380.59,478.89c-.14-4.42,1.08-9-1.6-13.1l1.73-.82,5.1-1.79q.12,6.38.25,12.75C384.47,477.35,382.87,478.75,380.59,478.89Z"/><path class="cls-71" d="M392.81,472.08c-.54-4,1.46-8.41-1.74-12a11.18,11.18,0,0,1,6.88-3.69c3.62,4,3,8.11,0,12.17Z"/><path class="cls-72" d="M406.74,463.65l-1.87,1.93L401.5,467c-2.67-4.17-2.26-8.38-.13-12.6l3-1.7C411.32,455,409,459.35,406.74,463.65Z"/><path class="cls-73" d="M401.36,454.41l.13,12.6a3.45,3.45,0,0,1-3.51,1.51q0-6.09,0-12.17a4.71,4.71,0,0,1,.21-1.29q.58-1.78,1.91-.47A4.09,4.09,0,0,1,401.36,454.41Z"/><path class="cls-74" d="M188.38,449.69c.68-5.7,4.94-5.25,9-5.2,3.07,4.06,2.4,7.48-1.75,10.31C192.71,453.77,190,452.52,188.38,449.69Z"/><path class="cls-75" d="M81.61,247C78.94,249.9,76.27,252.8,76,257l-6.82-4.39c-1.22-4.89,1.74-7.55,5.28-9.92Z"/><path class="cls-76" d="M74.47,242.74c-.64,3.9-3.44,6.65-5.28,9.92C64.53,245.65,65.76,243.34,74.47,242.74Z"/><path class="cls-77" d="M228.65,274.88c2-.32,4-.72,5.53-3-22.42-13-44.83-25.83-67.09-38.93-4.24-2.49-10.05-3.52-11.17-9.73,3.46-1.8,6.1.42,8.75,1.95Q280.77,292.3,397,359.29a167.06,167.06,0,0,0,15.79,9.17c6,4.74,14.21,6,18.93,12.65a4.84,4.84,0,0,1-.48,2.72c-2.45,4.41-.66,9-.6,13.52.13,10-.33,20.07-.61,30.11-2.66,4-5,2.09-7.34-.36-2.55-8.75-.66-17.72-1.24-26.58-.35-5.43.8-10.94-1-16.27-9.68-9.25-22.09-14.19-33.4-20.8q-69.49-40.62-139.31-80.67c-2.56-1.47-5-2.82-8-2.57-3.36.3-3.13,3-3.12,5.14,0,11.95-.74,23.92.76,35.85-4.76,3.56-7.25.82-9.27-3.29,1.21-13.1,1.89-26.2.7-39.35Z"/><path class="cls-15" d="M230.06,318.05c1.58,3,3.61,4.46,6.83,2.11,1.38-10.73,4.55-12.39,13.8-7.16a58.54,58.54,0,0,1,8,5c1.64,1.51,3.49,2.91,3.26,5.53-8,7.62-16,15.43-28.22,15.39-9.23-4.92-17.57-11.43-27.41-15.25,6.3-6.17,14.68-9,21.92-13.68C230.78,312.23,228.09,315.68,230.06,318.05Z"/><path class="cls-78" d="M230.06,318.05c-2.57-2.24-1.13-5.4-1.85-8.07q.32-15.72.63-31.44C231.73,291.64,229.56,304.89,230.06,318.05Z"/><path class="cls-79" d="M233.7,338.92c9.75-4,18.09-10.46,27.25-15.49,3.11,1.55,3.24,4.82,4.39,7.52.93,6.42,1.72,12.84-.72,19.13a4.45,4.45,0,0,1-3.4,2.22c-2.73.07-4.91-1.49-7.27-2.5-2-.89-4.09-2.17-5.91.14-1.22,1.54-.58,3.08.68,4.38,1.59,1.63,3.6,2.87,4.62,5a4.46,4.46,0,0,1,0,2.34c-1.31,2.68-3.69,2.7-6.16,2.48-5,.56-8.11,5.62-13.34,5.64Q233.78,354.37,233.7,338.92Z"/><path class="cls-80" d="M396.29,361.44Q341.71,330.24,287.14,299q-60.47-34.79-120.79-69.83-5.21-3-10.44-6,0-5.6,0-11.22c16.67,11.84,34.94,21,52.57,31.26q90.3,52.39,180.86,104.33c3,1.7,4.83,5.11,8.64,5.4C399.13,356.12,399.27,359.08,396.29,361.44Z"/><path class="cls-6" d="M155.84,423.84c6-.39,9.79,1.37,8.18,8.39-2.52,1.69-5,2.67-7.72.26C153.08,429.68,155.31,426.76,155.84,423.84Z"/><path class="cls-81" d="M171.6,438c1.5-2.63,3.24-4.85,6.77-3.56,4,1.46,3.42,4.8,3.24,8C176.15,445.77,173,443.84,171.6,438Z"/><path class="cls-82" d="M27.75,261.07c-.55-4,1.45-8.42-1.72-12.08l2.07-2a4.06,4.06,0,0,1,1.27.21c6.27,3.19,3.23,7.78,1.84,12.13Z"/><path class="cls-83" d="M31.21,259.28c-.55-4.05,1.49-8.5-1.84-12.13l3.55-1.72C36,248.66,34,252.86,35,256.49a1.87,1.87,0,0,1-.29,1.29Z"/><path class="cls-84" d="M676.46,298.75l.13,12.58a3.65,3.65,0,0,1-3.52,1.49c-3.18-3.32-3.08-7.62-3.49-11.77l.22-.46Z"/><path class="cls-85" d="M242.28,191.72c-1.39-10.47-8.39-18.42-12.47-27.68-2.9-7.82-5.59-15.73-9.7-23.05a12.16,12.16,0,0,1-.86-2.44c-4.84-15.67-4-17.9,10.25-26.47,3.45-2.08,6.8-4.39,10.55-5.89,2.82-1.13,5.79-3.13,8.71-.07,3.35,8.48,1.15,17.34,1.81,26,.33,4.41-.73,9.24,3.79,12.35a19.16,19.16,0,0,1,2.72,2.8c2.74,6.54,6.71,6.1,12.13,2.84,11.7-7,23.61-13.77,35.59-20.34,2.82-1.55,5.68-4.29,9.3-1.46,2.19,7.39-2,13.6-3.7,20.27a9.7,9.7,0,0,1-1.25,2.22c-11.95,9.29-26.54,14.52-39,24.18,3.39,2.47,5.24.61,7.05-.39,7.3-4,14.39-8.49,21.84-12.25,2.61-1.32,5.38-4,8.55-.82,1.51,2.43,1.5,5.11,1.33,7.82.29,3.14.42,6.27-.7,9.3-5.1,7.89-14.33,10-21.34,15.29-2.35,1.76-6.05,2.08-6.65,6.64,7.18-.56,11.75-5.88,17.61-8.25,3.52-1.42,6.66-5.08,11-1.94,2.63,4.54,4.63,9.24,3.84,14.67-3.93,5.67-10.56,7.47-15.93,11.08-2.21,1.49-6.75,2.67-5,5.68,2.13,3.77,5.49.08,8.06-1.15,5.57-2.67,10.24-7.43,17.07-7.11,5,2.9,8.42,6.9,9.27,12.79-3.29,5.89-9.83,7.39-14.84,11-1.36,1-3.51,1.92-2.75,3.74,1.08,2.58,3.46,1.33,5.16.49,6.87-3.41,13.07-8.09,20.31-10.84a14,14,0,0,1,6.26.95c5.11,3.64,13.06,1.34,16.74,8-5.36,6.19-13.36,8.4-19.74,13.06-2.25,1.65-5.32,2.13-7.26,5.2,3.79,1.77,6.56-.29,9.42-1.79,7.83-4.13,15-9.57,23.28-12.72,2.79-1.06-1.57-3.33,1.13-3.89,4.9-3.17,10.63-1.35,16-2.8,15-4.1,25.94-14.5,37.95-23.27,1-.55,2.24-1.46,3.11-1.09,9,3.79,15.86-1,22.73-5.69C451,209.41,457.41,214,464.21,218c1.89,1.1,3.95,2.45,3.25,5.3-2.34,2.56-5.71,2.3-8.68,3.09-6.24,1.65-11.86,4.15-15.09,10.2-2.49,6.13-2.17,12.9-4.66,19.14-1.44,3.62,1.72,7,4.73,9.49,10.61,8.94,33.72,9,44.82.56,6.4-4.89,6.37-10.32,2.79-16.62a18.16,18.16,0,0,1-.32-8,6.85,6.85,0,0,1,1.19-2.41,4.09,4.09,0,0,1,2.3-1.21c6.82.09,11.64,4.75,17.28,7.55,6,3.79,12.42,7,18.43,10.83,9,5.77,9,9.65,0,15.49a22.41,22.41,0,0,0-4.25,2.83,19,19,0,0,1-4.08,2.41c-3.12,1.11-6.2,2.3-8.26,5.14a21.35,21.35,0,0,1-4.55,3.41c-4.42,2.25-9,4.25-13.13,7-2.31,1.47-4.65,2.89-7.08,4.15-7.38,4.9-15.28,8.94-22.78,13.65-13.52,8.27-27.36,16-41,24-7.21,4.26-13.78,4.61-21,.19-10.82-6.6-22.08-12.45-32.86-19.11-11.84-7.33-23.93-14.25-36.08-21.06C328,290.13,321,286,313.89,282c-18.57-10.66-36-22.73-48.83-40.32-1.77-3.1-3.54-6.21-5.35-9.3-.8-1.4-1.55-2.82-2.25-4.27C251.58,216.31,247,204,242.28,191.72Z"/><path class="cls-80" d="M467.15,332c-14.2,8.17-28.48,16.21-42.56,24.6-3.83,2.28-6.91,3.13-11,.66-14.3-8.56-28.79-16.82-43.21-25.19-2.38-3.43-3.47-7-1.54-11.05,3.62-4.47,7.36-1.73,10.72.18,8.76,5,17.48,10,26.22,15.07,6.31,3.64,12.26,3.68,18.7-.14,11.4-6.75,22.86-13.4,34.53-19.66,3.07-1.65,6.48-4.65,9.91-.29A15.86,15.86,0,0,1,467.15,332Z"/><path class="cls-86" d="M524.15,272.95a11.33,11.33,0,0,1,1.74-1.85c11.38-7.69,11.4-7.71-.07-14.71-5.08-3.1-10.23-6.09-15.35-9.12-1.44-2.9-3-5.83,1.81-7.15l57.47,32.75-59.29,33.33c-4.09-4.07-3-9-2.43-13.91a9.71,9.71,0,0,1,.66-2.58c2.6-4.48,7.33-6.18,11.49-8.6C523.41,279.25,525.92,277.17,524.15,272.95Z"/><path class="cls-87" d="M313.26,299.15l-91.88-53.26c-1-3.63-1.3-7.2.94-10.54,5.38-3.73,9,.91,13.14,2.82,3.21,1.76,6.39,3.57,9.67,5.23,3.11,1.85,6.11,3.87,9.34,5.52,16.46,9.94,33.32,19.19,49.9,28.89,3.7,2.17,7.52,4.21,10.26,7.7a8.13,8.13,0,0,1,.94,2.65C316.12,292.1,316.7,296,313.26,299.15Z"/><path class="cls-88" d="M235.38,240.36c-4.51-.53-7.26-5.23-12.06-5.09a6,6,0,0,1-2-2.61c-1.55-9.81-3.63-19.66,1.91-29l19.06-11.93c2.28.26,3.55,1.69,4.35,3.69l13.06,32.8C250.6,230.29,243.3,236,235.38,240.36Z"/><path class="cls-89" d="M493.41,238.64l-.52,1.94c-1.34,8-6.93,11.49-14,13.49-16.13,4.55-31.22-.12-38.11-11.81a12.87,12.87,0,0,1,.22-7c5.66-10.45,15.7-11.81,26-12.5,6-4.43,10.7-.43,15.56,2.45l3.26,1.63C490.48,229.4,496.76,230.94,493.41,238.64Z"/><path class="cls-90" d="M501.83,316.39c11-10.25,20.25-11.76,30.38-5.59,4.88,3,4.52,5.72.33,8.25-8.83,5.33-17.61,10.91-27,15.13-6.59,3-12.35-2.05-16.46-6.41-3.08-3.27,1.21-5.92,4.1-7.83C496.83,320.59,499.14,318,501.83,316.39Z"/><path class="cls-91" d="M600.65,288.57a26.41,26.41,0,0,1-1.79,18.15c-11.59,3.47-20.83,11.4-31.48,16.65a46.64,46.64,0,0,0-8.05,4.82c-7.48,5.82-15.44,8.1-24.53,4.25a1.44,1.44,0,0,1-.48-1.4q.18-.73.39-.73c18.53-11,37-22.06,55.63-32.91C594.38,295,598.32,292.81,600.65,288.57Z"/><path class="cls-92" d="M441.31,377.11c12.68,2,21.45-6.54,31.3-11.84,13.56-7.29,26.7-15.35,40.08-23,1.43-.82,3.22-1,4.84-1.51,4.88,7,.92,10.68-5,13.69-8.54,5.37-17.75,9.62-26,15.52a256.47,256.47,0,0,0-24.25,13.88c-2.78,1.8-5.56,4.17-9.32,2.42C450.68,381.22,442.83,383.17,441.31,377.11Z"/><path class="cls-93" d="M512,352.7c6.52-1.81,4-7.78,5.49-11.92l3.26-2c4.82-1.9,8.63-5.87,13.92-6.81,3.19-.53,6.17-5.89,9.72.54,1.36,2.46,5.1-1,7.38-2.26,12.62-7.19,25-14.81,37.72-21.83,2.59-1.43,5.38-6.25,9.36-1.69-12.57,10.08-27.36,16.5-41,24.75S530.09,347,516.19,354.65C514.07,355.57,512.24,355.87,512,352.7Z"/><path class="cls-87" d="M370.48,319.71,370.34,332c-11.44-7-23.85-12.47-34.61-20.66-2.88-3.26-3.26-6.89-1.63-10.82,2.08-3.36,5-2.29,7.43-.91,9.38,5.26,19.19,9.82,27.74,16.48A3.86,3.86,0,0,1,370.48,319.71Z"/><path class="cls-86" d="M223.29,233.46q0,.91,0,1.82c-.4,3.58,1.21,7.53-1.94,10.61-9.47-5.42-18.76-11.22-28.49-16.14-7.17-3.63-5.09-5.89.27-8.55,1.27-.63,2.61-1.12,3.91-1.67C208.56,219,215.94,226.19,223.29,233.46Z"/><path class="cls-94" d="M223.29,233.46l-26.22-13.94c7.6-7.13,17.1-11.12,26.15-15.86Q223.25,218.56,223.29,233.46Z"/><path class="cls-95" d="M467.15,332l.17-17.05a5,5,0,0,1,1.34-3.61c3.8-3.5,8.57-5.43,13-7.91,2.38-1.33,5.12-2.87,7.65,0,2.26,4.92,2,9.92.53,15Z"/><path class="cls-96" d="M482.58,225.18,467,222.73c-7.68-5.61-17-8.65-24-15.25-3.48,0-7,.08-5.15-5.16,1.65-1.25,2.52-4.21,5.53-2.37C456.64,208,470.85,214.69,482.58,225.18Z"/><path class="cls-80" d="M335.9,299.43l-.16,11.94-22.47-12.22.11-12.3c9.1-1.77,14.39,5.4,21.19,9A5.26,5.26,0,0,1,335.9,299.43Z"/><path class="cls-97" d="M437.84,202.32c0,3.48,3.13,3.75,5.15,5.16-1.26,2.15-5.16,2.49-4.54,5.72.75,3.92.32,4.94-3.63,2.82-3.67-2-3.43,3-6.5,4,.15-7.22-4.77-6.15-9.4-5.64-1.8-3.13,2-5.61,1-8.64-.68-4.59,3.17-5.43,5.92-7.21,1.59-.88,3-2.28,5-2.13,2.16,1.31,4.86,1.09,7,2.47Z"/><path class="cls-95" d="M510.47,290.6q0,7.79,0,15.59c-3.74,2.77-7.5,5.49-12,6.87-4.35-4.22-3-9.38-2.4-14.42a9,9,0,0,1,.95-2.81C500.8,292.37,504.1,287.5,510.47,290.6Z"/><path class="cls-98" d="M441.31,377.11c3.59,3.5,13-1.08,12.09,8.67-2,6.31-7.17,3.72-11.17,3.8-3.41.06-6.33-2-9.19-3.77a4.67,4.67,0,0,1-2-3.73q0-.8-.11-1.6c-2-3-.95-5.22,1.78-7Z"/><path class="cls-99" d="M432.66,373.47l-1.78,7a50,50,0,0,1-19.08-10.32c-1.51-3.25-1-6.09,1.76-8.44Z"/><path class="cls-96" d="M498.16,297.16q.13,7.95.27,15.9a21,21,0,0,1-8.59,5.33c-3.62-4.81-1-10.42-2-15.56a4.63,4.63,0,0,1,1.5-3.27C492,297.73,494.45,295.12,498.16,297.16Z"/><path class="cls-100" d="M413.56,361.75a13.84,13.84,0,0,1-1.76,8.44c-6-1.5-10.62-5.33-15.51-8.74a14.67,14.67,0,0,1,1.65-8.49Z"/><path class="cls-87" d="M512.28,240.12c-2.36,1.94-1.7,4.64-1.81,7.15l-15.56-8.66c.8-2.42.91-5.17,3.35-6.78Z"/><path class="cls-101" d="M484.73,216.31a5.79,5.79,0,0,0-.2,1.52c-5.49-2.27-9.49-7.2-15.45-8.61,5.51.73,9-3.86,13.8-5.16C489.55,207.23,487.44,211.73,484.73,216.31Z"/><path class="cls-102" d="M431.12,197.56l-3.63,3c-1.52-1.31-2-3.33-1-4.67,5.61-7.31,7.76-16.74,14.45-23.35,1.5-.11,2.67.1,2.09,2.08l-6,15.58a6.74,6.74,0,0,0-2.8,4.78C434.05,196.89,432.94,197.66,431.12,197.56Z"/><path class="cls-103" d="M498.26,231.82c-.12,2.75,1,6.1-3.35,6.78l-.75,0-.75.06c.11-5.63-4.31-8.36-7.57-11.84C491.1,225.71,494.16,230.06,498.26,231.82Z"/><path class="cls-104" d="M196,198.93c.07,2.78-1.74,3.1-3.44,3.25s-3.81.54-4.51-1.41c-.77-2.14,1.09-3,2.82-3.41A4.59,4.59,0,0,1,196,198.93Z"/><path class="cls-105" d="M534.7,332c-4.41,2.74-8.38,6.37-13.92,6.81,3.87-4.09,8.78-6.48,13.93-8.45Q534.71,331.14,534.7,332Z"/><path class="cls-106" d="M201.23,192.16c1.53,0,3.06.27,3.4,1.93s-1,2.51-2.55,2.68-3.06-.24-3.4-1.9S199.73,192.47,201.23,192.16Z"/><path class="cls-107" d="M431.12,197.56l3.15-2.55c2,.5,3.51,1.53,3.56,3.87C435.39,199.46,432.4,202.84,431.12,197.56Z"/><path class="cls-108" d="M501.83,316.39c-2.2,2.81-4.15,6.25-8.62,3.55Z"/><path class="cls-109" d="M161,169.16c2.92.46,6.48-.57,8,3.17.88,2.11-.15,3.85-1.65,5.28-3.25,3.1-5.59.28-8.1-1.33C159.46,173.82,158.61,171.1,161,169.16Z"/><path class="cls-110" d="M382.32,420.63a9.39,9.39,0,0,1,5.31,3.12c2.2,4.41,5.22,8.94-1.7,12.07l-1.73-.05-3.58-3.27C379.5,428.3,378.73,424.15,382.32,420.63Z"/><path class="cls-111" d="M391.05,425.62c-.48,4,1.48,8.4-1.75,12l-3.37-1.82c3.13-3.66,1.14-8,1.7-12.07Z"/><path class="cls-112" d="M448.19,466.52l-8.47,4.85-12.2,5.71q-.07-15.39-.15-30.79c6.68-9.09,16.42-13.16,26.74-16.32a4.77,4.77,0,0,1,2.78,3c.75,2.49-.32,4.76-.88,7.08-.28,4.89.36,9.8-.38,14.68l-.54.28c-1.78,1.55-3.6,1-5.43.14s-3.73-2.23-5.93-2.61c-3.27,0-3.38,2.12-3,4.51.82,2.18,2.88,3,4.6,4.24a8.73,8.73,0,0,1,3.17,3.14A2.19,2.19,0,0,1,448.19,466.52Z"/><path class="cls-15" d="M453.81,430.13c-8,6.65-17.73,10.6-26.43,16.16l-27.3-15.83a3,3,0,0,1,0-1.33l13.52-9a8.85,8.85,0,0,1,7.26-4.26,3,3,0,0,1,2,1.21c.85,3.09-.7,6.44,1,9.44,1.64,1.36,3.26,2.84,5.46.94.8-4.15.08-9.15,5.9-10.49a9.79,9.79,0,0,1,4.93,1c4.11,2.44,8.39,4.63,12.09,7.72A5.08,5.08,0,0,1,453.81,430.13Z"/><path class="cls-113" d="M240.26,278.75c3.41-3.66,5.72,0,8.11,1.42q87,50.09,173.88,100.34c1.33,2.17,1.29,4.16-.76,5.88-3.74,1.31-6.76-.64-9.7-2.36-40.48-23.68-81.4-46.59-121.69-70.61-3.33-2.37-6.66-4.72-10.6-6-10.57-6.37-21.4-12.3-32-18.59C243.84,286.63,238.64,285,240.26,278.75Z"/><path class="cls-114" d="M420.62,385.67c1.76-1.34,1.67-3.26,1.63-5.16,3.48,6.78,1.22,14,1.57,21.06.41,8.31.06,16.65,0,25-3.23-2.68-1-6.61-2.24-9.75C418.45,406.5,419,396.1,420.62,385.67Z"/><path class="cls-115" d="M257.57,319.78,261,318c6.12-.12,7.55,4.09,8.29,8.95-1.06,3.1-3,4.67-6.36,3.41l-2-6.88Z"/><path class="cls-116" d="M262.75,350.86l7.22,5.43c2,6.46-1.52,8.51-7.15,8.82l-10-4.22a2.63,2.63,0,0,1-.25-1.24c1.69-3.66,3.64-7.11,7.36-9.14Z"/><path class="cls-117" d="M259.92,350.51c-1.24,4-1.79,8.6-7.36,9.14l-5.06-3.26c.08-4.79,1-8.91,7.07-9Z"/><path class="cls-118" d="M254.57,347.35c-3.87,1.83-4,6.56-7.07,9-3.73-1.92-4.58-5-2.3-8.24C247.76,344.44,251.2,344.81,254.57,347.35Z"/><path class="cls-31" d="M635.6,105.58c6-6.39,11.32-1.72,16.77,1l8.32,6.26c-3.13,7.73-10.38,9.37-17.21,11.67-7.41-1.86-14.34-4.46-18-11.94C626.28,106.49,631.41,106.72,635.6,105.58Z"/><path class="cls-119" d="M643.52,122.89,660.7,112.8c3.14,3.48.52,7.85,1.81,11.62,1.49,8.43-4.71,11.64-10.34,15.23-2.26,4.23-5,6.78-9.8,3.06C639.92,135.95,639,129.26,643.52,122.89Z"/><path class="cls-120" d="M199,148.33c3.93.81,6.27,3.08,4.83,7.12-1.57,4.4-5,3.57-8.3,1.91C193.65,153.16,194.31,150,199,148.33Z"/><path class="cls-5" d="M176.68,165.67q0-2.26.07-4.52c2.9-2.13,5.93-3.6,8.94-.37,1.85,2,1.22,4.09-.47,6C181.82,170.61,179.32,167.67,176.68,165.67Z"/><path class="cls-5" d="M671.39,143.57c-6.11-1.88-7.78-5.22-3.47-10.54C676.39,134.64,677.09,136.79,671.39,143.57Z"/><path class="cls-121" d="M690.43,143.23c2.9,2.42,2.69,5.43,1.61,8.6-3.34,1-7.2,2.4-8.34-2.43C682.47,144.16,686.32,143.28,690.43,143.23Z"/><path class="cls-122" d="M661,261.05a11.3,11.3,0,0,1,1.69.12l1.72,1.83c1.89,4.76,4,9.55-1.65,13.37l-3.34-1.78a3.47,3.47,0,0,1-1.09-2.35C659,268.46,657.29,264.11,661,261.05Z"/><path class="cls-123" d="M662.77,276.38c2.61-4.2,1.45-8.87,1.65-13.37l3.47,1.65c-.2,4.58.93,9.33-1.7,13.61Z"/><path class="cls-124" d="M448.19,466.52a3.6,3.6,0,0,1-.25-1.23c1.42-3.94,3.55-7.29,7.55-9.09a13.67,13.67,0,0,1,6.54,3.87c2,6.55-.08,9.79-7.25,8.82Z"/><path class="cls-125" d="M465.46,461.94l5.26,3.29c-.18,4.67-1.34,8.55-7,8.78a7.9,7.9,0,0,1-5.51-3.26C461.29,468.38,462.34,464.3,465.46,461.94Z"/><path class="cls-126" d="M463.67,474c3.54-2,4.7-5.85,7-8.78l3.4,1.81c-2.33,2.93-3.49,6.81-7.05,8.76Z"/><path class="cls-127" d="M465.46,461.94c-.81,4.27-2.24,8-7.29,8.8l-3.38-1.85c5.17-.67,6.39-4.6,7.25-8.82l1.74,0Z"/><path class="cls-128" d="M659.15,321.49c-3.75,1.9-6.48,7-11.86,3.73,1-3.92-.06-8.12,1.62-11.95l8.58-5.18C663.87,311.84,662.27,316.57,659.15,321.49Z"/><path class="cls-129" d="M659.15,321.49c-.1-4.52,1.07-9.2-1.65-13.39l8.76-5.05c6.41,3.72,4.27,8.51,1.66,13.35L661,321.63Z"/><path class="cls-130" d="M645.5,324.87q-1.06,6.18-7.25,5.22c-3.11-.47-3.34-2.86-3.07-5.15.6-5.15,4.65-4.9,8.39-5C646,320.88,647.14,322.33,645.5,324.87Z"/><path class="cls-109" d="M517.41,401.66c-3.35-.6-7.41-.77-6.58-5.7a5.47,5.47,0,0,1,5.54-4.47c5.09.27,5.39,4,4.78,8Z"/><path class="cls-131" d="M493.37,409.82c-.15-3.68-1.14-8,4.55-8.22,5.86-.19,6,3.94,5.59,8.28C500.11,412.74,496.75,410.74,493.37,409.82Z"/><path class="cls-5" d="M619.87,340.5c-1.9-2.58-3.34-5.3-.95-8.28,2.27-2.81,4.94-1.57,7.52-.38C628.84,338.21,625.88,340.52,619.87,340.5Z"/><path class="cls-5" d="M602.35,350.5c-2.31-3-3.46-6.27.08-8.87,3.38-2.48,5.68.4,7.86,2.65C609.34,348.51,607.49,351.6,602.35,350.5Z"/><path class="cls-132" d="M453.81,430.13l-2.12-2.64c.52-3.31,2.45-4.74,5.77-4.33,4.67,3,7.92,6.56,4.54,12.51l-3.43,1.89c-2.88-.58-2.11-3.43-3.19-5.13Z"/><path class="cls-133" d="M667.91,316.4c-.29-4.49,1-9.17-1.66-13.36l3.33-2c4.53,2.93,3.47,7.51,3.49,11.77Z"/><path class="cls-134" d="M645.5,324.87l-1.93-4.93c.58-3.18,2.07-5.63,5.34-6.66,1.66,4.28,4.32,8.7-1.62,11.95Z"/><path class="cls-135" d="M474.06,428.78,468.89,432c-3.1-3.46-6.13-6.94-5.3-12.12a4.64,4.64,0,0,1,2.37-1.11C472,419.38,475,422.46,474.06,428.78Z"/><path class="cls-71" d="M462,435.67c.31-4.74-2.39-8.11-5.2-11.43.43-2.22,1.83-3,4-2.76,4,3.21,8.47,6.24,4.69,12.39Z"/><path class="cls-136" d="M482.87,421.57c.76-4.44-3.05-5.88-5.42-8.27,2.89-3,5.7-1.33,8.51.14C486.4,416.7,487.05,420.05,482.87,421.57Z"/><path class="cls-137" d="M465.47,433.87c1.08-5.11-2.41-8.17-5.19-11.56.53-1.76,1.46-2.79,3.44-1.83,2.47,3.51,5.55,6.75,5.16,11.53Z"/><path class="cls-138" d="M474.06,428.78c-1.92-3.78-3.39-8-8.57-8.52-1-3.41,2.69-1.94,3.54-3.43l3.31-1.63q.06.8.08,1.6c1.35,3.45,6.23,5.71,3.53,10.52Z"/><path class="cls-139" d="M476,427.33c-.21-3.83-4.4-6.33-3.53-10.52,4.35,1.26,5.9,4.76,6.93,8.68Z"/><path class="cls-140" d="M455.37,432.44l3.19,5.13q-.28.74-.55,1.49a2.2,2.2,0,0,0-1.17.58c-.46.64-.86.58-1.21-.1Z"/><path class="cls-141" d="M455.49,456.2c-1.42,3.94-2.77,7.94-7.55,9.09l-3.15-2c-1-4.79.56-8.24,5.2-10.11L455.1,455A5.21,5.21,0,0,1,455.49,456.2Z"/><path class="cls-142" d="M255.83,148.67l-1.64-1.34c.59-14.1,1.37-28.21-.55-42.28.34-2.44,2.23-3.08,4.22-3.59,15.3-3.93,27.55-13.42,40.27-22.08a6.43,6.43,0,0,1,4.1-1.38,4.62,4.62,0,0,1,3.83,2.29c2.15,14.05,1,28.16.68,42.24-.85,3.33-3.38,5.23-6.08,6.93-10.46,6.57-21.11,12.81-32,18.58C264.6,150.16,260.28,152.38,255.83,148.67Z"/><path class="cls-143" d="M357.66,276.82c-3.11-1.07-6.26-1.47-6.84-4.25-.48-2.29,2.44-2.8,4.09-3.76C379.06,254.89,403.26,241,427.37,227c2.9-1.68,5.55-3.2,8.77-1.32,1.43.84,3.45,1.8,3.81,3.1.54,1.91-1.81,2.52-3.25,3.34q-35.9,20.6-71.81,41.17C362.44,274.74,359.79,275.81,357.66,276.82Z"/><path class="cls-144" d="M441.44,241.83c16.55,15.53,38.92,15,51.44-1.24l.57,8.41c3.75,7.76-.22,14-7.58,17.74-13.25,6.73-26.7,6.35-39.6-1.22C436.06,259.52,439.45,250.46,441.44,241.83Z"/><path class="cls-145" d="M417.91,305.77c3.58-6.8,6.08-13.24,11-18.22,3.67-3.7,7.57-5.47,12.26-2.61,4,2.44,6.23,1.88,7.31-2.81.76-3.29,3.41-4.47,6.41-4.89,2.11-.3,5-1.89,6,1.09.81,2.52-2.09,2.77-3.88,3.56-3,1.33-3.16,4.6-4.24,7.14-2.59,6-6.51,7.4-11.11,2.6s-7.19-2.39-10,1.74a58.88,58.88,0,0,0-7.49,16.41c-1.53,5-4.87,7.19-8.82,3.49-4.37-4.09-7.52,4.61-10.44.51-2.71-3.81,4.68-5.53,3.29-9.6a7.65,7.65,0,0,0-2.32-3.56c-7.08-5.29-3.4-11-1-16.89,1.33-3.29,3.71-4.05,6.88-3.72,3.84.4,3.2,3.31,3.42,5.82C415.66,292.18,414,298.84,417.91,305.77Z"/><path class="cls-146" d="M468.94,313l-1.63,1.91c-13.94,7.86-28.11,15.33-41.71,23.73-7.31,4.51-13.61,4.51-20.78.33-11.33-6.62-22.89-12.86-34.35-19.26l-1.58-1.85c-2.09-3.84-1.79-6.08,3.38-5,11.25,6.42,22.66,12.59,33.69,19.37,5.86,3.6,10.76,3.8,16.75.15,14-8.53,28.39-16.47,42.62-24.65C471.19,306.31,470.65,309.26,468.94,313Z"/><path class="cls-147" d="M313,285.57l-60.29-34.93c1.45-7.66,6.8-10.11,13.82-10.31,13.71,16.3,30.25,29.12,48.71,39.56C314.68,281.85,315.13,284.22,313,285.57Z"/><path class="cls-148" d="M255.83,148.67c7.67.23,13.63-4.07,19.81-7.64,9.7-5.6,19.3-11.38,28.94-17.09,1.93-1.6,1.43-4.41,3.07-6.17,3.93-2.77,7.25-7,13-5.42,1.66,2.53.5,5-.05,7.55-1.81,3.29-2.09,8-7.36,8.15q-22.36,12.79-44.71,25.59C259.47,158.85,259.32,158.81,255.83,148.67Z"/><path class="cls-149" d="M441.44,241.83c-1.07,16.18.44,19.51,10.78,23.8,12.32,5.12,31,2.35,38-5.39,3-3.34,2.8-7.31,3.2-11.25,5.31,9.18,4.11,14.46-4.56,20.2-11.7,7.73-33.6,7.75-45.15-.07-6.62-4.48-10.47-10.28-5.93-18.16,2.91-5.05-.11-11,3.16-15.73Z"/><path class="cls-143" d="M423.24,264.34c-13.43,7.78-26.17,15-38.69,22.52-4.44,2.68-8.5,1.62-10.56-1.85-2.59-4.38,3-4.37,5.1-5.68,9.32-5.68,19.12-10.6,28.25-16.57C413.15,259,417.79,259,423.24,264.34Z"/><path class="cls-150" d="M254.5,104c1.35,1.41,3.3,2.41,3.3,4.76q0,17.15,0,34.31c0,2.37-1.56,3.53-3.6,4.22-5.35-.47-6.9-3.5-6.8-8.66.23-11.08-.1-22.18-.19-33.27l.56-5C251.26,99.29,253.27,101,254.5,104Z"/><path class="cls-143" d="M305.93,160.94c-10.43,6.08-20.84,12.21-31.32,18.21-2.38,1.36-5,3.49-7.06-.78-1.55-3.29-.63-5.46,2.39-7.14q18.83-10.45,37.63-21C310.28,154.33,309.56,157.86,305.93,160.94Z"/><path class="cls-151" d="M363.35,240.59c1.47,1.3,3.53,2.36.3,4.2-9.47,5.4-18.87,10.93-28.27,16.46-4.62,2.72-7.27-1-12.48-3.11,12.1-6.69,21.57-14.53,33.49-18.12C358.88,238.08,361.21,238.15,363.35,240.59Z"/><path class="cls-152" d="M363.35,240.59l-7-.56c-5.08-3.84-12.13-2.47-17.13-6.51-2.63-2.94-8.4-3.35-7.42-9.21a3.9,3.9,0,0,1,3.14-2,7.5,7.5,0,0,1,4,1.45c18.4,13.88,37.4,13.65,56.88,2.47,6.95-3.09,11.77-8.79,17.11-13.87,2.83-2.69,5.09-6.27,9.51-6.76,3.19,4.69-3.2,5.54-3.53,8.82C403.32,229.33,386.57,241.83,363.35,240.59Z"/><path class="cls-153" d="M332.14,224.83l7.12,8.69-5-1.71c-4.07,0-7.15-1.57-8.5-5.69l-9.62-11.78c-3.62-1.84-6.34-4.17-4.7-8.82L307.16,190a4.53,4.53,0,0,1,2.3-.92,13.33,13.33,0,0,1,10.61,6.07C323,205.47,328,215,332.14,224.83Z"/><path class="cls-151" d="M307.16,190c-7.72,4.36-15.42,8.75-23.18,13-2.43,1.34-4.93,3.33-7.1-.75-2-3.79-.57-5.59,2.75-7.42,8.77-4.83,17.39-10,26.07-15,4.13,2.65,4.08,6.26,2.34,10.25Z"/><path class="cls-151" d="M311.4,205.53l4.7,8.82c-6.7,3.75-13.5,7.35-20.07,11.32-3.9,2.36-5.83,1.19-8.13-2.38-2.58-4,.14-4.94,2.6-6.35C297.38,213,303.88,208.32,311.4,205.53Z"/><path class="cls-154" d="M313.25,128l5.26-8.79c2.29-1.21,4.46.09,6.69.31a4.7,4.7,0,0,1,3.34,3.34c.8,4.57-2.55,8.13-3,12.41-2.22,4.67-1.53,10.54-5.87,14.34a11.46,11.46,0,0,1-11.31-1.07Z"/><path class="cls-151" d="M325.72,226.12l8.5,5.69c-6.7,5.84-14.89,9.22-22.47,13.62-3.93,2.28-5.86-.8-7.58-3.24-2.34-3.32.84-4.4,3-5.62C313.3,233,319.52,229.6,325.72,226.12Z"/><path class="cls-155" d="M372.28,312.81c-3,.43-3.73,2.38-3.39,5l-33-18.43-2-1.7c0-2.15-.38-4.41,2-5.73C348.56,298,360.42,305.4,372.28,312.81Z"/><path class="cls-156" d="M308.38,148.59c3.45-2.67,6.84.68,10.27.09a8.34,8.34,0,0,1,2.36,9.85c-2.68,4.18-1.49,8.88-1.77,13.38-.2,3.09.47,6.33-1.57,9.11-3.23,2.2-4.08-.73-4.88-2.6a26.49,26.49,0,0,0-6.47-9l-.4-8.47,1.63-10.66Z"/><path class="cls-157" d="M266.55,240.33c-4.54,3.52-10.17,5.59-13.82,10.31L244,245.5c-2.73-4-.39-6.61,2.69-8.54,4.47-2.8,8.48-7.23,14.7-5.33C263.63,234.24,266.2,236.64,266.55,240.33Z"/><path class="cls-158" d="M261.43,231.63c-6.08,4.26-15,4.91-17.39,13.87l-8.66-5.14c4.38-8.24,16.82-14.45,24.32-12.15Z"/><path class="cls-159" d="M306.32,169.4c9.31-.87,8.12,6.79,9.82,12.1,4.28,2.28,2.54,6.78,3.76,10.2a3.94,3.94,0,0,1-1.84,3.67c-2.75-2.87-6.63-3.57-10-5.23l-2.34-10.25Z"/><path class="cls-160" d="M335.89,292c-.13,2.09,0,4.28-2,5.73l-20.54-10.88a6.48,6.48,0,0,0-.34-1.28c-.82-2.51-1.88-5.11,2.24-5.67Z"/><path class="cls-161" d="M468.94,313c0-2.61-.3-5-3.59-5.31l22.84-13.32c2.41,1.84,2.06,4.35,1.64,6.87l-2,1.6Z"/><path class="cls-162" d="M524.15,272.95c7,1.73,6.08,5,1.16,8.08-4.7,3-9.83,5.3-14.77,7.91-4.06-.7-3.05-3.2-2-5.7l3.74-3c2.61-2.23,5.89-3.31,8.76-5.09Z"/><path class="cls-163" d="M508.53,283.24c.37,2,.18,4.21,2,5.7q0,.84-.07,1.67c-4.76,0-7.57,4.42-12,5.24-2.32-1-3.23-3-3.62-5.33C498.85,287,503.65,285,508.53,283.24Z"/><path class="cls-164" d="M494.89,290.52c3.48.23,3.48,2.83,3.62,5.33q-.2.66-.35,1.32l-8.32,4.06c-2.37-1.85-1.76-4.42-1.64-6.86Z"/><path class="cls-86" d="M521,275.14a13.42,13.42,0,0,1-8.76,5.09C514.16,276.77,517.3,275.44,521,275.14Z"/><path class="cls-165" d="M434.1,392.93c-2.5-2.74-1-6-1.27-9.1,6.71,2.23,13.24,6.31,20.57,2,8.57-3.2,15.42-9.38,23.46-13.51,3-1.55,6.21-2.74,9.32-4.09,1.86-.7,2.84.23,3.43,1.86l-36.45,22a1.41,1.41,0,0,1-1.83,1C445.58,394.14,439.87,390.07,434.1,392.93Z"/><path class="cls-166" d="M489.6,370.05l-3.43-1.86c7.63-6.81,16.89-10.91,25.85-15.49,1,1.46,2.53,1.82,4.16,1.95C507.83,360.64,498.73,365.37,489.6,370.05Z"/><path class="cls-109" d="M643.54,252.92l1.9,1.54a1.87,1.87,0,0,1,.48,1.38c0,.5-.12.75-.21.75-1.06,1.25-2.19,2.27-3.92,1.08-3,1.49-6,2.57-8-1.29-1.12-2.18-.91-4.63,1.17-6.18C638.9,247.26,641.07,250.71,643.54,252.92Z"/><path class="cls-35" d="M618,238.88c2.44-.44,4.55.44,6.57,1.67.88,5.3-.5,8.78-6.72,8.39l-1.75-1.71C614.94,244,613.54,240.79,618,238.88Z"/><path class="cls-167" d="M641.78,257.67l3.65-1.87c2.77,3.06,2.78,6.11-.06,9.14-1.45-.3-2.93-.54-3.65-2.11Z"/><path class="cls-168" d="M254.5,104l-6.74-3.69c-1.32-4.43,1.4-6.23,4.9-7.51,3-.23,3.31,2.39,4.52,4,1.08,1.24,1.67.82,1.93-.67,0-4-.07-7.9,2.82-11.09,9.54-6.47,18.4-14.25,30.51-15.77,5.27,2.17,4.46,7.75,6.55,11.71-6.79,9.08-18.09,11.39-26.71,17.74A26,26,0,0,1,254.5,104Z"/><path class="cls-169" d="M254.61,100.1c-.3-2.52.18-5.24-2-7.27,1.64-8.58-.3-17.56,2.91-26,1.09-2.86,1.59-6,4-8.25,3.78-.57,7.41-4.53,11.42-.54-3,9.23-4,19-7.87,28-1.91,4.06-2.16,8.13,0,12.19C260.53,100.08,258.07,102.43,254.61,100.1Z"/><path class="cls-170" d="M270.32,57.07c-3.49,1.13-6.46,5.88-10.75,1.55,1.93-6.3,7-10.41,10.84-15.34,4.5-9.86,13-5.65,20.25-5.73l1.73.83c2.46,5.52-2.25,6.14-5.37,7.57-4.38,2-9.52,2.82-11.5,8.17C274.25,55.94,272.86,57.53,270.32,57.07Z"/><path class="cls-171" d="M290.66,37.55c-7.64-1.25-14,2.1-20.24,5.73l-3.88-1.91c1-4,2.64-7.43,7-8.71Z"/><path class="cls-172" d="M221.59,139.71c0,1.14.16,2.29.12,3.43-.14,3.41-1.82,5.61-5.36,5.05-2.76-.43-4.87-2.5-4.2-5.46s2.93-4.91,6.41-4.13a19.87,19.87,0,0,1,3.17,1.3Z"/><path class="cls-173" d="M511.25,211l-7.56-5.33a1.76,1.76,0,0,1-.53-2.06c1.11-1.72,2.84-2.7,4.49-3.78,3.34-2.48,6-4.84-.74-6A28.55,28.55,0,0,0,504,195a13.22,13.22,0,0,1-4,1.41,2.66,2.66,0,0,1-2.69-1.35L497,181.51c-.09-3.52-2.32-7.22.84-10.49,12.74,1,22,8.11,30.26,17.09,1.59,9.47,2.11,18.93-.32,28.35C521.69,220,517.84,218.77,511.25,211Z"/><path class="cls-174" d="M448.53,103.65,451.32,121a77.72,77.72,0,0,0,0,20.64c.45,4.88-1.21,9.36-2.64,13.88l-.85,5.14c-1.9.12-2.62-1.2-3.26-2.64-1.07-8.05.35-16.08.63-24.1.45-12.83-2-25.17-4.21-37.62a6.41,6.41,0,0,1,1.22-2.69C449.77,93.57,449,98.68,448.53,103.65Z"/><path class="cls-175" d="M493.44,165.77l6.92,2.4a2.5,2.5,0,0,1-2.05,2.43c-2.09,2.72,1,7.31-3.36,9.21l-8.68-5.26C484.37,168.11,486,164.58,493.44,165.77Z"/><path class="cls-176" d="M496.66,209.22a13.32,13.32,0,0,1-6.71,3.83c-4.24-4.15-3.37-8.41-.28-12.72l5.28-3.22C501.75,200.26,499.07,204.76,496.66,209.22Z"/><path class="cls-177" d="M476,169.24c-4.33-2.21-7-5.4-4-10.15,3.26-5.11,7.12-2.78,10.68.08C481.48,163.22,479.6,166.8,476,169.24Z"/><path class="cls-178" d="M466.76,152.18c-.83,3.1-2.15,5.23-5.33,5S456.82,155,457,152s1.8-4.92,4.93-4.59C464.81,147.67,466.18,149.81,466.76,152.18Z"/><path class="cls-179" d="M489.66,200.33q.14,6.36.28,12.72a8.56,8.56,0,0,1-5.21,3.26c-1-4,1.18-8.53-1.84-12.25C484.63,201.87,487.13,201.07,489.66,200.33Z"/><path class="cls-180" d="M476,169.24c.65-4.4,2.65-7.9,6.67-10.07,1.4,1.68,3.4,1.51,5.28,1.73q0,.77.11,1.54c-.89,4.12-2.91,7.33-7.08,8.83Z"/><path class="cls-181" d="M481,171.27c1.72-3.45,3.27-7,7.08-8.83a7,7,0,0,1,5.4,3.33c-5.11.7-6.31,4.6-7.16,8.77Z"/><path class="cls-182" d="M496.66,209.22c-.6-4,1.42-8.44-1.72-12.11l2.36-2,2.72,0c4,4.11,2.12,8.24.07,12.38Z"/><path class="cls-183" d="M451.36,141.67a33,33,0,0,1,0-20.64l.7,3.39Z"/><path class="cls-184" d="M495,179.8c2.53-2.92-.07-7.81,3.92-10.17l.38.69-.47.64L497,181.51Z"/><path class="cls-185" d="M593.47,235.2l-8.77-5.14A17.61,17.61,0,0,1,592,220.6c4.54-.27,7.54,1.86,9.31,5.93C601.06,231.56,599.67,235.55,593.47,235.2Z"/><path class="cls-186" d="M593.47,235.2c3.69-1.75,5.3-5.18,6.93-8.6,4.34-2.47,6.35.32,8.15,3.61-1,8.63-2,9.5-9.83,8.4l-5.17-1.79Q593.53,236,593.47,235.2Z"/><path class="cls-187" d="M569.66,222.86l-2.46-3c-.08-4.52,1.7-8,5.82-10.07,3.78-.62,6.5.72,8,4.33.15,5.76-2.27,9.13-8.42,9Z"/><path class="cls-188" d="M572.6,223.17c3.28-2.19,6.57-4.36,7.09-8.78,4.07-2.17,5.88.61,7.66,3.48-.36,5.84-1.91,10.41-9.33,8.6Z"/><path class="cls-189" d="M578,226.47c5.16-.45,6.52-4.78,8.57-8.41,1.47-1.27,2.72-.44,4,.42a3.72,3.72,0,0,1,1.21,3c-1,3.93-2.71,7.36-7,8.6A11,11,0,0,1,578,226.47Z"/><path class="cls-112" d="M538.29,211.55l-12.12,6L526,186.79c4.77-8.46,21.85-17.4,28.93-15.14,1.84,2.58,1.28,5.57,1.51,8.44.6,5.87,1.12,11.73-1.06,17.42-2.58,3.57-5.57,1.77-8.51.67-2.08-.32-4.5-2.42-6.15.09-1.4,2.13,1.22,3.4,2.27,5a5.56,5.56,0,0,1,1.51,4.42Z"/><path class="cls-190" d="M546.83,195.79l6.85,2.86c2.09-.72,3.38.35,4.41,2,.79,5.18-1.51,8.57-6.16,10.6l-7.45-3.59-3.29-3.22C541.66,200.62,543.84,197.93,546.83,195.79Z"/><path class="cls-191" d="M572.75,211c-1.81,3-2.56,6.61-5.54,8.86a25.47,25.47,0,0,1-10-5.48c1.26-4.16,3.23-7.79,7.35-9.83C569.21,204.27,572.51,205.71,572.75,211Z"/><path class="cls-192" d="M564.06,205.91c-2.13,3-2.13,7.64-6.87,8.5l-5.26-3.18L557.08,201C561.89,199.09,563.17,202.23,564.06,205.91Z"/><path class="cls-193" d="M467.9,240.18c-1.21-3.78-2-6.49-3-9.16-.77-2.19-2-4.5,1.11-5.76,2.81-1.13,5.18-.23,6.35,2.61,1.75,4.23,3.34,8.53,4.84,12.86,1.11,3.19-.12,5.23-3.58,4.93-6.27-.53-12.52-1.35-18.76-2.19-1.37-.18-3-.89-2.78-2.6s1.87-2.14,3.3-2C459.1,239.12,462.75,239.61,467.9,240.18Z"/><path class="cls-194" d="M446.39,158.93l1.48,1.77c-.94,4.88-2,9.72-4.83,13.95l-1.59-1.77C439.94,167.11,439.88,161.85,446.39,158.93Z"/><path class="cls-195" d="M500.09,207.42,500,195l3.37-2c4,3.71,2.78,7.59.38,11.52a1.34,1.34,0,0,1-.08,1.15Z"/><path class="cls-196" d="M446.39,158.93l-4.94,13.94c-3.55,8.33-6.31,17.08-13.08,23.68-.82.8-.62,2.66-.89,4,0,3.36-7.24-.6-5,5-7.2,8.6-14.7,16.88-24.59,22.55-4.5-5.4-4.69-11.62-3.48-18.11,5-8.55,14.52-12.71,20-21.18,15.09-23.49,23.33-48.06,14.25-75.83-5.3-16.23-21-23.83-37.11-18.71-3.8,1.21-7.45,3.28-11.66,1.78-5.67-5.66-3.91-13.29-5.35-20.09a6.6,6.6,0,0,1,4.3-5c21.52-9.14,44.87-4.59,59.59,14.22a27.41,27.41,0,0,1,4.54,10.05C450.27,116.14,449.29,137.48,446.39,158.93Z"/><path class="cls-197" d="M382.32,420.63c-.37,4,1.51,8.29-1.71,11.86-3.26-1.08-6.37-2.4-8.49-5.3.7-1.81.8-3.07-1.75-1.92-3.65-.88-7.86-1.64-5.8-6.91,1.69-4.32,5.07-3.53,8.49-1.85C376.08,418,379.23,419.26,382.32,420.63Z"/><path class="cls-10" d="M311.69,387.76c7.06-4.77,9-3.86,10,4.76C315.79,396.25,312.55,394.49,311.69,387.76Z"/><path class="cls-5" d="M329,399.8c1.82-2.27,2.82-5.92,6.94-4.5,3.82,1.32,3.57,4.51,3.24,7.66C334.51,405.93,331.07,405,329,399.8Z"/><path class="cls-131" d="M347.95,406.67c7.6-3.85,9.15.09,8.64,6.7C349,417.19,347.26,413.51,347.95,406.67Z"/><path class="cls-131" d="M294.34,377.3c5.78-3.56,10-3.89,9.84,4.77C298.27,385.89,294.67,385,294.34,377.3Z"/><path class="cls-198" d="M262.83,365.11c3.27-2.22,6.62-4.37,7.15-8.82l3.45,1.8c2.75,5.65,1.73,9.41-5.13,10.25Z"/><path class="cls-199" d="M280.31,361.62c.38,4.52-2.6,7.34-5.25,10.33l-3.44-1.77a20.37,20.37,0,0,1,5.24-10.3Z"/><path class="cls-200" d="M276.87,359.87a19.22,19.22,0,0,1-5.24,10.3l-3.34-1.84c3.87-2.34,5.09-6,5.13-10.25Z"/><path class="cls-201" d="M370.37,425.27c.17-1.89-.44-4.07,2.54-5.44,1.3,2.71,1.52,5.07-.78,7.36Z"/><path class="cls-202" d="M450,453.15l-5.2,10.11c-2.64-1-5.46-1.82-6.65-4.85,1.69-3.16,3-6.66,6.58-8.29Z"/><path class="cls-203" d="M444.72,450.12c-1.16,3.58-2.7,6.87-6.58,8.29C436.82,452.86,438.1,449.36,444.72,450.12Z"/><path class="cls-204" d="M273.53,323.49q-.13.77-.32,1.52l-4.86,2c-2.39-3-3.62-7-7.3-9l5.49-3.22C272.42,314.81,274,318.3,273.53,323.49Z"/><path class="cls-205" d="M280.36,319.9l-3.51,1.55c-3.55-1.84-5.39-5.08-7-8.53l5.36-3.33C281.87,310.57,282.08,314.76,280.36,319.9Z"/><path class="cls-206" d="M280.36,319.9c-1.16-3.71-1.05-8.06-5.14-10.31l3.41-1.79c3.48,1.91,4.57,5.73,6.87,8.58Z"/><path class="cls-207" d="M269.87,312.92c4.3,1.23,5.95,4.63,7,8.53l-3.32,2c-2.34-2.91-3.48-6.78-7-8.75Z"/><path class="cls-208" d="M451.49,392.18,449.22,394l-2.82.71a23.06,23.06,0,0,1-10.25,0l-1.79-.38a6.91,6.91,0,0,1-.26-1.37c.83-1.42-.18-5.32,2.72-3.82C441.59,391.57,447,389.45,451.49,392.18Z"/><path class="cls-209" d="M310.78,53.58c6.21-5.15,13.53-8.48,20.43-12.49,5.17,3.44,1.82,8.86,3.07,13.22-1.9,5.67-6.73,7.39-11.81,8.78C317.62,61.1,311.88,60.19,310.78,53.58Z"/><path class="cls-210" d="M332.57,55.23q-.68-7.07-1.36-14.15c1.56-11,.21-22,.83-33C332.2,5.13,330.47.91,335.6,0c.21,14.6.65,29.2.5,43.8-.05,5.21,1.13,8.23,6.79,8.11a2.22,2.22,0,0,1-.52,2.42C339.23,56,336.09,57.7,332.57,55.23Z"/><path class="cls-211" d="M273.43,53.47c1-6.16,6.17-7.25,10.88-9.09,3.16-1.23,7.66-1,8.08-6,5.86,1.5,7.57,6.81,10.3,11.19,3,3.2,3.38,6.94,2.18,11-3.7,6-6.34,3.82-8.63-1.15-1.56-3.38-.76-8.14-5.64-9.53C286.78,49,283.13,49,280,51.8,277.94,52.9,276.09,54.81,273.43,53.47Z"/><path class="cls-212" d="M310.78,53.58c2.88,3.84,8.46,4.1,11.05,8.33-2.58,5.39-6.23,8.83-12.77,7a6.9,6.9,0,0,1-1.64-3.86,36.87,36.87,0,0,1,.2-8.69,4.4,4.4,0,0,1,2.8-3.2Z"/><path class="cls-213" d="M310.42,53.21,309.49,57c-1.06,2.58-1,5.81-4,7.28a4,4,0,0,1-2.43.05,1.92,1.92,0,0,1-.69-2.14q.18-6.32.35-12.65Z"/><path class="cls-214" d="M654.06,269.89c-2.36,0-4-1.22-5.33-3-2.08-4.16-2.4-8.31.11-12.43,2.76-.52,3.36,2.39,5.23,3.29C657,261.8,657.64,265.84,654.06,269.89Z"/><path class="cls-215" d="M654.06,269.89q0-6.07,0-12.13a3.53,3.53,0,0,1,3.58,1.41c2.2,4.24,2.57,8.45-.15,12.63Z"/><path class="cls-216" d="M657.49,271.8q.08-6.31.15-12.63l3.38,1.89c-.59,4,1.41,8.45-1.71,12.13Z"/><path class="cls-217" d="M648.84,254.46q-.05,6.21-.11,12.42l-3.35-1.94q0-4.57.06-9.14,0-.68,0-1.35Z"/><path class="cls-218" d="M624.37,114l1.78-1.8c5.2,4.51,11.3,7.57,17.37,10.67q.06,10.21.13,20.42c-3.56.45-5.52-2.85-8.55-3.63-9-2.33-11.89-8.25-10.51-17.08C625,119.82,624.47,116.89,624.37,114Z"/><path class="cls-219" d="M657.08,127.55c-.61,2.69-1.94,4.36-4.14,4.34-2.64,0-4.22-1.73-4-4.54.18-2.22,1.27-4.09,3.68-3.92C655.21,123.61,656.38,125.69,657.08,127.55Z"/><path class="cls-131" d="M533.54,381.32c2.87.83,6,1.57,5.86,5.21-.08,3-2.24,4.34-5.19,4.41-3.12.08-4.75-1.2-4.67-4.5C529.59,383.59,530.17,381.35,533.54,381.32Z"/><path class="cls-121" d="M586.76,351.15c3.34.1,5.07,1.7,5,4.81s-2.1,4.67-5.08,4.35c-2.52-.27-5.31-.69-4.82-4.5C582.27,352.72,584,351.27,586.76,351.15Z"/><path class="cls-131" d="M556.9,375.89c-.17,3-1.86,4.44-4.85,4.56s-5-.51-5.07-4c-.07-3.11,1.18-4.67,4.44-4.64C554.3,371.85,556.27,372.87,556.9,375.89Z"/><path class="cls-5" d="M574.33,366c-.33,3.12-2.26,4.48-5.23,4.26s-4.59-2.11-4.57-5.11,2.13-3.64,4.67-3.62C572.19,361.5,574.12,362.69,574.33,366Z"/><path class="cls-220" d="M302.34,62.23a9.32,9.32,0,0,1,.64,1.58,7.42,7.42,0,0,1,1.94,5.85c-1,3.24.91,7.74-3.89,9.44l-2,2c-7.08-.47-3.14-7.92-6.72-10.61a5.21,5.21,0,0,1-.84-2.39c1.82-7.21-1.92-14.12-1.14-21.27,5.71,0,6,4.54,7.54,8.41C298.82,57.7,296.82,62.55,302.34,62.23Z"/><path class="cls-221" d="M290.91,109.15c-.41,1.46-.86,3.1-1.32,4.74-1,3.59,1.66,8.25-3.08,10.73-1.19.62-2.68.2-2.51-1.1.78-6.06-7.41-11.82-.57-18,1.73-1.57,3.48-3.26,6-1.89C291.48,104.76,291,107,290.91,109.15Z"/><path class="cls-222" d="M308.34,119.05c-.62,2.11-1.39,4.11-3.76,4.88q0-22.13,0-44.27c.11-1.92.24-3.83,2.71-4.25a3.64,3.64,0,0,1,2.23,1.71c2.37,4.14.76,8.7,1.41,13,.88,4-.65,8.06,0,12.1C311.66,108.1,311.62,113.84,308.34,119.05Z"/><path class="cls-223" d="M306.38,75.89a4.29,4.29,0,0,1-1.76,3.78L301,79.1c3.06-2.25-.78-6.05,1.9-8.38a3,3,0,0,1,3.87,0A4.09,4.09,0,0,1,306.38,75.89Z"/><path class="cls-85" d="M308.35,89.64,308,76.13c-1.71-2.68-.24-4.29,2-5.43,8.62-4.42,16.67-9.84,25.23-14.37,4.76-2.52,8.63-2.5,11.83,2.23a17.36,17.36,0,0,1,2.91,4.18c1.63,3.75,3.49,7.43,4.05,11.56-.18,2.88-2.15,4.62-4.15,6.28-9.62,8-17.29,17.68-23.88,28.26a18.51,18.51,0,0,1-3,3.44,2.65,2.65,0,0,1-2.15.37l-12.43,6.4V101.72c1.75-4.29,5.59-6.24,9.33-8.29,3.48-1.91,7.05-3.67,10.16-6.19,1.11-.89,2.25-2,1.26-3.57s-2.51-.92-3.81-.39c-2.9,1.18-5.54,2.87-8.31,4.3S311.79,91.34,308.35,89.64Z"/><path class="cls-224" d="M320.77,112.65a1.1,1.1,0,0,0,1.17-.29c5.73,2,5.81,2.38,1.71,9-3,2.57-3.41-1.44-5.15-2.06Z"/><path class="cls-225" d="M375.45,75.44c5.16,5.88,1.75,14,5.2,20.29.05,6.4-6.92,7-9.33,11.43-10.61,9.53-18.66,20.79-23.2,34.42-6.31,17.3-9.24,34.68-1.67,52.43,3.73,8.75,9,15.85,18.81,18.22,8.3,3,15.88,1.06,23.12-3.3,2.57-.45,5.19-2,7.63.34l1.84,18.85C374,242.2,354.79,240.6,334.11,222.8c-5.26-1.34-6.26-6.32-8.25-10.19a72,72,0,0,1-7.42-27c-.47-9.78-1.91-19.61,1.78-29.13l-.06-1.86c-.35-5.76,2.47-10.85,3.48-16.32a48.05,48.05,0,0,1,5.09-12.76c2.83-3.73,7.79-14.15,8.75-18.45a42.78,42.78,0,0,1,3.45-4.66c2.45-3.36,5.22-6.47,7.39-10a31.22,31.22,0,0,1,5.78-5.76c4.27-2.76,8.16-6,12.35-8.92C369.38,76.67,371.74,73.39,375.45,75.44Z"/><path class="cls-226" d="M319.82,186.84c2,13.08,6.16,25.31,14.29,36l-2,2c-8.3-8.1-11.06-18.84-14.08-29.47l.2-3C318,190.26,315.91,187.7,319.82,186.84Z"/><path class="cls-227" d="M339.55,107.16c.07,2.5-4.68,5.57,1,7.5,1,.35-3.17,7.27-5.81,7.84-2.34.5-3.31,1.92-4.51,3.46-3.18.78-1.78-2.26-2.76-3.32-.78-1.86-2.23-1.81-3.82-1.32-2.07-2.7,4.32-7-1.71-9l1.09-3.49c4.53-2.59,9.13-4.89,14.58-2.94A3.74,3.74,0,0,1,339.55,107.16Z"/><path class="cls-228" d="M325.1,138.15l-4.94,16.49c-2-1.61-1.51-3.84-1.5-6l4.95-13.93C325,135.5,324.15,137.22,325.1,138.15Z"/><path class="cls-229" d="M325.1,138.15l-1.5-3.39c-.76-4.69,3.75-7.7,3.87-12.11l2.76,3.32Z"/><path class="cls-230" d="M319.82,186.84c-1.61,1.51-1.31,3.57-1.56,5.47C316,189,317.15,185,316.14,181.5c.17-6,.28-12,.53-18,.12-2.82,0-5.89,3.54-7C319.84,166.61,318.3,176.7,319.82,186.84Z"/><path class="cls-5" d="M619.5,103.24c3.78,2.36,4,5.38,1.66,8.88-3.15,1.26-6.7,3.49-8.17-1.82C611.47,104.79,614.73,103.2,619.5,103.24Z"/><path class="cls-131" d="M588.09,89.34c-3,2.69-6.07,6.14-10,1.81s.59-6.27,3.28-8.52C585.46,83.06,587.52,85.46,588.09,89.34Z"/><path class="cls-131" d="M600.45,103.47C596.48,102,594.94,99,595,95c3.35-2.56,7-3.19,9.43.66C607,99.68,603.3,101.62,600.45,103.47Z"/><path class="cls-231" d="M254.61,100.1l8.5-1.81C261,102.11,258.29,103.46,254.61,100.1Z"/><path class="cls-232" d="M553.27,171,526,186.79,498.78,171a3.78,3.78,0,0,1,.09-1.33l1.49-1.47,18.76-10.87a1.74,1.74,0,0,1,2.17-.19c3.88,3.32,0,9.17,4,12.4,3.87-.44,2.81-3.73,3.33-5.92,1.8-7.67,3.35-8.46,10.41-4.69a108.3,108.3,0,0,1,10.19,6.25,11.35,11.35,0,0,1,2,1.19C552.41,167.68,554.94,168.47,553.27,171Z"/><path class="cls-233" d="M520.55,157.4h-.72l-.71-.11q-.13-4.33-.26-8.66,0-20.79,0-41.59c-2.48-4.25-3.76-8.79-2.46-13.64.65-2.42.65-6,4.94-5.05,2.2,2.31,2,5.26,2,8.1q.12,26.2,0,52.39C523.35,152,523.65,155.27,520.55,157.4Z"/><path class="cls-234" d="M503.77,204.56,503.39,193l2-1.16c6.38,1.27,6.7,2.25,3.35,10Z"/><path class="cls-235" d="M434.1,78.24c3,4.84,7.9,8.53,9.19,14.48l-.39,2.53C436.15,86.72,430,77.54,419.46,73c-15.07-6.41-29.7-5.08-44,2.4l-8.23,4.22c-2,.54-2.53-.63-2.55-2.32C371.85,67.1,383,64.92,394.19,63.19c4.43-.68,9-.16,13.58-.11C418,65.59,428.58,67.52,434.1,78.24Z"/><path class="cls-236" d="M562.36,174.4c-2.81,1.82-4.73,5-8.33,5.6l-.76-9-2.76-3c1.29-4.61,4.2-6.62,9-5.58C562.2,166,565.12,169.52,562.36,174.4Z"/><path class="cls-237" d="M546.83,195.79c.25,4.27-2.32,6.69-5.64,8.63-4.3-1.4-6.48-4.27-3.91-8.37S543.56,193.33,546.83,195.79Z"/><path class="cls-238" d="M396,209.27l-6.68,1.57c-1.35-.49-2.29-1.29-2.13-2.89.95-2.66,3.32-3.83,5.48-5.26C420,184.63,430,158.16,427.53,126.81c-1.66-21.41-21.2-37.13-44.35-23.9-3.42,2-6.74,4.63-11.18,3.86a3.75,3.75,0,0,1-2.08-1.55l10.73-9.5c2.94-1.18,5.82-2.51,8.82-3.52,18.5-6.24,35.1,1.44,41.65,19.91,7.91,22.33,3.5,43.73-6.6,64.27C417.94,189.76,409,201.3,396,209.27Z"/><path class="cls-239" d="M348.11,63.93,346,60.36c-1.28-2.15-2.75-4.22-3-6.81a6.75,6.75,0,0,0,0-1.64c.22-3.14.44-6.27.7-9.93,5.88.39,9,6.26,14.48,6.69a5.37,5.37,0,0,1,6.31,3.08,6.31,6.31,0,0,1,.21,2.53C360.74,60.29,355.58,64.09,348.11,63.93Z"/><path class="cls-240" d="M389.34,50l-8.66,5c-3.45-3.14-2.74-7.33-2.85-11.32.13-3,3-2.81,4.61-4l5.19-3.21C394,40.2,392.28,45,389.34,50Z"/><path class="cls-241" d="M389.34,50c-.22-4.56,1-9.3-1.71-13.54,2.66-1.59,5.29-3.27,8.48-3.61C395.75,39.27,399,47.17,389.34,50Z"/><path class="cls-242" d="M342.92,53.55a11.57,11.57,0,0,1,3,6.81c-3.53-4.6-7.3-4.86-12.21-1.65-6.93,4.53-14.28,8.43-21.48,12.53-2,1.16-4.1,2.17-4.28,4.89a4.16,4.16,0,0,0-1.61-.25q-.06-2.43-.12-4.86c.47-1.82,1.54-2.73,3.48-2.31l12.09-6.8,10.74-6.68C336.05,54.87,339.21,52.51,342.92,53.55Z"/><path class="cls-243" d="M292.85,68.46c1.66-11-4.76-15.9-14-18.68,3.21-3.36,7.22-3.63,11.46-3A26.3,26.3,0,0,1,292.85,68.46Z"/><path class="cls-244" d="M309.4,66.09l-4.66-2.56,4.75-6.5Z"/><path class="cls-151" d="M308.35,89.64c5.71-3.23,11.52-6.3,17.1-9.75,3-1.83,5.05-2.33,6.87,1.28,1.6,3.17,2.2,5.66-1.71,7.78-7.52,4.08-14.86,8.49-22.27,12.77Q308.35,95.68,308.35,89.64Z"/><path class="cls-245" d="M365.57,67.08a63.9,63.9,0,0,1,28.69-5.84c5.38-1.38,10.94-3.4,13.67,4.09-15.8-1.09-30.06,3-42.62,12.74-2.47,4.21-6.65,6.58-10.25,9.57a12.1,12.1,0,0,1-5.77,5.8c-2.14,3.14-5,5.74-7.12,8.87a21.31,21.31,0,0,1-4.58,4.87L323,108.87a118.85,118.85,0,0,1,30.73-34.74C356.15,69.17,360.29,67.17,365.57,67.08Z"/><path class="cls-246" d="M365.57,67.08l-11.8,7c-4.19-2.12-4.21-6.55-5.66-10.2,5.09-3.56,11.13-5.65,15.57-10.2,5.94,2.38,3.09,6.45,1.94,10.18Z"/><path class="cls-247" d="M364.94,214.48c-11.3-1.81-17-10-20.87-19.45-7.66-18.53-5.32-36.93,2.16-55,1.7-.32,2.44.74,3,2.07.61,7.86-2.78,15.19-3.17,22.91-.81,15.86,1.8,30.42,16.09,40.31,2.81,1.94,6.43,2.63,8.57,5.61C370.36,214.65,368.5,215.95,364.94,214.48Z"/><path class="cls-248" d="M347.9,141.79,346.23,140a75,75,0,0,1,23.7-34.81l2.27.2C365.37,118.39,357.57,130.71,347.9,141.79Z"/><path class="cls-249" d="M364.94,214.48a5.93,5.93,0,0,0,5.36-3.41c5.38-4.32,11.18-4.75,17.34-1.87l1.69,1.63C381.83,216.22,373.78,218,364.94,214.48Z"/><path class="cls-230" d="M355.05,87.62c1.78-4.94,6.23-7,10.25-9.57l1.91,1.6C363.33,82.57,360.47,87.06,355.05,87.62Z"/><path class="cls-250" d="M340.78,101.83c2.68-3,3.92-7.37,8.5-8.41-.18,4.73-4.14,6.94-6.72,10.07A1.82,1.82,0,0,1,340.78,101.83Z"/><path class="cls-102" d="M340.78,101.83l1.78,1.66-3,3.67h-2C338.54,105.32,338.75,103,340.78,101.83Z"/><path class="cls-251" d="M522.58,84.65c2.75,1.7,2.06,4.5,2.06,7q0,40.72-.13,81.45c-7.25-3.72-2.27-10.53-4-15.65q0-34.8,0-69.6Z"/><path class="cls-252" d="M588.34,146.91c3.16,3.66,1.16,8.06,1.72,12.1l-8.66,5.16c-3.69-3.59-3.05-7.8-1.76-12.11Z"/><path class="cls-253" d="M565.78,158.88l8.68-3.57c3.73,4.07,3.41,8.15,0,12.22l-7,4.87C563.48,168.33,564.48,163.63,565.78,158.88Z"/><path class="cls-254" d="M565.78,158.88c2.54,4.26,1.67,8.95,1.73,13.52-1.55,1.09-3.05,2.32-5.15,2-.34-4.09-3.88-7.23-3.46-11.55Z"/><path class="cls-255" d="M574.46,167.53V155.32a6.33,6.33,0,0,1,5.18-3.26c3.22,3.66,1.21,8.07,1.76,12.11C579.12,165.34,577.46,167.82,574.46,167.53Z"/><path class="cls-256" d="M387.64,209.2c-5.63,2-11.5,1.79-17.34,1.87-12.68-1.42-19.48-9.95-23.78-20.69-5.17-12.91-4.48-26.21-.87-39.46.83-3,1.5-6.09,2.24-9.13,6-13.52,13.84-25.82,24.3-36.37,2.78-1.42,5.59-2.8,8.34-4.28C404.15,88.43,424.35,97,430,123.28c6.35,29.56-11.58,68.29-33.57,80.63C393.46,205.59,390.57,207.43,387.64,209.2Z"/><path class="cls-257" d="M365.62,63.91c-1.47-3.24,1.12-7.25-1.95-10.18L362.9,52l9.19-5.38c6.66,3.09,4.75,7.38,1.66,11.83Z"/><path class="cls-258" d="M373.75,58.41c-.47-4,1.43-8.24-1.66-11.83a12,12,0,0,1,6.73-3.64c3.36,3.59,1.35,8,1.85,12C378.46,56.31,376.76,58.7,373.75,58.41Z"/><path class="cls-256" d="M406.88,155.76c-5.46,13-11,25.94-16.37,39-1.72,4.15-3.82,4.82-6.59,1.07-5.8-7.87-13.61-14.09-18.53-22.67,4.57-3.68,10.44-2.69,15.51-3.24,5.89-.64,9.14-3.2,12.76-7.19,3.29-3.63,4.91-9.55,11.23-9.8C406.35,153.29,407.42,154,406.88,155.76Z"/><path class="cls-256" d="M389.26,163.92c-7.86,1.37-15.69,3.83-23.66.59,4.34-9.68,11-17.89,18.56-24.91,5.74-5.32,13.51-4.24,20.58-1.1,1.11,1.72,6.49.3,3.64,4.94C402.95,151.15,399,160.21,389.26,163.92Z"/><path class="cls-256" d="M389.3,109.57l19.45,21.79a8.39,8.39,0,0,1-7.43.11c-5.21,1.37-11.65-3.51-15.82,3.12-2.93,7.71-6.54,14.79-15.77,16.48a2.58,2.58,0,0,1-1.09-3.64c5.26-12.37,11.07-24.48,17-36.56C386.2,109.63,387.19,107.49,389.3,109.57Z"/><path class="cls-256" d="M389.26,163.92l19.12-20.47c1.77,1.75-.37,3.54.06,5.3.79,3-1.75,3.78-3.48,5.08-.66.54-1.53,1-1.93,1.64-8.5,14.55-22.15,18-37.63,17.63-2.49-1.7-4.14-3.24.64-3.72,5.41-.55,10.8-1.27,16.22-1.66C385.28,167.52,388,167.21,389.26,163.92Z"/><path class="cls-256" d="M370.27,150.74c6.69-3.86,9.5-11.39,15.23-16.15,6.76.85,13.73-1,20.33,1.54.44.16,4-.68,1.39,1.91-.49.49-1.64.33-2.48.47-12.55-2.66-21.35,2.19-27.91,13-2.95,4.83-7.44,8.72-11.23,13-2.79-.51-3.31-1.7-1.25-3.84s4.29-3.78,4.32-7C367.72,151.9,368.85,151.25,370.27,150.74Z"/><path class="cls-256" d="M370.27,150.74l-1.6,2.95c-1.38-.74-6.49,3.43-3.78-2.66,6.2-13.9,12.6-27.72,19-41.53,1.68-3.61,3.65-4.75,5.4.06A168.33,168.33,0,0,0,370.27,150.74Z"/><path class="cls-256" d="M405,153.84l3.48-5.08c2.84,3.09-.22,4.85-1.57,7Z"/><path class="cls-256" d="M401.32,131.46l7.43-.11C406.32,134.62,403.81,132.73,401.32,131.46Z"/></g></g></g></svg>