<svg xmlns="http://www.w3.org/2000/svg" viewBox="0 0 367.22 487.56"><defs><style>.cls-1{fill:#fff;}</style></defs><title>tel</title><g id="Calque_2" data-name="Calque 2"><g id="Calque_2-2" data-name="Calque 2"><path class="cls-1" d="M0,114.42c.67-1,.4-2.17.48-3.25,1.47-20.45,10.77-36.59,26.8-49.11C35.69,55.49,44.81,50,54,44.65c1.08-.63,1.14.25,1.44.76q10,17.2,19.88,34.41Q98.65,120.28,122,160.72c.53.92.65,1.34-.42,2-9.79,6.06-15.42,15.11-18.35,26a77.14,77.14,0,0,0-2,26.69c2.2,26.17,11.41,50.06,24.15,72.73,9.37,16.67,20.68,31.89,34.8,44.88,9.06,8.33,19,15.4,30.65,19.66,13.49,4.93,26.73,4.85,39.56-2.2,1.12-.62,1.23.17,1.57.76l19.65,34q23.4,40.51,46.82,81c.72,1.23.58,1.69-.66,2.39-10.08,5.68-20.24,11.18-31.28,14.82a72.66,72.66,0,0,1-19.15,3.78c-.24,0-.51,0-.59.28h-1.49a8.49,8.49,0,0,0-3.57,0h-1.78c-1.74-.38-3.53-.2-5.28-.45a73,73,0,0,1-21.34-6.65c-11.81-5.67-22.5-13.1-32.83-21.07-7.57-5.84-14.74-12.15-21.74-18.67q-7.78-7.25-15.1-14.94a496.93,496.93,0,0,1-34-39.9c-9.84-12.82-19.09-26.06-27.87-39.61q-11.6-17.9-21.91-36.58c-5.07-9.2-10-18.45-14.64-27.89A574.36,574.36,0,0,1,21.4,226.11,425,425,0,0,1,8.57,184.67a302.46,302.46,0,0,1-7.22-38.22A158.13,158.13,0,0,1,.15,128q0-.73,0-1.46,0-1,0-2.07,0-3,0-5.9a5.79,5.79,0,0,0-.15-2Z"/><path class="cls-1" d="M.25,118.27v6.27q-.13.18-.25,0v-6.24C.08,118.16.16,118.15.25,118.27Z"/><path class="cls-1" d="M241.73,487.56a4.52,4.52,0,0,1,3.57,0Z"/><path class="cls-1" d="M0,124.53H.25v2.08q-.14.18-.25,0Z"/><path class="cls-1" d="M.25,118.27H0V116.5C.64,117,.17,117.68.25,118.27Z"/><path class="cls-1" d="M0,126.61H.25v1.49H.12l-.12,0Z"/><path class="cls-1" d="M192.09,127.35a14.26,14.26,0,0,1-7.38,11.85q-17,10-34.14,19.73c-7.32,4.16-16.32,1.48-20.63-6q-14.36-24.83-28.69-49.68L66.4,42.92c-4.74-8.22-2.39-17.08,5.78-21.8q16.24-9.38,32.48-18.75c8.12-4.68,17-2.29,21.68,5.84q31.73,54.95,63.45,109.9A16.88,16.88,0,0,1,192.09,127.35Z"/><path class="cls-1" d="M317.06,464.08c-4.58-.23-9.07-2.74-12-7.84l-27.51-47.63-35.95-62.27c-4.89-8.47-2.55-17.17,5.94-22.07l32.09-18.54c8.31-4.79,17.08-2.44,21.88,5.87L365,421.5a15.18,15.18,0,0,1-5.74,21.38q-16.43,9.49-32.87,19A16.74,16.74,0,0,1,317.06,464.08Z"/></g></g></svg>